<?xml version="1.0" encoding="utf-8"?>
<svg version="1.1" xmlns:xlink="http://www.w3.org/1999/xlink" width="17px" height="17px" viewBox="1297 1195  17 17" xmlns="http://www.w3.org/2000/svg">
  <path d="M 1305.5 1195  C 1310.26 1195  1314 1198.74  1314 1203.5  C 1314 1208.26  1310.26 1212  1305.5 1212  C 1300.74 1212  1297 1208.26  1297 1203.5  C 1297 1198.74  1300.74 1195  1305.5 1195  Z " fill-rule="nonzero" fill="#ffffff" stroke="none" />
  <path d="M 1305.5 1195.5  C 1309.98 1195.5  1313.5 1199.02  1313.5 1203.5  C 1313.5 1207.98  1309.98 1211.5  1305.5 1211.5  C 1301.02 1211.5  1297.5 1207.98  1297.5 1203.5  C 1297.5 1199.02  1301.02 1195.5  1305.5 1195.5  Z " stroke-width="1" stroke="#f60068" fill="none" />
  <path d="M 1305.5 1207.75  C 1303.12 1207.75  1301.25 1205.88  1301.25 1203.5  C 1301.25 1201.12  1303.12 1199.25  1305.5 1199.25  C 1307.88 1199.25  1309.75 1201.12  1309.75 1203.5  C 1309.75 1205.88  1307.88 1207.75  1305.5 1207.75  " fill-rule="nonzero" fill="#f60068" stroke="none" />
</svg>