<?xml version="1.0" encoding="utf-8"?>
<svg version="1.1" xmlns:xlink="http://www.w3.org/1999/xlink" width="17px" height="17px" viewBox="1297 1221  17 17" xmlns="http://www.w3.org/2000/svg">
  <path d="M 1305.5 1221  C 1310.26 1221  1314 1224.74  1314 1229.5  C 1314 1234.26  1310.26 1238  1305.5 1238  C 1300.74 1238  1297 1234.26  1297 1229.5  C 1297 1224.74  1300.74 1221  1305.5 1221  Z " fill-rule="nonzero" fill="#ffffff" stroke="none" />
  <path d="M 1305.5 1221.5  C 1309.98 1221.5  1313.5 1225.02  1313.5 1229.5  C 1313.5 1233.98  1309.98 1237.5  1305.5 1237.5  C 1301.02 1237.5  1297.5 1233.98  1297.5 1229.5  C 1297.5 1225.02  1301.02 1221.5  1305.5 1221.5  Z " stroke-width="1" stroke="#f60068" fill="none" />
  <path d="M 1305.5 1233.75  C 1303.12 1233.75  1301.25 1231.88  1301.25 1229.5  C 1301.25 1227.12  1303.12 1225.25  1305.5 1225.25  C 1307.88 1225.25  1309.75 1227.12  1309.75 1229.5  C 1309.75 1231.88  1307.88 1233.75  1305.5 1233.75  " fill-rule="nonzero" fill="#f60068" stroke="none" />
</svg>