<?xml version="1.0" encoding="utf-8"?>
<svg version="1.1" xmlns:xlink="http://www.w3.org/1999/xlink" width="12px" height="12px" viewBox="1122 998  12 12" xmlns="http://www.w3.org/2000/svg">
  <path d="M 1122.5 1001  A 2.5 2.5 0 0 1 1125 998.5 L 1131 998.5  A 2.5 2.5 0 0 1 1133.5 1001 L 1133.5 1007  A 2.5 2.5 0 0 1 1131 1009.5 L 1125 1009.5  A 2.5 2.5 0 0 1 1122.5 1007 L 1122.5 1001  Z " fill-rule="nonzero" fill="#ffffff" stroke="none" />
  <path d="M 1122.5 1001  A 2.5 2.5 0 0 1 1125 998.5 L 1131 998.5  A 2.5 2.5 0 0 1 1133.5 1001 L 1133.5 1007  A 2.5 2.5 0 0 1 1131 1009.5 L 1125 1009.5  A 2.5 2.5 0 0 1 1122.5 1007 L 1122.5 1001  Z " stroke-width="1" stroke="#f60068" fill="none" />
  <path d="M 1124.57142857143 1004  L 1127.14285714286 1006.57142857143  " stroke-width="2.57142857142857" stroke="#f60068" fill="none" />
  <path d="M 1127.14285714286 1006.57142857143  L 1131.42857142857 1000.57142857143  " stroke-width="2.57142857142857" stroke="#f60068" fill="none" />
</svg>