<?xml version="1.0" encoding="utf-8"?>
<svg version="1.1" xmlns:xlink="http://www.w3.org/1999/xlink" width="1349px" height="88px" viewBox="106 3030  1349 88" xmlns="http://www.w3.org/2000/svg">
  <path d="M 107 3035  A 4 4 0 0 1 111 3031 L 1450 3031  A 4 4 0 0 1 1454 3035 L 1454 3113  A 4 4 0 0 1 1450 3117 L 111 3117  A 4 4 0 0 1 107 3113 L 107 3035  Z " fill-rule="nonzero" fill="#ffffff" stroke="none" />
  <path d="M 106.5 3035  A 4.5 4.5 0 0 1 111 3030.5 L 1450 3030.5  A 4.5 4.5 0 0 1 1454.5 3035 L 1454.5 3113  A 4.5 4.5 0 0 1 1450 3117.5 L 111 3117.5  A 4.5 4.5 0 0 1 106.5 3113 L 106.5 3035  Z " stroke-width="1" stroke="#8c8c8c" fill="none" stroke-opacity="0.349019607843137" />
</svg>