<?xml version="1.0" encoding="utf-8"?>
<svg version="1.1" xmlns:xlink="http://www.w3.org/1999/xlink" width="1347px" height="40px" viewBox="108 812  1347 40" xmlns="http://www.w3.org/2000/svg">
  <path d="M 109 817  A 4 4 0 0 1 113 813 L 1454 813  L 1454 847  A 4 4 0 0 1 1450 851 L 113 851  A 4 4 0 0 1 109 847 L 109 817  Z " fill-rule="nonzero" fill="#f0f0f0" stroke="none" />
  <path d="M 108.5 817  A 4.5 4.5 0 0 1 113 812.5 L 1454.5 812.5  L 1454.5 847  A 4.5 4.5 0 0 1 1450 851.5 L 113 851.5  A 4.5 4.5 0 0 1 108.5 847 L 108.5 817  Z " stroke-width="1" stroke="#d7d7d7" fill="none" stroke-opacity="0.498039215686275" />
</svg>