<?xml version="1.0" encoding="utf-8"?>
<svg version="1.1" xmlns:xlink="http://www.w3.org/1999/xlink" width="1210px" height="39px" viewBox="198 815  1210 39" xmlns="http://www.w3.org/2000/svg">
  <path d="M 199 834.5  A 18.5 18.5 0 0 1 217.5 816 L 1388.5 816  A 18.5 18.5 0 0 1 1407 834.5 A 18.5 18.5 0 0 1 1388.5 853 L 217.5 853  A 18.5 18.5 0 0 1 199 834.5 Z " fill-rule="nonzero" fill="#f0f0f0" stroke="none" />
  <path d="M 198.5 834.5  A 19 19 0 0 1 217.5 815.5 L 1388.5 815.5  A 19 19 0 0 1 1407.5 834.5 A 19 19 0 0 1 1388.5 853.5 L 217.5 853.5  A 19 19 0 0 1 198.5 834.5 Z " stroke-width="1" stroke="#d7d7d7" fill="none" stroke-opacity="0.505882352941176" />
</svg>