<?xml version="1.0" encoding="utf-8"?>
<svg version="1.1" xmlns:xlink="http://www.w3.org/1999/xlink" width="12px" height="12px" viewBox="1395 1123  12 12" xmlns="http://www.w3.org/2000/svg">
  <path d="M 1395.5 1126  A 2.5 2.5 0 0 1 1398 1123.5 L 1404 1123.5  A 2.5 2.5 0 0 1 1406.5 1126 L 1406.5 1132  A 2.5 2.5 0 0 1 1404 1134.5 L 1398 1134.5  A 2.5 2.5 0 0 1 1395.5 1132 L 1395.5 1126  Z " fill-rule="nonzero" fill="#f0f0f0" stroke="none" />
  <path d="M 1395.5 1126  A 2.5 2.5 0 0 1 1398 1123.5 L 1404 1123.5  A 2.5 2.5 0 0 1 1406.5 1126 L 1406.5 1132  A 2.5 2.5 0 0 1 1404 1134.5 L 1398 1134.5  A 2.5 2.5 0 0 1 1395.5 1132 L 1395.5 1126  Z " stroke-width="1" stroke="#797979" fill="none" />
</svg>