<?xml version="1.0" encoding="utf-8"?>
<svg version="1.1" xmlns:xlink="http://www.w3.org/1999/xlink" width="12px" height="12px" viewBox="896 1123  12 12" xmlns="http://www.w3.org/2000/svg">
  <path d="M 896.5 1126  A 2.5 2.5 0 0 1 899 1123.5 L 905 1123.5  A 2.5 2.5 0 0 1 907.5 1126 L 907.5 1132  A 2.5 2.5 0 0 1 905 1134.5 L 899 1134.5  A 2.5 2.5 0 0 1 896.5 1132 L 896.5 1126  Z " fill-rule="nonzero" fill="#f0f0f0" stroke="none" />
  <path d="M 896.5 1126  A 2.5 2.5 0 0 1 899 1123.5 L 905 1123.5  A 2.5 2.5 0 0 1 907.5 1126 L 907.5 1132  A 2.5 2.5 0 0 1 905 1134.5 L 899 1134.5  A 2.5 2.5 0 0 1 896.5 1132 L 896.5 1126  Z " stroke-width="1" stroke="#797979" fill="none" />
  <path d="M 898.571428571429 1129  L 901.142857142857 1131.57142857143  " stroke-width="2.57142857142857" stroke="#797979" fill="none" />
  <path d="M 901.142857142857 1131.57142857143  L 905.428571428571 1125.57142857143  " stroke-width="2.57142857142857" stroke="#797979" fill="none" />
</svg>