<?xml version="1.0" encoding="utf-8"?>
<svg version="1.1" xmlns:xlink="http://www.w3.org/1999/xlink" width="12px" height="12px" viewBox="397 1123  12 12" xmlns="http://www.w3.org/2000/svg">
  <path d="M 397.5 1126  A 2.5 2.5 0 0 1 400 1123.5 L 406 1123.5  A 2.5 2.5 0 0 1 408.5 1126 L 408.5 1132  A 2.5 2.5 0 0 1 406 1134.5 L 400 1134.5  A 2.5 2.5 0 0 1 397.5 1132 L 397.5 1126  Z " fill-rule="nonzero" fill="#ffffff" stroke="none" />
  <path d="M 397.5 1126  A 2.5 2.5 0 0 1 400 1123.5 L 406 1123.5  A 2.5 2.5 0 0 1 408.5 1126 L 408.5 1132  A 2.5 2.5 0 0 1 406 1134.5 L 400 1134.5  A 2.5 2.5 0 0 1 397.5 1132 L 397.5 1126  Z " stroke-width="1" stroke="#f60068" fill="none" />
  <path d="M 399.571428571429 1129  L 402.142857142857 1131.57142857143  " stroke-width="2.57142857142857" stroke="#f60068" fill="none" />
  <path d="M 402.142857142857 1131.57142857143  L 406.428571428571 1125.57142857143  " stroke-width="2.57142857142857" stroke="#f60068" fill="none" />
</svg>