<?xml version="1.0" encoding="utf-8"?>
<svg version="1.1" xmlns:xlink="http://www.w3.org/1999/xlink" width="1349px" height="273px" xmlns="http://www.w3.org/2000/svg">
  <g transform="matrix(1 0 0 1 -117 -626 )">
    <path d="M 118 631  A 4 4 0 0 1 122 627 L 1461 627  A 4 4 0 0 1 1465 631 L 1465 894  A 4 4 0 0 1 1461 898 L 122 898  A 4 4 0 0 1 118 894 L 118 631  Z " fill-rule="nonzero" fill="#ffffff" stroke="none" />
    <path d="M 117.5 631  A 4.5 4.5 0 0 1 122 626.5 L 1461 626.5  A 4.5 4.5 0 0 1 1465.5 631 L 1465.5 894  A 4.5 4.5 0 0 1 1461 898.5 L 122 898.5  A 4.5 4.5 0 0 1 117.5 894 L 117.5 631  Z " stroke-width="1" stroke="#d7d7d7" fill="none" stroke-opacity="0.349019607843137" />
  </g>
</svg>