<?xml version="1.0" encoding="utf-8"?>
<svg version="1.1" xmlns:xlink="http://www.w3.org/1999/xlink" width="230px" height="70px" viewBox="1178 1139  230 70" xmlns="http://www.w3.org/2000/svg">
  <path d="M 1179 1144  A 4 4 0 0 1 1183 1140 L 1407 1140  L 1407 1204  A 4 4 0 0 1 1403 1208 L 1183 1208  A 4 4 0 0 1 1179 1204 L 1179 1144  Z " fill-rule="nonzero" fill="#ffffff" stroke="none" fill-opacity="0.996078431372549" />
  <path d="M 1178.5 1144  A 4.5 4.5 0 0 1 1183 1139.5 L 1407.5 1139.5  L 1407.5 1204  A 4.5 4.5 0 0 1 1403 1208.5 L 1183 1208.5  A 4.5 4.5 0 0 1 1178.5 1204 L 1178.5 1144  Z " stroke-width="1" stroke="#d7d7d7" fill="none" stroke-opacity="0.498039215686275" />
</svg>