<?xml version="1.0" encoding="utf-8"?>
<svg version="1.1" xmlns:xlink="http://www.w3.org/1999/xlink" width="1349px" height="294px" xmlns="http://www.w3.org/2000/svg">
  <g transform="matrix(1 0 0 1 -117 -969 )">
    <path d="M 118 974  A 4 4 0 0 1 122 970 L 1461 970  A 4 4 0 0 1 1465 974 L 1465 1258  A 4 4 0 0 1 1461 1262 L 122 1262  A 4 4 0 0 1 118 1258 L 118 974  Z " fill-rule="nonzero" fill="#ffffff" stroke="none" />
    <path d="M 117.5 974  A 4.5 4.5 0 0 1 122 969.5 L 1461 969.5  A 4.5 4.5 0 0 1 1465.5 974 L 1465.5 1258  A 4.5 4.5 0 0 1 1461 1262.5 L 122 1262.5  A 4.5 4.5 0 0 1 117.5 1258 L 117.5 974  Z " stroke-width="1" stroke="#d7d7d7" fill="none" stroke-opacity="0.349019607843137" />
  </g>
</svg>