<?xml version="1.0" encoding="utf-8"?>
<svg version="1.1" xmlns:xlink="http://www.w3.org/1999/xlink" width="1349px" height="70px" viewBox="117 1448  1349 70" xmlns="http://www.w3.org/2000/svg">
  <path d="M 118 1453  A 4 4 0 0 1 122 1449 L 1465 1449  L 1465 1513  A 4 4 0 0 1 1461 1517 L 122 1517  A 4 4 0 0 1 118 1513 L 118 1453  Z " fill-rule="nonzero" fill="#f0f0f0" stroke="none" />
  <path d="M 117.5 1453  A 4.5 4.5 0 0 1 122 1448.5 L 1465.5 1448.5  L 1465.5 1513  A 4.5 4.5 0 0 1 1461 1517.5 L 122 1517.5  A 4.5 4.5 0 0 1 117.5 1513 L 117.5 1453  Z " stroke-width="1" stroke="#d7d7d7" fill="none" stroke-opacity="0.498039215686275" />
</svg>