<?xml version="1.0" encoding="utf-8"?>
<svg version="1.1" xmlns:xlink="http://www.w3.org/1999/xlink" width="12px" height="12px" viewBox="355 184  12 12" xmlns="http://www.w3.org/2000/svg">
  <path d="M 355.5 190  A 5.5 5.5 0 0 1 361 184.5 A 5.5 5.5 0 0 1 366.5 190 A 5.5 5.5 0 0 1 361 195.5 A 5.5 5.5 0 0 1 355.5 190 Z " fill-rule="nonzero" fill="#f0f0f0" stroke="none" />
  <path d="M 355.5 190  A 5.5 5.5 0 0 1 361 184.5 A 5.5 5.5 0 0 1 366.5 190 A 5.5 5.5 0 0 1 361 195.5 A 5.5 5.5 0 0 1 355.5 190 Z " stroke-width="1" stroke="#797979" fill="none" />
</svg>