<?xml version="1.0" encoding="utf-8"?>
<svg version="1.1" xmlns:xlink="http://www.w3.org/1999/xlink" width="12px" height="12px" viewBox="355 352  12 12" xmlns="http://www.w3.org/2000/svg">
  <path d="M 355.5 358  A 5.5 5.5 0 0 1 361 352.5 A 5.5 5.5 0 0 1 366.5 358 A 5.5 5.5 0 0 1 361 363.5 A 5.5 5.5 0 0 1 355.5 358 Z " fill-rule="nonzero" fill="#ffffff" stroke="none" />
  <path d="M 355.5 358  A 5.5 5.5 0 0 1 361 352.5 A 5.5 5.5 0 0 1 366.5 358 A 5.5 5.5 0 0 1 361 363.5 A 5.5 5.5 0 0 1 355.5 358 Z " stroke-width="1" stroke="#f60068" fill="none" />
  <path d="M 357.571428571429 358  L 360.142857142857 360.571428571429  " stroke-width="2.57142857142857" stroke="#f60068" fill="none" />
  <path d="M 360.142857142857 360.571428571429  L 364.428571428571 354.571428571429  " stroke-width="2.57142857142857" stroke="#f60068" fill="none" />
</svg>