<?xml version="1.0" encoding="utf-8"?>
<svg version="1.1" xmlns:xlink="http://www.w3.org/1999/xlink" width="12px" height="12px" viewBox="316 119  12 12" xmlns="http://www.w3.org/2000/svg">
  <path d="M 322 119.5  C 325.08 119.5  327.5 121.92  327.5 125  C 327.5 128.08  325.08 130.5  322 130.5  C 318.92 130.5  316.5 128.08  316.5 125  C 316.5 121.92  318.92 119.5  322 119.5  Z " fill-rule="nonzero" fill="#f0f0f0" stroke="none" />
  <path d="M 322 119.5  C 325.08 119.5  327.5 121.92  327.5 125  C 327.5 128.08  325.08 130.5  322 130.5  C 318.92 130.5  316.5 128.08  316.5 125  C 316.5 121.92  318.92 119.5  322 119.5  Z " stroke-width="1" stroke="#0000ff" fill="none" stroke-opacity="0.909803921568627" />
  <path d="M 322 128  C 320.32 128  319 126.68  319 125  C 319 123.32  320.32 122  322 122  C 323.68 122  325 123.32  325 125  C 325 126.68  323.68 128  322 128  " fill-rule="nonzero" fill="#0000ff" stroke="none" fill-opacity="0.909803921568627" />
</svg>