<?xml version="1.0" encoding="utf-8"?>
<svg version="1.1" xmlns:xlink="http://www.w3.org/1999/xlink" width="12px" height="12px" viewBox="316 193  12 12" xmlns="http://www.w3.org/2000/svg">
  <path d="M 322 193.5  C 325.08 193.5  327.5 195.92  327.5 199  C 327.5 202.08  325.08 204.5  322 204.5  C 318.92 204.5  316.5 202.08  316.5 199  C 316.5 195.92  318.92 193.5  322 193.5  Z " fill-rule="nonzero" fill="#ffffff" stroke="none" />
  <path d="M 322 193.5  C 325.08 193.5  327.5 195.92  327.5 199  C 327.5 202.08  325.08 204.5  322 204.5  C 318.92 204.5  316.5 202.08  316.5 199  C 316.5 195.92  318.92 193.5  322 193.5  Z " stroke-width="1" stroke="#0000ff" fill="none" stroke-opacity="0.909803921568627" />
  <path d="M 322 202  C 320.32 202  319 200.68  319 199  C 319 197.32  320.32 196  322 196  C 323.68 196  325 197.32  325 199  C 325 200.68  323.68 202  322 202  " fill-rule="nonzero" fill="#0000ff" stroke="none" fill-opacity="0.909803921568627" />
</svg>