<?xml version="1.0" encoding="utf-8"?>
<svg version="1.1" xmlns:xlink="http://www.w3.org/1999/xlink" width="347px" height="470px" xmlns="http://www.w3.org/2000/svg">
  <defs>
    <filter x="55px" y="134px" width="347px" height="470px" filterUnits="userSpaceOnUse" id="filter91">
      <feOffset dx="5" dy="5" in="SourceAlpha" result="shadowOffsetInner" />
      <feGaussianBlur stdDeviation="2.5" in="shadowOffsetInner" result="shadowGaussian" />
      <feComposite in2="shadowGaussian" operator="atop" in="SourceAlpha" result="shadowComposite" />
      <feColorMatrix type="matrix" values="0 0 0 0 0  0 0 0 0 0  0 0 0 0 0  0 0 0 0.349019607843137 0  " in="shadowComposite" />
    </filter>
    <g id="widget92">
      <path d="M 56 154  A 19 19 0 0 1 75 135 L 372 135  A 19 19 0 0 1 391 154 L 391 574  A 19 19 0 0 1 372 593 L 75 593  A 19 19 0 0 1 56 574 L 56 154  Z " fill-rule="nonzero" fill="#ffffff" stroke="none" fill-opacity="0.996078431372549" />
      <path d="M 55.5 154  A 19.5 19.5 0 0 1 75 134.5 L 372 134.5  A 19.5 19.5 0 0 1 391.5 154 L 391.5 574  A 19.5 19.5 0 0 1 372 593.5 L 75 593.5  A 19.5 19.5 0 0 1 55.5 574 L 55.5 154  Z " stroke-width="1" stroke="#333333" fill="none" stroke-opacity="0.996078431372549" />
    </g>
  </defs>
  <g transform="matrix(1 0 0 1 -55 -134 )">
    <use xlink:href="#widget92" filter="url(#filter91)" />
    <use xlink:href="#widget92" />
  </g>
</svg>