<?xml version="1.0" encoding="utf-8"?>
<svg version="1.1" xmlns:xlink="http://www.w3.org/1999/xlink" width="280px" height="36px" viewBox="75 136  280 36" xmlns="http://www.w3.org/2000/svg">
  <path d="M 76 141  A 4 4 0 0 1 80 137 L 350 137  A 4 4 0 0 1 354 141 L 354 167  A 4 4 0 0 1 350 171 L 80 171  A 4 4 0 0 1 76 167 L 76 141  Z " fill-rule="nonzero" fill="#ffffff" stroke="none" />
  <path d="M 75.5 141  A 4.5 4.5 0 0 1 80 136.5 L 350 136.5  A 4.5 4.5 0 0 1 354.5 141 L 354.5 167  A 4.5 4.5 0 0 1 350 171.5 L 80 171.5  A 4.5 4.5 0 0 1 75.5 167 L 75.5 141  Z " stroke-width="1" stroke="#555555" fill="none" stroke-opacity="0.349019607843137" />
</svg>