<?xml version="1.0" encoding="utf-8"?>
<svg version="1.1" xmlns:xlink="http://www.w3.org/1999/xlink" width="17px" height="17px" viewBox="1306 1901  17 17" xmlns="http://www.w3.org/2000/svg">
  <path d="M 1314.5 1901  C 1319.26 1901  1323 1904.74  1323 1909.5  C 1323 1914.26  1319.26 1918  1314.5 1918  C 1309.74 1918  1306 1914.26  1306 1909.5  C 1306 1904.74  1309.74 1901  1314.5 1901  Z " fill-rule="nonzero" fill="#ffffff" stroke="none" />
  <path d="M 1314.5 1901.5  C 1318.98 1901.5  1322.5 1905.02  1322.5 1909.5  C 1322.5 1913.98  1318.98 1917.5  1314.5 1917.5  C 1310.02 1917.5  1306.5 1913.98  1306.5 1909.5  C 1306.5 1905.02  1310.02 1901.5  1314.5 1901.5  Z " stroke-width="1" stroke="#f60068" fill="none" />
  <path d="M 1314.5 1913.75  C 1312.12 1913.75  1310.25 1911.88  1310.25 1909.5  C 1310.25 1907.12  1312.12 1905.25  1314.5 1905.25  C 1316.88 1905.25  1318.75 1907.12  1318.75 1909.5  C 1318.75 1911.88  1316.88 1913.75  1314.5 1913.75  " fill-rule="nonzero" fill="#f60068" stroke="none" />
</svg>