<?xml version="1.0" encoding="utf-8"?>
<svg version="1.1" xmlns:xlink="http://www.w3.org/1999/xlink" width="17px" height="17px" viewBox="1306 1927  17 17" xmlns="http://www.w3.org/2000/svg">
  <path d="M 1314.5 1927  C 1319.26 1927  1323 1930.74  1323 1935.5  C 1323 1940.26  1319.26 1944  1314.5 1944  C 1309.74 1944  1306 1940.26  1306 1935.5  C 1306 1930.74  1309.74 1927  1314.5 1927  Z " fill-rule="nonzero" fill="#f0f0f0" stroke="none" />
  <path d="M 1314.5 1927.5  C 1318.98 1927.5  1322.5 1931.02  1322.5 1935.5  C 1322.5 1939.98  1318.98 1943.5  1314.5 1943.5  C 1310.02 1943.5  1306.5 1939.98  1306.5 1935.5  C 1306.5 1931.02  1310.02 1927.5  1314.5 1927.5  Z " stroke-width="1" stroke="#797979" fill="none" />
  <path d="M 1314.5 1939.75  C 1312.12 1939.75  1310.25 1937.88  1310.25 1935.5  C 1310.25 1933.12  1312.12 1931.25  1314.5 1931.25  C 1316.88 1931.25  1318.75 1933.12  1318.75 1935.5  C 1318.75 1937.88  1316.88 1939.75  1314.5 1939.75  " fill-rule="nonzero" fill="#797979" stroke="none" />
</svg>