<?xml version="1.0" encoding="utf-8"?>
<svg version="1.1" xmlns:xlink="http://www.w3.org/1999/xlink" width="1349px" height="326px" xmlns="http://www.w3.org/2000/svg">
  <g transform="matrix(1 0 0 1 -106 -1863 )">
    <path d="M 107 1868  A 4 4 0 0 1 111 1864 L 1454 1864  L 1454 2184  A 4 4 0 0 1 1450 2188 L 111 2188  A 4 4 0 0 1 107 2184 L 107 1868  Z " fill-rule="nonzero" fill="#ffffff" stroke="none" />
    <path d="M 106.5 1868  A 4.5 4.5 0 0 1 111 1863.5 L 1454.5 1863.5  L 1454.5 2184  A 4.5 4.5 0 0 1 1450 2188.5 L 111 2188.5  A 4.5 4.5 0 0 1 106.5 2184 L 106.5 1868  Z " stroke-width="1" stroke="#d7d7d7" fill="none" stroke-opacity="0.505882352941176" />
  </g>
</svg>