<?xml version="1.0" encoding="utf-8"?>
<svg version="1.1" xmlns:xlink="http://www.w3.org/1999/xlink" width="1349px" height="222px" xmlns="http://www.w3.org/2000/svg">
  <g transform="matrix(1 0 0 1 -106 -1551 )">
    <path d="M 107 1556  A 4 4 0 0 1 111 1552 L 1454 1552  L 1454 1768  A 4 4 0 0 1 1450 1772 L 111 1772  A 4 4 0 0 1 107 1768 L 107 1556  Z " fill-rule="nonzero" fill="#ffffff" stroke="none" />
    <path d="M 106.5 1556  A 4.5 4.5 0 0 1 111 1551.5 L 1454.5 1551.5  L 1454.5 1768  A 4.5 4.5 0 0 1 1450 1772.5 L 111 1772.5  A 4.5 4.5 0 0 1 106.5 1768 L 106.5 1556  Z " stroke-width="1" stroke="#d7d7d7" fill="none" stroke-opacity="0.505882352941176" />
  </g>
</svg>