<?xml version="1.0" encoding="utf-8"?>
<svg version="1.1" xmlns:xlink="http://www.w3.org/1999/xlink" width="7px" height="8px" xmlns="http://www.w3.org/2000/svg">
  <g transform="matrix(1 0 0 1 -1177 -3322 )">
    <path d="M 6.83501683501683 5.97979797979798  C 6.94500561167228 6.10549943883277  7 6.25813692480359  7 6.43771043771044  C 7 6.61728395061728  6.94500561167228 6.7699214365881  6.83501683501683 6.8956228956229  L 6.03367003367003 7.81144781144781  C 5.92368125701459 7.9371492704826  5.79012345679012 8  5.63299663299663 8  C 5.47586980920314 8  5.34231200897868 7.9371492704826  5.23232323232323 7.81144781144781  L 3.5 5.83164983164983  L 1.76767676767677 7.81144781144781  C 1.65768799102132 7.9371492704826  1.52413019079686 8  1.36700336700337 8  C 1.20987654320988 8  1.07631874298541 7.9371492704826  0.966329966329966 7.81144781144781  L 0.164983164983165 6.8956228956229  C 0.0549943883277217 6.7699214365881  0 6.61728395061728  0 6.43771043771044  C 0 6.25813692480359  0.0549943883277217 6.10549943883277  0.164983164983165 5.97979797979798  L 1.8973063973064 4  L 0.164983164983165 2.02020202020202  C 0.0549943883277217 1.89450056116723  0 1.74186307519641  0 1.56228956228956  C 0 1.38271604938272  0.0549943883277217 1.2300785634119  0.164983164983165 1.1043771043771  L 0.966329966329966 0.188552188552189  C 1.07631874298541 0.0628507295173959  1.20987654320988 0  1.36700336700337 0  C 1.52413019079686 0  1.65768799102132 0.0628507295173959  1.76767676767677 0.188552188552189  L 3.5 2.16835016835017  L 5.23232323232323 0.188552188552189  C 5.34231200897868 0.0628507295173959  5.47586980920314 0  5.63299663299663 0  C 5.79012345679012 0  5.92368125701459 0.0628507295173959  6.03367003367003 0.188552188552189  L 6.83501683501683 1.1043771043771  C 6.94500561167228 1.2300785634119  7 1.38271604938272  7 1.56228956228956  C 7 1.74186307519641  6.94500561167228 1.89450056116723  6.83501683501683 2.02020202020202  L 5.1026936026936 4  L 6.83501683501683 5.97979797979798  Z " fill-rule="nonzero" fill="#ff0000" stroke="none" transform="matrix(1 0 0 1 1177 3322 )" />
  </g>
</svg>