<?xml version="1.0" encoding="utf-8"?>
<svg version="1.1" xmlns:xlink="http://www.w3.org/1999/xlink" width="1349px" height="144px" xmlns="http://www.w3.org/2000/svg">
  <g transform="matrix(1 0 0 1 -106 -908 )">
    <path d="M 107 913  A 4 4 0 0 1 111 909 L 1450 909  A 4 4 0 0 1 1454 913 L 1454 1047  A 4 4 0 0 1 1450 1051 L 111 1051  A 4 4 0 0 1 107 1047 L 107 913  Z " fill-rule="nonzero" fill="#ffffff" stroke="none" />
    <path d="M 106.5 913  A 4.5 4.5 0 0 1 111 908.5 L 1450 908.5  A 4.5 4.5 0 0 1 1454.5 913 L 1454.5 1047  A 4.5 4.5 0 0 1 1450 1051.5 L 111 1051.5  A 4.5 4.5 0 0 1 106.5 1047 L 106.5 913  Z " stroke-width="1" stroke="#d7d7d7" fill="none" stroke-opacity="0.349019607843137" />
  </g>
</svg>