<?xml version="1.0" encoding="utf-8"?>
<svg version="1.1" xmlns:xlink="http://www.w3.org/1999/xlink" width="12px" height="12px" viewBox="673 650  12 12" xmlns="http://www.w3.org/2000/svg">
  <path d="M 673.5 653  A 2.5 2.5 0 0 1 676 650.5 L 682 650.5  A 2.5 2.5 0 0 1 684.5 653 L 684.5 659  A 2.5 2.5 0 0 1 682 661.5 L 676 661.5  A 2.5 2.5 0 0 1 673.5 659 L 673.5 653  Z " fill-rule="nonzero" fill="#f0f0f0" stroke="none" />
  <path d="M 673.5 653  A 2.5 2.5 0 0 1 676 650.5 L 682 650.5  A 2.5 2.5 0 0 1 684.5 653 L 684.5 659  A 2.5 2.5 0 0 1 682 661.5 L 676 661.5  A 2.5 2.5 0 0 1 673.5 659 L 673.5 653  Z " stroke-width="1" stroke="#797979" fill="none" />
</svg>