<?xml version="1.0" encoding="utf-8"?>
<svg version="1.1" xmlns:xlink="http://www.w3.org/1999/xlink" width="1349px" height="184px" viewBox="106 2728  1349 184" xmlns="http://www.w3.org/2000/svg">
  <path d="M 107 2733  A 4 4 0 0 1 111 2729 L 1450 2729  A 4 4 0 0 1 1454 2733 L 1454 2907  A 4 4 0 0 1 1450 2911 L 111 2911  A 4 4 0 0 1 107 2907 L 107 2733  Z " fill-rule="nonzero" fill="#f0f0f0" stroke="none" />
  <path d="M 106.5 2733  A 4.5 4.5 0 0 1 111 2728.5 L 1450 2728.5  A 4.5 4.5 0 0 1 1454.5 2733 L 1454.5 2907  A 4.5 4.5 0 0 1 1450 2911.5 L 111 2911.5  A 4.5 4.5 0 0 1 106.5 2907 L 106.5 2733  Z " stroke-width="1" stroke="#d7d7d7" fill="none" stroke-opacity="0.505882352941176" />
</svg>