<?xml version="1.0" encoding="utf-8"?>
<svg version="1.1" xmlns:xlink="http://www.w3.org/1999/xlink" width="1349px" height="490px" xmlns="http://www.w3.org/2000/svg">
  <g transform="matrix(1 0 0 1 -106 -225 )">
    <path d="M 107 230  A 4 4 0 0 1 111 226 L 1450 226  A 4 4 0 0 1 1454 230 L 1454 710  A 4 4 0 0 1 1450 714 L 111 714  A 4 4 0 0 1 107 710 L 107 230  Z " fill-rule="nonzero" fill="#ffffff" stroke="none" />
    <path d="M 106.5 230  A 4.5 4.5 0 0 1 111 225.5 L 1450 225.5  A 4.5 4.5 0 0 1 1454.5 230 L 1454.5 710  A 4.5 4.5 0 0 1 1450 714.5 L 111 714.5  A 4.5 4.5 0 0 1 106.5 710 L 106.5 230  Z " stroke-width="1" stroke="#d7d7d7" fill="none" stroke-opacity="0.349019607843137" />
  </g>
</svg>