<?xml version="1.0" encoding="utf-8"?>
<svg version="1.1" xmlns:xlink="http://www.w3.org/1999/xlink" width="1349px" height="321px" xmlns="http://www.w3.org/2000/svg">
  <g transform="matrix(1 0 0 1 -106 -1143 )">
    <path d="M 107 1148  A 4 4 0 0 1 111 1144 L 1454 1144  L 1454 1459  A 4 4 0 0 1 1450 1463 L 111 1463  A 4 4 0 0 1 107 1459 L 107 1148  Z " fill-rule="nonzero" fill="#ffffff" stroke="none" />
    <path d="M 106.5 1148  A 4.5 4.5 0 0 1 111 1143.5 L 1454.5 1143.5  L 1454.5 1459  A 4.5 4.5 0 0 1 1450 1463.5 L 111 1463.5  A 4.5 4.5 0 0 1 106.5 1459 L 106.5 1148  Z " stroke-width="1" stroke="#d7d7d7" fill="none" stroke-opacity="0.505882352941176" />
  </g>
</svg>