<?xml version="1.0" encoding="utf-8"?>
<svg version="1.1" xmlns:xlink="http://www.w3.org/1999/xlink" width="1349px" height="40px" viewBox="106 775  1349 40" xmlns="http://www.w3.org/2000/svg">
  <path d="M 107 780  A 4 4 0 0 1 111 776 L 1454 776  L 1454 810  A 4 4 0 0 1 1450 814 L 111 814  A 4 4 0 0 1 107 810 L 107 780  Z " fill-rule="nonzero" fill="#f0f0f0" stroke="none" />
  <path d="M 106.5 780  A 4.5 4.5 0 0 1 111 775.5 L 1454.5 775.5  L 1454.5 810  A 4.5 4.5 0 0 1 1450 814.5 L 111 814.5  A 4.5 4.5 0 0 1 106.5 810 L 106.5 780  Z " stroke-width="1" stroke="#d7d7d7" fill="none" stroke-opacity="0.498039215686275" />
</svg>