<?xml version="1.0" encoding="utf-8"?>
<svg version="1.1" xmlns:xlink="http://www.w3.org/1999/xlink" width="12px" height="12px" viewBox="673 650  12 12" xmlns="http://www.w3.org/2000/svg">
  <path d="M 673.5 653  A 2.5 2.5 0 0 1 676 650.5 L 682 650.5  A 2.5 2.5 0 0 1 684.5 653 L 684.5 659  A 2.5 2.5 0 0 1 682 661.5 L 676 661.5  A 2.5 2.5 0 0 1 673.5 659 L 673.5 653  Z " fill-rule="nonzero" fill="#ffffff" stroke="none" />
  <path d="M 673.5 653  A 2.5 2.5 0 0 1 676 650.5 L 682 650.5  A 2.5 2.5 0 0 1 684.5 653 L 684.5 659  A 2.5 2.5 0 0 1 682 661.5 L 676 661.5  A 2.5 2.5 0 0 1 673.5 659 L 673.5 653  Z " stroke-width="1" stroke="#f60068" fill="none" />
  <path d="M 675.571428571429 656  L 678.142857142857 658.571428571429  " stroke-width="2.57142857142857" stroke="#f60068" fill="none" />
  <path d="M 678.142857142857 658.571428571429  L 682.428571428571 652.571428571429  " stroke-width="2.57142857142857" stroke="#f60068" fill="none" />
</svg>