<?xml version="1.0" encoding="utf-8"?>
<svg version="1.1" xmlns:xlink="http://www.w3.org/1999/xlink" width="32px" height="25px" xmlns="http://www.w3.org/2000/svg">
  <g transform="matrix(1 0 0 1 -122 -2932 )">
    <path d="M 123 2937  A 4 4 0 0 1 127 2933 L 149 2933  A 4 4 0 0 1 153 2937 L 153 2952  A 4 4 0 0 1 149 2956 L 127 2956  A 4 4 0 0 1 123 2952 L 123 2937  Z " fill-rule="nonzero" fill="#ec808d" stroke="none" />
    <path d="M 122.5 2937  A 4.5 4.5 0 0 1 127 2932.5 L 149 2932.5  A 4.5 4.5 0 0 1 153.5 2937 L 153.5 2952  A 4.5 4.5 0 0 1 149 2956.5 L 127 2956.5  A 4.5 4.5 0 0 1 122.5 2952 L 122.5 2937  Z " stroke-width="1" stroke="#797979" fill="none" stroke-opacity="0.172549019607843" />
  </g>
</svg>