<?xml version="1.0" encoding="utf-8"?>
<svg version="1.1" xmlns:xlink="http://www.w3.org/1999/xlink" width="1349px" height="70px" viewBox="106 2578  1349 70" xmlns="http://www.w3.org/2000/svg">
  <path d="M 107 2583  A 4 4 0 0 1 111 2579 L 1450 2579  A 4 4 0 0 1 1454 2583 L 1454 2643  A 4 4 0 0 1 1450 2647 L 111 2647  A 4 4 0 0 1 107 2643 L 107 2583  Z " fill-rule="nonzero" fill="#ffffff" stroke="none" fill-opacity="0.996078431372549" />
  <path d="M 106.5 2583  A 4.5 4.5 0 0 1 111 2578.5 L 1450 2578.5  A 4.5 4.5 0 0 1 1454.5 2583 L 1454.5 2643  A 4.5 4.5 0 0 1 1450 2647.5 L 111 2647.5  A 4.5 4.5 0 0 1 106.5 2643 L 106.5 2583  Z " stroke-width="1" stroke="#d7d7d7" fill="none" stroke-opacity="0.505882352941176" />
</svg>