<?xml version="1.0" encoding="utf-8"?>
<svg version="1.1" xmlns:xlink="http://www.w3.org/1999/xlink" width="12px" height="12px" viewBox="1122 974  12 12" xmlns="http://www.w3.org/2000/svg">
  <path d="M 1122.5 977  A 2.5 2.5 0 0 1 1125 974.5 L 1131 974.5  A 2.5 2.5 0 0 1 1133.5 977 L 1133.5 983  A 2.5 2.5 0 0 1 1131 985.5 L 1125 985.5  A 2.5 2.5 0 0 1 1122.5 983 L 1122.5 977  Z " fill-rule="nonzero" fill="#ffffff" stroke="none" />
  <path d="M 1122.5 977  A 2.5 2.5 0 0 1 1125 974.5 L 1131 974.5  A 2.5 2.5 0 0 1 1133.5 977 L 1133.5 983  A 2.5 2.5 0 0 1 1131 985.5 L 1125 985.5  A 2.5 2.5 0 0 1 1122.5 983 L 1122.5 977  Z " stroke-width="1" stroke="#f60068" fill="none" />
  <path d="M 1124.57142857143 980  L 1127.14285714286 982.571428571429  " stroke-width="2.57142857142857" stroke="#f60068" fill="none" />
  <path d="M 1127.14285714286 982.571428571429  L 1131.42857142857 976.571428571429  " stroke-width="2.57142857142857" stroke="#f60068" fill="none" />
</svg>