<?xml version="1.0" encoding="utf-8"?>
<svg version="1.1" xmlns:xlink="http://www.w3.org/1999/xlink" width="12px" height="12px" viewBox="996 650  12 12" xmlns="http://www.w3.org/2000/svg">
  <path d="M 996.5 653  A 2.5 2.5 0 0 1 999 650.5 L 1005 650.5  A 2.5 2.5 0 0 1 1007.5 653 L 1007.5 659  A 2.5 2.5 0 0 1 1005 661.5 L 999 661.5  A 2.5 2.5 0 0 1 996.5 659 L 996.5 653  Z " fill-rule="nonzero" fill="#f0f0f0" stroke="none" />
  <path d="M 996.5 653  A 2.5 2.5 0 0 1 999 650.5 L 1005 650.5  A 2.5 2.5 0 0 1 1007.5 653 L 1007.5 659  A 2.5 2.5 0 0 1 1005 661.5 L 999 661.5  A 2.5 2.5 0 0 1 996.5 659 L 996.5 653  Z " stroke-width="1" stroke="#797979" fill="none" />
  <path d="M 998.571428571429 656  L 1001.14285714286 658.571428571429  " stroke-width="2.57142857142857" stroke="#797979" fill="none" />
  <path d="M 1001.14285714286 658.571428571429  L 1005.42857142857 652.571428571429  " stroke-width="2.57142857142857" stroke="#797979" fill="none" />
</svg>