<?xml version="1.0" encoding="utf-8"?>
<svg version="1.1" xmlns:xlink="http://www.w3.org/1999/xlink" width="1349px" height="88px" viewBox="106 2992  1349 88" xmlns="http://www.w3.org/2000/svg">
  <path d="M 107 2997  A 4 4 0 0 1 111 2993 L 1454 2993  L 1454 3075  A 4 4 0 0 1 1450 3079 L 111 3079  A 4 4 0 0 1 107 3075 L 107 2997  Z " fill-rule="nonzero" fill="#ffffff" stroke="none" />
  <path d="M 106.5 2997  A 4.5 4.5 0 0 1 111 2992.5 L 1454.5 2992.5  L 1454.5 3075  A 4.5 4.5 0 0 1 1450 3079.5 L 111 3079.5  A 4.5 4.5 0 0 1 106.5 3075 L 106.5 2997  Z " stroke-width="1" stroke="#d7d7d7" fill="none" stroke-opacity="0.498039215686275" />
</svg>