<?xml version="1.0" encoding="utf-8"?>
<svg version="1.1" xmlns:xlink="http://www.w3.org/1999/xlink" width="32px" height="25px" xmlns="http://www.w3.org/2000/svg">
  <g transform="matrix(1 0 0 1 -226 -2932 )">
    <path d="M 227 2937  A 4 4 0 0 1 231 2933 L 253 2933  A 4 4 0 0 1 257 2937 L 257 2952  A 4 4 0 0 1 253 2956 L 231 2956  A 4 4 0 0 1 227 2952 L 227 2937  Z " fill-rule="nonzero" fill="#ffffff" stroke="none" />
    <path d="M 226.5 2937  A 4.5 4.5 0 0 1 231 2932.5 L 253 2932.5  A 4.5 4.5 0 0 1 257.5 2937 L 257.5 2952  A 4.5 4.5 0 0 1 253 2956.5 L 231 2956.5  A 4.5 4.5 0 0 1 226.5 2952 L 226.5 2937  Z " stroke-width="1" stroke="#797979" fill="none" stroke-opacity="0.172549019607843" />
  </g>
</svg>