<?xml version="1.0" encoding="utf-8"?>
<svg version="1.1" xmlns:xlink="http://www.w3.org/1999/xlink" width="1349px" height="203px" xmlns="http://www.w3.org/2000/svg">
  <g transform="matrix(1 0 0 1 -106 -3160 )">
    <path d="M 107 3165  A 4 4 0 0 1 111 3161 L 1450 3161  A 4 4 0 0 1 1454 3165 L 1454 3358  A 4 4 0 0 1 1450 3362 L 111 3362  A 4 4 0 0 1 107 3358 L 107 3165  Z " fill-rule="nonzero" fill="#ffffff" stroke="none" />
    <path d="M 106.5 3165  A 4.5 4.5 0 0 1 111 3160.5 L 1450 3160.5  A 4.5 4.5 0 0 1 1454.5 3165 L 1454.5 3358  A 4.5 4.5 0 0 1 1450 3362.5 L 111 3362.5  A 4.5 4.5 0 0 1 106.5 3358 L 106.5 3165  Z " stroke-width="1" stroke="#d7d7d7" fill="none" stroke-opacity="0.498039215686275" />
  </g>
</svg>