<?xml version="1.0" encoding="utf-8"?>
<svg version="1.1" xmlns:xlink="http://www.w3.org/1999/xlink" width="17px" height="17px" viewBox="1200 1722  17 17" xmlns="http://www.w3.org/2000/svg">
  <path d="M 1208.5 1722  C 1213.26 1722  1217 1725.74  1217 1730.5  C 1217 1735.26  1213.26 1739  1208.5 1739  C 1203.74 1739  1200 1735.26  1200 1730.5  C 1200 1725.74  1203.74 1722  1208.5 1722  Z " fill-rule="nonzero" fill="#f0f0f0" stroke="none" />
  <path d="M 1208.5 1722.5  C 1212.98 1722.5  1216.5 1726.02  1216.5 1730.5  C 1216.5 1734.98  1212.98 1738.5  1208.5 1738.5  C 1204.02 1738.5  1200.5 1734.98  1200.5 1730.5  C 1200.5 1726.02  1204.02 1722.5  1208.5 1722.5  Z " stroke-width="1" stroke="#797979" fill="none" />
  <path d="M 1208.5 1734.75  C 1206.12 1734.75  1204.25 1732.88  1204.25 1730.5  C 1204.25 1728.12  1206.12 1726.25  1208.5 1726.25  C 1210.88 1726.25  1212.75 1728.12  1212.75 1730.5  C 1212.75 1732.88  1210.88 1734.75  1208.5 1734.75  " fill-rule="nonzero" fill="#797979" stroke="none" />
</svg>