<?xml version="1.0" encoding="utf-8"?>
<svg version="1.1" xmlns:xlink="http://www.w3.org/1999/xlink" width="17px" height="17px" viewBox="1200 1723  17 17" xmlns="http://www.w3.org/2000/svg">
  <path d="M 1208.5 1723  C 1213.26 1723  1217 1726.74  1217 1731.5  C 1217 1736.26  1213.26 1740  1208.5 1740  C 1203.74 1740  1200 1736.26  1200 1731.5  C 1200 1726.74  1203.74 1723  1208.5 1723  Z " fill-rule="nonzero" fill="#f0f0f0" stroke="none" />
  <path d="M 1208.5 1723.5  C 1212.98 1723.5  1216.5 1727.02  1216.5 1731.5  C 1216.5 1735.98  1212.98 1739.5  1208.5 1739.5  C 1204.02 1739.5  1200.5 1735.98  1200.5 1731.5  C 1200.5 1727.02  1204.02 1723.5  1208.5 1723.5  Z " stroke-width="1" stroke="#797979" fill="none" />
  <path d="M 1208.5 1735.75  C 1206.12 1735.75  1204.25 1733.88  1204.25 1731.5  C 1204.25 1729.12  1206.12 1727.25  1208.5 1727.25  C 1210.88 1727.25  1212.75 1729.12  1212.75 1731.5  C 1212.75 1733.88  1210.88 1735.75  1208.5 1735.75  " fill-rule="nonzero" fill="#797979" stroke="none" />
</svg>