<?xml version="1.0" encoding="utf-8"?>
<svg version="1.1" xmlns:xlink="http://www.w3.org/1999/xlink" width="17px" height="17px" viewBox="1148 202  17 17" xmlns="http://www.w3.org/2000/svg">
  <path d="M 1156.5 202.5  C 1160.98 202.5  1164.5 206.02  1164.5 210.5  C 1164.5 214.98  1160.98 218.5  1156.5 218.5  C 1152.02 218.5  1148.5 214.98  1148.5 210.5  C 1148.5 206.02  1152.02 202.5  1156.5 202.5  Z " fill-rule="nonzero" fill="#f0f0f0" stroke="none" />
  <path d="M 1156.5 202.5  C 1160.98 202.5  1164.5 206.02  1164.5 210.5  C 1164.5 214.98  1160.98 218.5  1156.5 218.5  C 1152.02 218.5  1148.5 214.98  1148.5 210.5  C 1148.5 206.02  1152.02 202.5  1156.5 202.5  Z " stroke-width="1" stroke="#797979" fill="none" stroke-opacity="0.996078431372549" />
  <path d="M 1156.5 214.75  C 1154.12 214.75  1152.25 212.88  1152.25 210.5  C 1152.25 208.12  1154.12 206.25  1156.5 206.25  C 1158.88 206.25  1160.75 208.12  1160.75 210.5  C 1160.75 212.88  1158.88 214.75  1156.5 214.75  " fill-rule="nonzero" fill="#797979" stroke="none" fill-opacity="0.996078431372549" />
</svg>