<?xml version="1.0" encoding="utf-8"?>
<svg version="1.1" xmlns:xlink="http://www.w3.org/1999/xlink" width="17px" height="17px" viewBox="1191 975  17 17" xmlns="http://www.w3.org/2000/svg">
  <path d="M 1199.5 975  C 1204.26 975  1208 978.74  1208 983.5  C 1208 988.26  1204.26 992  1199.5 992  C 1194.74 992  1191 988.26  1191 983.5  C 1191 978.74  1194.74 975  1199.5 975  Z " fill-rule="nonzero" fill="#ffffff" stroke="none" />
  <path d="M 1199.5 975.5  C 1203.98 975.5  1207.5 979.02  1207.5 983.5  C 1207.5 987.98  1203.98 991.5  1199.5 991.5  C 1195.02 991.5  1191.5 987.98  1191.5 983.5  C 1191.5 979.02  1195.02 975.5  1199.5 975.5  Z " stroke-width="1" stroke="#f60068" fill="none" />
  <path d="M 1199.5 987.75  C 1197.12 987.75  1195.25 985.88  1195.25 983.5  C 1195.25 981.12  1197.12 979.25  1199.5 979.25  C 1201.88 979.25  1203.75 981.12  1203.75 983.5  C 1203.75 985.88  1201.88 987.75  1199.5 987.75  " fill-rule="nonzero" fill="#f60068" stroke="none" />
</svg>