<?xml version="1.0" encoding="utf-8"?>
<svg version="1.1" xmlns:xlink="http://www.w3.org/1999/xlink" width="17px" height="17px" viewBox="780 202  17 17" xmlns="http://www.w3.org/2000/svg">
  <path d="M 788.5 202  C 793.26 202  797 205.74  797 210.5  C 797 215.26  793.26 219  788.5 219  C 783.74 219  780 215.26  780 210.5  C 780 205.74  783.74 202  788.5 202  Z " fill-rule="nonzero" fill="#ffffff" stroke="none" />
  <path d="M 788.5 202.5  C 792.98 202.5  796.5 206.02  796.5 210.5  C 796.5 214.98  792.98 218.5  788.5 218.5  C 784.02 218.5  780.5 214.98  780.5 210.5  C 780.5 206.02  784.02 202.5  788.5 202.5  Z " stroke-width="1" stroke="#f60068" fill="none" />
  <path d="M 788.5 214.75  C 786.12 214.75  784.25 212.88  784.25 210.5  C 784.25 208.12  786.12 206.25  788.5 206.25  C 790.88 206.25  792.75 208.12  792.75 210.5  C 792.75 212.88  790.88 214.75  788.5 214.75  " fill-rule="nonzero" fill="#f60068" stroke="none" />
</svg>