<?xml version="1.0" encoding="utf-8"?>
<svg version="1.1" xmlns:xlink="http://www.w3.org/1999/xlink" width="17px" height="17px" viewBox="1191 1001  17 17" xmlns="http://www.w3.org/2000/svg">
  <path d="M 1199.5 1001  C 1204.26 1001  1208 1004.74  1208 1009.5  C 1208 1014.26  1204.26 1018  1199.5 1018  C 1194.74 1018  1191 1014.26  1191 1009.5  C 1191 1004.74  1194.74 1001  1199.5 1001  Z " fill-rule="nonzero" fill="#ffffff" stroke="none" />
  <path d="M 1199.5 1001.5  C 1203.98 1001.5  1207.5 1005.02  1207.5 1009.5  C 1207.5 1013.98  1203.98 1017.5  1199.5 1017.5  C 1195.02 1017.5  1191.5 1013.98  1191.5 1009.5  C 1191.5 1005.02  1195.02 1001.5  1199.5 1001.5  Z " stroke-width="1" stroke="#f60068" fill="none" />
  <path d="M 1199.5 1013.75  C 1197.12 1013.75  1195.25 1011.88  1195.25 1009.5  C 1195.25 1007.12  1197.12 1005.25  1199.5 1005.25  C 1201.88 1005.25  1203.75 1007.12  1203.75 1009.5  C 1203.75 1011.88  1201.88 1013.75  1199.5 1013.75  " fill-rule="nonzero" fill="#f60068" stroke="none" />
</svg>