<?xml version="1.0" encoding="utf-8"?>
<svg version="1.1" xmlns:xlink="http://www.w3.org/1999/xlink" width="17px" height="17px" viewBox="1191 1000  17 17" xmlns="http://www.w3.org/2000/svg">
  <path d="M 1199.5 1000  C 1204.26 1000  1208 1003.74  1208 1008.5  C 1208 1013.26  1204.26 1017  1199.5 1017  C 1194.74 1017  1191 1013.26  1191 1008.5  C 1191 1003.74  1194.74 1000  1199.5 1000  Z " fill-rule="nonzero" fill="#ffffff" stroke="none" />
  <path d="M 1199.5 1000.5  C 1203.98 1000.5  1207.5 1004.02  1207.5 1008.5  C 1207.5 1012.98  1203.98 1016.5  1199.5 1016.5  C 1195.02 1016.5  1191.5 1012.98  1191.5 1008.5  C 1191.5 1004.02  1195.02 1000.5  1199.5 1000.5  Z " stroke-width="1" stroke="#f60068" fill="none" />
  <path d="M 1199.5 1012.75  C 1197.12 1012.75  1195.25 1010.88  1195.25 1008.5  C 1195.25 1006.12  1197.12 1004.25  1199.5 1004.25  C 1201.88 1004.25  1203.75 1006.12  1203.75 1008.5  C 1203.75 1010.88  1201.88 1012.75  1199.5 1012.75  " fill-rule="nonzero" fill="#f60068" stroke="none" />
</svg>