<?xml version="1.0" encoding="utf-8"?>
<svg version="1.1" xmlns:xlink="http://www.w3.org/1999/xlink" width="12px" height="12px" viewBox="1016 770  12 12" xmlns="http://www.w3.org/2000/svg">
  <path d="M 1016.5 773  A 2.5 2.5 0 0 1 1019 770.5 L 1025 770.5  A 2.5 2.5 0 0 1 1027.5 773 L 1027.5 779  A 2.5 2.5 0 0 1 1025 781.5 L 1019 781.5  A 2.5 2.5 0 0 1 1016.5 779 L 1016.5 773  Z " fill-rule="nonzero" fill="#ffffff" stroke="none" />
  <path d="M 1016.5 773  A 2.5 2.5 0 0 1 1019 770.5 L 1025 770.5  A 2.5 2.5 0 0 1 1027.5 773 L 1027.5 779  A 2.5 2.5 0 0 1 1025 781.5 L 1019 781.5  A 2.5 2.5 0 0 1 1016.5 779 L 1016.5 773  Z " stroke-width="1" stroke="#f60068" fill="none" />
  <path d="M 1018.57142857143 776  L 1021.14285714286 778.571428571429  " stroke-width="2.57142857142857" stroke="#f60068" fill="none" />
  <path d="M 1021.14285714286 778.571428571429  L 1025.42857142857 772.571428571429  " stroke-width="2.57142857142857" stroke="#f60068" fill="none" />
</svg>