<?xml version="1.0" encoding="utf-8"?>
<svg version="1.1" xmlns:xlink="http://www.w3.org/1999/xlink" width="12px" height="12px" viewBox="890 446  12 12" xmlns="http://www.w3.org/2000/svg">
  <path d="M 890.5 449  A 2.5 2.5 0 0 1 893 446.5 L 899 446.5  A 2.5 2.5 0 0 1 901.5 449 L 901.5 455  A 2.5 2.5 0 0 1 899 457.5 L 893 457.5  A 2.5 2.5 0 0 1 890.5 455 L 890.5 449  Z " fill-rule="nonzero" fill="#ffffff" stroke="none" />
  <path d="M 890.5 449  A 2.5 2.5 0 0 1 893 446.5 L 899 446.5  A 2.5 2.5 0 0 1 901.5 449 L 901.5 455  A 2.5 2.5 0 0 1 899 457.5 L 893 457.5  A 2.5 2.5 0 0 1 890.5 455 L 890.5 449  Z " stroke-width="1" stroke="#f60068" fill="none" />
  <path d="M 892.571428571429 452  L 895.142857142857 454.571428571429  " stroke-width="2.57142857142857" stroke="#f60068" fill="none" />
  <path d="M 895.142857142857 454.571428571429  L 899.428571428571 448.571428571429  " stroke-width="2.57142857142857" stroke="#f60068" fill="none" />
</svg>