<?xml version="1.0" encoding="utf-8"?>
<svg version="1.1" xmlns:xlink="http://www.w3.org/1999/xlink" width="61px" height="54px" xmlns="http://www.w3.org/2000/svg">
  <g transform="matrix(1 0 0 1 -11 111 )">
    <path d="M 18.6540178571429 2.13950892857143  C 22.421130952381 0.713169642857143  26.3697916666667 0  30.5 0  C 34.6302083333333 0  38.5788690476191 0.713169642857143  42.3459821428571 2.13950892857143  C 46.1130952380952 3.56584821428571  49.3582589285714 5.484375  52.0814732142857 7.89508928571428  C 54.8046875 10.3058035714286  56.971912202381 13.1785714285714  58.5831473214286 16.5133928571429  C 60.1943824404762 19.8482142857143  61 23.34375  61 27  C 61 30.6361607142857  60.2000558035714 34.1216517857143  58.6001674107143 37.4564732142857  C 57.0002790178571 40.7912946428571  54.8387276785714 43.6640625  52.1155133928571 46.0747767857143  C 49.3922991071429 48.4854910714286  46.1471354166667 50.4090401785714  42.3800223214286 51.8454241071429  C 38.6129092261905 53.2818080357143  34.6529017857143 54  30.5 54  C 26.3470982142857 54  22.3870907738095 53.2868303571429  18.6199776785714 51.8604910714286  C 14.8528645833333 50.4341517857143  11.6133742559524 48.5106026785714  8.90150669642857 46.08984375  C 6.18963913690476 43.6690848214286  4.02808779761905 40.7963169642857  2.41685267857143 37.4715401785714  C 0.805617559523809 34.1467633928571  0 30.65625  0 27  C 0 23.34375  0.805617559523809 19.8482142857143  2.41685267857143 16.5133928571429  C 4.02808779761905 13.1785714285714  6.1953125 10.3058035714286  8.91852678571429 7.89508928571428  C 11.6417410714286 5.484375  14.8869047619048 3.56584821428571  18.6540178571429 2.13950892857143  Z M 41.1545758928571 30.8571428571429  C 46.6010044642857 30.8571428571429  50.0731026785714 34.1417410714286  51.5708705357143 40.7109375  C 54.9521949404762 36.5926339285714  56.6428571428571 32.0223214285714  56.6428571428571 27  C 56.6428571428571 23.8660714285714  55.9507068452381 20.8727678571429  54.56640625 18.0200892857143  C 53.1821056547619 15.1674107142857  51.3212425595238 12.7064732142857  48.9838169642857 10.6372767857143  C 46.6463913690476 8.56808035714286  43.866443452381 6.92075892857143  40.6439732142857 5.6953125  C 37.4215029761905 4.46986607142857  34.0401785714286 3.85714285714286  30.5 3.85714285714286  C 26.9598214285714 3.85714285714286  23.5784970238095 4.46986607142857  20.3560267857143 5.6953125  C 17.1335565476191 6.92075892857143  14.3536086309524 8.56808035714286  12.0161830357143 10.6372767857143  C 9.67875744047619 12.7064732142857  7.8178943452381 15.1674107142857  6.43359375 18.0200892857143  C 5.04929315476191 20.8727678571429  4.35714285714286 23.8660714285714  4.35714285714286 27  C 4.35714285714286 32.0223214285714  6.04780505952381 36.5926339285714  9.42912946428571 40.7109375  C 10.9268973214286 34.1417410714286  14.3989955357143 30.8571428571429  19.8454241071429 30.8571428571429  C 22.8182663690476 33.4285714285714  26.3697916666667 34.7142857142857  30.5 34.7142857142857  C 34.6302083333333 34.7142857142857  38.1817336309524 33.4285714285714  41.1545758928571 30.8571428571429  Z M 39.7419084821429 29.3956473214286  C 42.294921875 27.1356026785714  43.5714285714286 24.4084821428571  43.5714285714286 21.2142857142857  C 43.5714285714286 18.0200892857143  42.294921875 15.29296875  39.7419084821429 13.0329241071429  C 37.1888950892857 10.7728794642857  34.1082589285714 9.64285714285714  30.5 9.64285714285714  C 26.8917410714286 9.64285714285714  23.8111049107143 10.7728794642857  21.2580915178571 13.0329241071429  C 18.705078125 15.29296875  17.4285714285714 18.0200892857143  17.4285714285714 21.2142857142857  C 17.4285714285714 24.4084821428571  18.705078125 27.1356026785714  21.2580915178571 29.3956473214286  C 23.8111049107143 31.6556919642857  26.8917410714286 32.7857142857143  30.5 32.7857142857143  C 34.1082589285714 32.7857142857143  37.1888950892857 31.6556919642857  39.7419084821429 29.3956473214286  Z " fill-rule="nonzero" fill="#503953" stroke="none" transform="matrix(1 0 0 1 11 -111 )" />
  </g>
</svg>