<?xml version="1.0" encoding="utf-8"?>
<svg version="1.1" xmlns:xlink="http://www.w3.org/1999/xlink" width="12px" height="12px" viewBox="1007 769  12 12" xmlns="http://www.w3.org/2000/svg">
  <path d="M 1007.5 772  A 2.5 2.5 0 0 1 1010 769.5 L 1016 769.5  A 2.5 2.5 0 0 1 1018.5 772 L 1018.5 778  A 2.5 2.5 0 0 1 1016 780.5 L 1010 780.5  A 2.5 2.5 0 0 1 1007.5 778 L 1007.5 772  Z " fill-rule="nonzero" fill="#f0f0f0" stroke="none" />
  <path d="M 1007.5 772  A 2.5 2.5 0 0 1 1010 769.5 L 1016 769.5  A 2.5 2.5 0 0 1 1018.5 772 L 1018.5 778  A 2.5 2.5 0 0 1 1016 780.5 L 1010 780.5  A 2.5 2.5 0 0 1 1007.5 778 L 1007.5 772  Z " stroke-width="1" stroke="#797979" fill="none" />
</svg>