<?xml version="1.0" encoding="utf-8"?>
<svg version="1.1" xmlns:xlink="http://www.w3.org/1999/xlink" width="1349px" height="619px" xmlns="http://www.w3.org/2000/svg">
  <g transform="matrix(1 0 0 1 -148 -983 )">
    <path d="M 149 988  A 4 4 0 0 1 153 984 L 1492 984  A 4 4 0 0 1 1496 988 L 1496 1597  A 4 4 0 0 1 1492 1601 L 153 1601  A 4 4 0 0 1 149 1597 L 149 988  Z " fill-rule="nonzero" fill="#ffffff" stroke="none" />
    <path d="M 148.5 988  A 4.5 4.5 0 0 1 153 983.5 L 1492 983.5  A 4.5 4.5 0 0 1 1496.5 988 L 1496.5 1597  A 4.5 4.5 0 0 1 1492 1601.5 L 153 1601.5  A 4.5 4.5 0 0 1 148.5 1597 L 148.5 988  Z " stroke-width="1" stroke="#d7d7d7" fill="none" stroke-opacity="0.349019607843137" />
  </g>
</svg>