<?xml version="1.0" encoding="utf-8"?>
<svg version="1.1" xmlns:xlink="http://www.w3.org/1999/xlink" width="1206px" height="70px" viewBox="198 1463  1206 70" xmlns="http://www.w3.org/2000/svg">
  <path d="M 199 1468  A 4 4 0 0 1 203 1464 L 1403 1464  L 1403 1528  A 4 4 0 0 1 1399 1532 L 203 1532  A 4 4 0 0 1 199 1528 L 199 1468  Z " fill-rule="nonzero" fill="#f0f0f0" stroke="none" />
  <path d="M 198.5 1468  A 4.5 4.5 0 0 1 203 1463.5 L 1403.5 1463.5  L 1403.5 1528  A 4.5 4.5 0 0 1 1399 1532.5 L 203 1532.5  A 4.5 4.5 0 0 1 198.5 1528 L 198.5 1468  Z " stroke-width="1" stroke="#d7d7d7" fill="none" stroke-opacity="0.498039215686275" />
</svg>