<?xml version="1.0" encoding="utf-8"?>
<svg version="1.1" xmlns:xlink="http://www.w3.org/1999/xlink" width="12px" height="12px" viewBox="281 1281  12 12" xmlns="http://www.w3.org/2000/svg">
  <path d="M 281.5 1284  A 2.5 2.5 0 0 1 284 1281.5 L 290 1281.5  A 2.5 2.5 0 0 1 292.5 1284 L 292.5 1290  A 2.5 2.5 0 0 1 290 1292.5 L 284 1292.5  A 2.5 2.5 0 0 1 281.5 1290 L 281.5 1284  Z " fill-rule="nonzero" fill="#f0f0f0" stroke="none" />
  <path d="M 281.5 1284  A 2.5 2.5 0 0 1 284 1281.5 L 290 1281.5  A 2.5 2.5 0 0 1 292.5 1284 L 292.5 1290  A 2.5 2.5 0 0 1 290 1292.5 L 284 1292.5  A 2.5 2.5 0 0 1 281.5 1290 L 281.5 1284  Z " stroke-width="1" stroke="#797979" fill="none" />
</svg>