<?xml version="1.0" encoding="utf-8"?>
<svg version="1.1" xmlns:xlink="http://www.w3.org/1999/xlink" width="12px" height="12px" viewBox="401 1281  12 12" xmlns="http://www.w3.org/2000/svg">
  <path d="M 401.5 1284  A 2.5 2.5 0 0 1 404 1281.5 L 410 1281.5  A 2.5 2.5 0 0 1 412.5 1284 L 412.5 1290  A 2.5 2.5 0 0 1 410 1292.5 L 404 1292.5  A 2.5 2.5 0 0 1 401.5 1290 L 401.5 1284  Z " fill-rule="nonzero" fill="#ffffff" stroke="none" />
  <path d="M 401.5 1284  A 2.5 2.5 0 0 1 404 1281.5 L 410 1281.5  A 2.5 2.5 0 0 1 412.5 1284 L 412.5 1290  A 2.5 2.5 0 0 1 410 1292.5 L 404 1292.5  A 2.5 2.5 0 0 1 401.5 1290 L 401.5 1284  Z " stroke-width="1" stroke="#797979" fill="none" />
</svg>