<?xml version="1.0" encoding="utf-8"?>
<svg version="1.1" xmlns:xlink="http://www.w3.org/1999/xlink" width="726px" height="40px" viewBox="198 1343  726 40" xmlns="http://www.w3.org/2000/svg">
  <path d="M 199 1348  A 4 4 0 0 1 203 1344 L 923 1344  L 923 1378  A 4 4 0 0 1 919 1382 L 203 1382  A 4 4 0 0 1 199 1378 L 199 1348  Z " fill-rule="nonzero" fill="#f0f0f0" stroke="none" />
  <path d="M 198.5 1348  A 4.5 4.5 0 0 1 203 1343.5 L 923.5 1343.5  L 923.5 1378  A 4.5 4.5 0 0 1 919 1382.5 L 203 1382.5  A 4.5 4.5 0 0 1 198.5 1378 L 198.5 1348  Z " stroke-width="1" stroke="#d7d7d7" fill="none" stroke-opacity="0.498039215686275" />
</svg>