<?xml version="1.0" encoding="utf-8"?>
<svg version="1.1" xmlns:xlink="http://www.w3.org/1999/xlink" width="1137px" height="2762px" xmlns="http://www.w3.org/2000/svg">
  <g transform="matrix(1 0 0 1 -102 -231 )">
    <path d="M 103 234  A 2 2 0 0 1 105 232 L 1236 232  A 2 2 0 0 1 1238 234 L 1238 2990  A 2 2 0 0 1 1236 2992 L 105 2992  A 2 2 0 0 1 103 2990 L 103 234  Z " fill-rule="nonzero" fill="#ffffff" stroke="none" />
    <path d="M 102.5 234  A 2.5 2.5 0 0 1 105 231.5 L 1236 231.5  A 2.5 2.5 0 0 1 1238.5 234 L 1238.5 2990  A 2.5 2.5 0 0 1 1236 2992.5 L 105 2992.5  A 2.5 2.5 0 0 1 102.5 2990 L 102.5 234  Z " stroke-width="1" stroke="#ec3d52" fill="none" stroke-opacity="0.188235294117647" />
  </g>
</svg>