<?xml version="1.0" encoding="utf-8"?>
<svg version="1.1" xmlns:xlink="http://www.w3.org/1999/xlink" width="1137px" height="1243px" xmlns="http://www.w3.org/2000/svg">
  <g transform="matrix(1 0 0 1 -105 -234 )">
    <path d="M 106 237  A 2 2 0 0 1 108 235 L 1239 235  A 2 2 0 0 1 1241 237 L 1241 1474  A 2 2 0 0 1 1239 1476 L 108 1476  A 2 2 0 0 1 106 1474 L 106 237  Z " fill-rule="nonzero" fill="#ffffff" stroke="none" />
    <path d="M 105.5 237  A 2.5 2.5 0 0 1 108 234.5 L 1239 234.5  A 2.5 2.5 0 0 1 1241.5 237 L 1241.5 1474  A 2.5 2.5 0 0 1 1239 1476.5 L 108 1476.5  A 2.5 2.5 0 0 1 105.5 1474 L 105.5 237  Z " stroke-width="1" stroke="#ec3d52" fill="none" stroke-opacity="0.188235294117647" />
  </g>
</svg>