<?xml version="1.0" encoding="utf-8"?>
<svg version="1.1" xmlns:xlink="http://www.w3.org/1999/xlink" width="1210px" height="114px" viewBox="206 1174  1210 114" xmlns="http://www.w3.org/2000/svg">
  <path d="M 207 1179  A 4 4 0 0 1 211 1175 L 1415 1175  L 1415 1283  A 4 4 0 0 1 1411 1287 L 211 1287  A 4 4 0 0 1 207 1283 L 207 1179  Z " fill-rule="nonzero" fill="#ffffff" stroke="none" fill-opacity="0.996078431372549" />
  <path d="M 206.5 1179  A 4.5 4.5 0 0 1 211 1174.5 L 1415.5 1174.5  L 1415.5 1283  A 4.5 4.5 0 0 1 1411 1287.5 L 211 1287.5  A 4.5 4.5 0 0 1 206.5 1283 L 206.5 1179  Z " stroke-width="1" stroke="#d7d7d7" fill="none" stroke-opacity="0.498039215686275" />
</svg>