<?xml version="1.0" encoding="utf-8"?>
<svg version="1.1" xmlns:xlink="http://www.w3.org/1999/xlink" width="1198px" height="709px" xmlns="http://www.w3.org/2000/svg">
  <g transform="matrix(1 0 0 1 -105 -234 )">
    <path d="M 106 237  A 2 2 0 0 1 108 235 L 1300 235  A 2 2 0 0 1 1302 237 L 1302 940  A 2 2 0 0 1 1300 942 L 108 942  A 2 2 0 0 1 106 940 L 106 237  Z " fill-rule="nonzero" fill="#ffffff" stroke="none" />
    <path d="M 105.5 237  A 2.5 2.5 0 0 1 108 234.5 L 1300 234.5  A 2.5 2.5 0 0 1 1302.5 237 L 1302.5 940  A 2.5 2.5 0 0 1 1300 942.5 L 108 942.5  A 2.5 2.5 0 0 1 105.5 940 L 105.5 237  Z " stroke-width="1" stroke="#ec3d52" fill="none" stroke-opacity="0.188235294117647" />
  </g>
</svg>