<?xml version="1.0" encoding="utf-8"?>
<svg version="1.1" xmlns:xlink="http://www.w3.org/1999/xlink" width="17px" height="17px" viewBox="1191 974  17 17" xmlns="http://www.w3.org/2000/svg">
  <path d="M 1199.5 974.5  C 1203.98 974.5  1207.5 978.02  1207.5 982.5  C 1207.5 986.98  1203.98 990.5  1199.5 990.5  C 1195.02 990.5  1191.5 986.98  1191.5 982.5  C 1191.5 978.02  1195.02 974.5  1199.5 974.5  Z " fill-rule="nonzero" fill="#f0f0f0" stroke="none" />
  <path d="M 1199.5 974.5  C 1203.98 974.5  1207.5 978.02  1207.5 982.5  C 1207.5 986.98  1203.98 990.5  1199.5 990.5  C 1195.02 990.5  1191.5 986.98  1191.5 982.5  C 1191.5 978.02  1195.02 974.5  1199.5 974.5  Z " stroke-width="1" stroke="#797979" fill="none" stroke-opacity="0.996078431372549" />
  <path d="M 1199.5 986.75  C 1197.12 986.75  1195.25 984.88  1195.25 982.5  C 1195.25 980.12  1197.12 978.25  1199.5 978.25  C 1201.88 978.25  1203.75 980.12  1203.75 982.5  C 1203.75 984.88  1201.88 986.75  1199.5 986.75  " fill-rule="nonzero" fill="#797979" stroke="none" fill-opacity="0.996078431372549" />
</svg>