<?xml version="1.0" encoding="utf-8"?>
<svg version="1.1" xmlns:xlink="http://www.w3.org/1999/xlink" width="17px" height="17px" viewBox="1191 974  17 17" xmlns="http://www.w3.org/2000/svg">
  <path d="M 1199.5 974  C 1204.26 974  1208 977.74  1208 982.5  C 1208 987.26  1204.26 991  1199.5 991  C 1194.74 991  1191 987.26  1191 982.5  C 1191 977.74  1194.74 974  1199.5 974  Z " fill-rule="nonzero" fill="#ffffff" stroke="none" />
  <path d="M 1199.5 974.5  C 1203.98 974.5  1207.5 978.02  1207.5 982.5  C 1207.5 986.98  1203.98 990.5  1199.5 990.5  C 1195.02 990.5  1191.5 986.98  1191.5 982.5  C 1191.5 978.02  1195.02 974.5  1199.5 974.5  Z " stroke-width="1" stroke="#f60068" fill="none" />
  <path d="M 1199.5 986.75  C 1197.12 986.75  1195.25 984.88  1195.25 982.5  C 1195.25 980.12  1197.12 978.25  1199.5 978.25  C 1201.88 978.25  1203.75 980.12  1203.75 982.5  C 1203.75 984.88  1201.88 986.75  1199.5 986.75  " fill-rule="nonzero" fill="#f60068" stroke="none" />
</svg>