<?xml version="1.0" encoding="utf-8"?>
<svg version="1.1" xmlns:xlink="http://www.w3.org/1999/xlink" width="17px" height="17px" viewBox="964 202  17 17" xmlns="http://www.w3.org/2000/svg">
  <path d="M 972.5 202.5  C 976.98 202.5  980.5 206.02  980.5 210.5  C 980.5 214.98  976.98 218.5  972.5 218.5  C 968.02 218.5  964.5 214.98  964.5 210.5  C 964.5 206.02  968.02 202.5  972.5 202.5  Z " fill-rule="nonzero" fill="#f0f0f0" stroke="none" />
  <path d="M 972.5 202.5  C 976.98 202.5  980.5 206.02  980.5 210.5  C 980.5 214.98  976.98 218.5  972.5 218.5  C 968.02 218.5  964.5 214.98  964.5 210.5  C 964.5 206.02  968.02 202.5  972.5 202.5  Z " stroke-width="1" stroke="#797979" fill="none" stroke-opacity="0.996078431372549" />
  <path d="M 972.5 214.75  C 970.12 214.75  968.25 212.88  968.25 210.5  C 968.25 208.12  970.12 206.25  972.5 206.25  C 974.88 206.25  976.75 208.12  976.75 210.5  C 976.75 212.88  974.88 214.75  972.5 214.75  " fill-rule="nonzero" fill="#797979" stroke="none" fill-opacity="0.996078431372549" />
</svg>