<?xml version="1.0" encoding="utf-8"?>
<svg version="1.1" xmlns:xlink="http://www.w3.org/1999/xlink" width="12px" height="12px" viewBox="890 446  12 12" xmlns="http://www.w3.org/2000/svg">
  <path d="M 890.5 449  A 2.5 2.5 0 0 1 893 446.5 L 899 446.5  A 2.5 2.5 0 0 1 901.5 449 L 901.5 455  A 2.5 2.5 0 0 1 899 457.5 L 893 457.5  A 2.5 2.5 0 0 1 890.5 455 L 890.5 449  Z " fill-rule="nonzero" fill="#f0f0f0" stroke="none" />
  <path d="M 890.5 449  A 2.5 2.5 0 0 1 893 446.5 L 899 446.5  A 2.5 2.5 0 0 1 901.5 449 L 901.5 455  A 2.5 2.5 0 0 1 899 457.5 L 893 457.5  A 2.5 2.5 0 0 1 890.5 455 L 890.5 449  Z " stroke-width="1" stroke="#797979" fill="none" />
</svg>