<?xml version="1.0" encoding="utf-8"?>
<svg version="1.1" xmlns:xlink="http://www.w3.org/1999/xlink" width="12px" height="12px" viewBox="567 446  12 12" xmlns="http://www.w3.org/2000/svg">
  <path d="M 567.5 449  A 2.5 2.5 0 0 1 570 446.5 L 576 446.5  A 2.5 2.5 0 0 1 578.5 449 L 578.5 455  A 2.5 2.5 0 0 1 576 457.5 L 570 457.5  A 2.5 2.5 0 0 1 567.5 455 L 567.5 449  Z " fill-rule="nonzero" fill="#ffffff" stroke="none" />
  <path d="M 567.5 449  A 2.5 2.5 0 0 1 570 446.5 L 576 446.5  A 2.5 2.5 0 0 1 578.5 449 L 578.5 455  A 2.5 2.5 0 0 1 576 457.5 L 570 457.5  A 2.5 2.5 0 0 1 567.5 455 L 567.5 449  Z " stroke-width="1" stroke="#797979" fill="none" />
</svg>