<?xml version="1.0" encoding="utf-8"?>
<svg version="1.1" xmlns:xlink="http://www.w3.org/1999/xlink" width="139px" height="43px" xmlns="http://www.w3.org/2000/svg">
  <g transform="matrix(1 0 0 1 -235 -485 )">
    <path d="M 236 490  A 4 4 0 0 1 240 486 L 369 486  A 4 4 0 0 1 373 490 L 373 523  A 4 4 0 0 1 369 527 L 240 527  A 4 4 0 0 1 236 523 L 236 490  Z " fill-rule="nonzero" fill="#ffffff" stroke="none" />
    <path d="M 235.5 490  A 4.5 4.5 0 0 1 240 485.5 L 369 485.5  A 4.5 4.5 0 0 1 373.5 490 L 373.5 523  A 4.5 4.5 0 0 1 369 527.5 L 240 527.5  A 4.5 4.5 0 0 1 235.5 523 L 235.5 490  Z " stroke-width="1" stroke="#7f7f7f" fill="none" stroke-opacity="0.996078431372549" />
  </g>
</svg>