<?xml version="1.0" encoding="utf-8"?>
<svg version="1.1" xmlns:xlink="http://www.w3.org/1999/xlink" width="1171px" height="804px" xmlns="http://www.w3.org/2000/svg">
  <g transform="matrix(1 0 0 1 -118 -234 )">
    <path d="M 119 237  A 2 2 0 0 1 121 235 L 1286 235  A 2 2 0 0 1 1288 237 L 1288 1035  A 2 2 0 0 1 1286 1037 L 121 1037  A 2 2 0 0 1 119 1035 L 119 237  Z " fill-rule="nonzero" fill="#ffffff" stroke="none" />
    <path d="M 118.5 237  A 2.5 2.5 0 0 1 121 234.5 L 1286 234.5  A 2.5 2.5 0 0 1 1288.5 237 L 1288.5 1035  A 2.5 2.5 0 0 1 1286 1037.5 L 121 1037.5  A 2.5 2.5 0 0 1 118.5 1035 L 118.5 237  Z " stroke-width="1" stroke="#ec3d52" fill="none" stroke-opacity="0.188235294117647" />
  </g>
</svg>