<?xml version="1.0" encoding="utf-8"?>
<svg version="1.1" xmlns:xlink="http://www.w3.org/1999/xlink" width="354px" height="505px" xmlns="http://www.w3.org/2000/svg">
  <defs>
    <filter x="1077px" y="158px" width="354px" height="505px" filterUnits="userSpaceOnUse" id="filter23">
      <feOffset dx="5" dy="5" in="SourceAlpha" result="shadowOffsetInner" />
      <feGaussianBlur stdDeviation="2.5" in="shadowOffsetInner" result="shadowGaussian" />
      <feComposite in2="shadowGaussian" operator="atop" in="SourceAlpha" result="shadowComposite" />
      <feColorMatrix type="matrix" values="0 0 0 0 0  0 0 0 0 0  0 0 0 0 0  0 0 0 0.349019607843137 0  " in="shadowComposite" />
    </filter>
    <g id="widget24">
      <path d="M 1078 163  A 4 4 0 0 1 1082 159 L 1416 159  A 4 4 0 0 1 1420 163 L 1420 648  A 4 4 0 0 1 1416 652 L 1082 652  A 4 4 0 0 1 1078 648 L 1078 163  Z " fill-rule="nonzero" fill="#f2f2f2" stroke="none" />
      <path d="M 1077.5 163  A 4.5 4.5 0 0 1 1082 158.5 L 1416 158.5  A 4.5 4.5 0 0 1 1420.5 163 L 1420.5 648  A 4.5 4.5 0 0 1 1416 652.5 L 1082 652.5  A 4.5 4.5 0 0 1 1077.5 648 L 1077.5 163  Z " stroke-width="1" stroke="#7f7f7f" fill="none" stroke-opacity="0.996078431372549" />
    </g>
  </defs>
  <g transform="matrix(1 0 0 1 -1077 -158 )">
    <use xlink:href="#widget24" filter="url(#filter23)" />
    <use xlink:href="#widget24" />
  </g>
</svg>