<?xml version="1.0" encoding="utf-8"?>
<svg version="1.1" xmlns:xlink="http://www.w3.org/1999/xlink" width="354px" height="505px" xmlns="http://www.w3.org/2000/svg">
  <defs>
    <filter x="63px" y="119px" width="354px" height="505px" filterUnits="userSpaceOnUse" id="filter15">
      <feOffset dx="5" dy="5" in="SourceAlpha" result="shadowOffsetInner" />
      <feGaussianBlur stdDeviation="2.5" in="shadowOffsetInner" result="shadowGaussian" />
      <feComposite in2="shadowGaussian" operator="atop" in="SourceAlpha" result="shadowComposite" />
      <feColorMatrix type="matrix" values="0 0 0 0 0  0 0 0 0 0  0 0 0 0 0  0 0 0 0.349019607843137 0  " in="shadowComposite" />
    </filter>
    <g id="widget16">
      <path d="M 64 124  A 4 4 0 0 1 68 120 L 402 120  A 4 4 0 0 1 406 124 L 406 609  A 4 4 0 0 1 402 613 L 68 613  A 4 4 0 0 1 64 609 L 64 124  Z " fill-rule="nonzero" fill="#f2f2f2" stroke="none" />
      <path d="M 63.5 124  A 4.5 4.5 0 0 1 68 119.5 L 402 119.5  A 4.5 4.5 0 0 1 406.5 124 L 406.5 609  A 4.5 4.5 0 0 1 402 613.5 L 68 613.5  A 4.5 4.5 0 0 1 63.5 609 L 63.5 124  Z " stroke-width="1" stroke="#7f7f7f" fill="none" stroke-opacity="0.996078431372549" />
    </g>
  </defs>
  <g transform="matrix(1 0 0 1 -63 -119 )">
    <use xlink:href="#widget16" filter="url(#filter15)" />
    <use xlink:href="#widget16" />
  </g>
</svg>