<?xml version="1.0" encoding="utf-8"?>
<svg version="1.1" xmlns:xlink="http://www.w3.org/1999/xlink" width="344px" height="495px" xmlns="http://www.w3.org/2000/svg">
  <g transform="matrix(1 0 0 1 -126 -180 )">
    <path d="M 127 185  A 4 4 0 0 1 131 181 L 465 181  A 4 4 0 0 1 469 185 L 469 670  A 4 4 0 0 1 465 674 L 131 674  A 4 4 0 0 1 127 670 L 127 185  Z " fill-rule="nonzero" fill="#ffffff" stroke="none" />
    <path d="M 126.5 185  A 4.5 4.5 0 0 1 131 180.5 L 465 180.5  A 4.5 4.5 0 0 1 469.5 185 L 469.5 670  A 4.5 4.5 0 0 1 465 674.5 L 131 674.5  A 4.5 4.5 0 0 1 126.5 670 L 126.5 185  Z " stroke-width="1" stroke="#7f7f7f" fill="none" stroke-opacity="0.996078431372549" />
  </g>
</svg>