<?xml version="1.0" encoding="utf-8"?>
<svg version="1.1" xmlns:xlink="http://www.w3.org/1999/xlink" width="1198px" height="2725px" xmlns="http://www.w3.org/2000/svg">
  <g transform="matrix(1 0 0 1 -105 -249 )">
    <path d="M 106 252  A 2 2 0 0 1 108 250 L 1300 250  A 2 2 0 0 1 1302 252 L 1302 2971  A 2 2 0 0 1 1300 2973 L 108 2973  A 2 2 0 0 1 106 2971 L 106 252  Z " fill-rule="nonzero" fill="#ffffff" stroke="none" />
    <path d="M 105.5 252  A 2.5 2.5 0 0 1 108 249.5 L 1300 249.5  A 2.5 2.5 0 0 1 1302.5 252 L 1302.5 2971  A 2.5 2.5 0 0 1 1300 2973.5 L 108 2973.5  A 2.5 2.5 0 0 1 105.5 2971 L 105.5 252  Z " stroke-width="1" stroke="#ec3d52" fill="none" stroke-opacity="0.188235294117647" />
  </g>
</svg>