<?xml version="1.0" encoding="utf-8"?>
<svg version="1.1" xmlns:xlink="http://www.w3.org/1999/xlink" width="17px" height="17px" viewBox="1306 1592  17 17" xmlns="http://www.w3.org/2000/svg">
  <path d="M 1314.5 1592  C 1319.26 1592  1323 1595.74  1323 1600.5  C 1323 1605.26  1319.26 1609  1314.5 1609  C 1309.74 1609  1306 1605.26  1306 1600.5  C 1306 1595.74  1309.74 1592  1314.5 1592  Z " fill-rule="nonzero" fill="#f0f0f0" stroke="none" />
  <path d="M 1314.5 1592.5  C 1318.98 1592.5  1322.5 1596.02  1322.5 1600.5  C 1322.5 1604.98  1318.98 1608.5  1314.5 1608.5  C 1310.02 1608.5  1306.5 1604.98  1306.5 1600.5  C 1306.5 1596.02  1310.02 1592.5  1314.5 1592.5  Z " stroke-width="1" stroke="#797979" fill="none" />
  <path d="M 1314.5 1604.75  C 1312.12 1604.75  1310.25 1602.88  1310.25 1600.5  C 1310.25 1598.12  1312.12 1596.25  1314.5 1596.25  C 1316.88 1596.25  1318.75 1598.12  1318.75 1600.5  C 1318.75 1602.88  1316.88 1604.75  1314.5 1604.75  " fill-rule="nonzero" fill="#797979" stroke="none" />
</svg>