<?xml version="1.0" encoding="utf-8"?>
<svg version="1.1" xmlns:xlink="http://www.w3.org/1999/xlink" width="17px" height="17px" viewBox="1297 841  17 17" xmlns="http://www.w3.org/2000/svg">
  <path d="M 1305.5 841  C 1310.26 841  1314 844.74  1314 849.5  C 1314 854.26  1310.26 858  1305.5 858  C 1300.74 858  1297 854.26  1297 849.5  C 1297 844.74  1300.74 841  1305.5 841  Z " fill-rule="nonzero" fill="#ffffff" stroke="none" />
  <path d="M 1305.5 841.5  C 1309.98 841.5  1313.5 845.02  1313.5 849.5  C 1313.5 853.98  1309.98 857.5  1305.5 857.5  C 1301.02 857.5  1297.5 853.98  1297.5 849.5  C 1297.5 845.02  1301.02 841.5  1305.5 841.5  Z " stroke-width="1" stroke="#f60068" fill="none" />
  <path d="M 1305.5 853.75  C 1303.12 853.75  1301.25 851.88  1301.25 849.5  C 1301.25 847.12  1303.12 845.25  1305.5 845.25  C 1307.88 845.25  1309.75 847.12  1309.75 849.5  C 1309.75 851.88  1307.88 853.75  1305.5 853.75  " fill-rule="nonzero" fill="#f60068" stroke="none" />
</svg>