<?xml version="1.0" encoding="utf-8"?>
<svg version="1.1" xmlns:xlink="http://www.w3.org/1999/xlink" width="17px" height="17px" viewBox="1297 867  17 17" xmlns="http://www.w3.org/2000/svg">
  <path d="M 1305.5 867  C 1310.26 867  1314 870.74  1314 875.5  C 1314 880.26  1310.26 884  1305.5 884  C 1300.74 884  1297 880.26  1297 875.5  C 1297 870.74  1300.74 867  1305.5 867  Z " fill-rule="nonzero" fill="#ffffff" stroke="none" />
  <path d="M 1305.5 867.5  C 1309.98 867.5  1313.5 871.02  1313.5 875.5  C 1313.5 879.98  1309.98 883.5  1305.5 883.5  C 1301.02 883.5  1297.5 879.98  1297.5 875.5  C 1297.5 871.02  1301.02 867.5  1305.5 867.5  Z " stroke-width="1" stroke="#f60068" fill="none" />
  <path d="M 1305.5 879.75  C 1303.12 879.75  1301.25 877.88  1301.25 875.5  C 1301.25 873.12  1303.12 871.25  1305.5 871.25  C 1307.88 871.25  1309.75 873.12  1309.75 875.5  C 1309.75 877.88  1307.88 879.75  1305.5 879.75  " fill-rule="nonzero" fill="#f60068" stroke="none" />
</svg>