<?xml version="1.0" encoding="utf-8"?>
<svg version="1.1" xmlns:xlink="http://www.w3.org/1999/xlink" width="12px" height="12px" viewBox="1022 661  12 12" xmlns="http://www.w3.org/2000/svg">
  <path d="M 1022.5 664  A 2.5 2.5 0 0 1 1025 661.5 L 1031 661.5  A 2.5 2.5 0 0 1 1033.5 664 L 1033.5 670  A 2.5 2.5 0 0 1 1031 672.5 L 1025 672.5  A 2.5 2.5 0 0 1 1022.5 670 L 1022.5 664  Z " fill-rule="nonzero" fill="#f0f0f0" stroke="none" />
  <path d="M 1022.5 664  A 2.5 2.5 0 0 1 1025 661.5 L 1031 661.5  A 2.5 2.5 0 0 1 1033.5 664 L 1033.5 670  A 2.5 2.5 0 0 1 1031 672.5 L 1025 672.5  A 2.5 2.5 0 0 1 1022.5 670 L 1022.5 664  Z " stroke-width="1" stroke="#797979" fill="none" />
</svg>