<?xml version="1.0" encoding="utf-8"?>
<svg version="1.1" xmlns:xlink="http://www.w3.org/1999/xlink" width="12px" height="12px" viewBox="341 349  12 12" xmlns="http://www.w3.org/2000/svg">
  <path d="M 347 349.5  C 350.08 349.5  352.5 351.92  352.5 355  C 352.5 358.08  350.08 360.5  347 360.5  C 343.92 360.5  341.5 358.08  341.5 355  C 341.5 351.92  343.92 349.5  347 349.5  Z " fill-rule="nonzero" fill="#ffffff" stroke="none" />
  <path d="M 347 349.5  C 350.08 349.5  352.5 351.92  352.5 355  C 352.5 358.08  350.08 360.5  347 360.5  C 343.92 360.5  341.5 358.08  341.5 355  C 341.5 351.92  343.92 349.5  347 349.5  Z " stroke-width="1" stroke="#0000ff" fill="none" stroke-opacity="0.909803921568627" />
  <path d="M 347 358  C 345.32 358  344 356.68  344 355  C 344 353.32  345.32 352  347 352  C 348.68 352  350 353.32  350 355  C 350 356.68  348.68 358  347 358  " fill-rule="nonzero" fill="#0000ff" stroke="none" fill-opacity="0.909803921568627" />
</svg>