<?xml version="1.0" encoding="utf-8"?>
<svg version="1.1" xmlns:xlink="http://www.w3.org/1999/xlink" width="12px" height="12px" viewBox="341 424  12 12" xmlns="http://www.w3.org/2000/svg">
  <path d="M 347 424.5  C 350.08 424.5  352.5 426.92  352.5 430  C 352.5 433.08  350.08 435.5  347 435.5  C 343.92 435.5  341.5 433.08  341.5 430  C 341.5 426.92  343.92 424.5  347 424.5  Z " fill-rule="nonzero" fill="#ffffff" stroke="none" />
  <path d="M 347 424.5  C 350.08 424.5  352.5 426.92  352.5 430  C 352.5 433.08  350.08 435.5  347 435.5  C 343.92 435.5  341.5 433.08  341.5 430  C 341.5 426.92  343.92 424.5  347 424.5  Z " stroke-width="1" stroke="#0000ff" fill="none" stroke-opacity="0.909803921568627" />
  <path d="M 347 433  C 345.32 433  344 431.68  344 430  C 344 428.32  345.32 427  347 427  C 348.68 427  350 428.32  350 430  C 350 431.68  348.68 433  347 433  " fill-rule="nonzero" fill="#0000ff" stroke="none" fill-opacity="0.909803921568627" />
</svg>