<?xml version="1.0" encoding="utf-8"?>
<svg version="1.1" xmlns:xlink="http://www.w3.org/1999/xlink" width="12px" height="12px" viewBox="317 271  12 12" xmlns="http://www.w3.org/2000/svg">
  <path d="M 317.5 273  A 1.5 1.5 0 0 1 319 271.5 L 327 271.5  A 1.5 1.5 0 0 1 328.5 273 L 328.5 281  A 1.5 1.5 0 0 1 327 282.5 L 319 282.5  A 1.5 1.5 0 0 1 317.5 281 L 317.5 273  Z " fill-rule="nonzero" fill="#ffffff" stroke="none" />
  <path d="M 317.5 273  A 1.5 1.5 0 0 1 319 271.5 L 327 271.5  A 1.5 1.5 0 0 1 328.5 273 L 328.5 281  A 1.5 1.5 0 0 1 327 282.5 L 319 282.5  A 1.5 1.5 0 0 1 317.5 281 L 317.5 273  Z " stroke-width="1" stroke="#0000ff" fill="none" />
</svg>