<?xml version="1.0" encoding="utf-8"?>
<svg version="1.1" xmlns:xlink="http://www.w3.org/1999/xlink" width="50px" height="41px" xmlns="http://www.w3.org/2000/svg">
  <g transform="matrix(1 0 0 1 -967 -45 )">
    <path d="M 48.5294117647059 26  L 39.7058823529412 10.25  L 30.8823529411765 26  L 48.5294117647059 26  Z M 19.1176470588235 26  L 10.2941176470588 10.25  L 1.47058823529412 26  L 19.1176470588235 26  Z M 40.4411764705882 6  L 29.1590073529412 6  C 28.9445465686275 6.4672619047619  28.5960477941176 7.01255580357143  28.1135110294118 7.49302455357143  C 27.6309742647059 7.97349330357143  27.0833333333333 8.32049851190476  26 8.53404017857143  L 26 38  L 40.4411764705882 38  C 40.655637254902 38.0714285714286  40.8318014705882 38.1400669642857  40.9696691176471 38.27734375  C 41.1075367647059 38.4146205357143  41.1764705882353 38.5900297619048  41.1764705882353 38.8035714285714  L 41.1764705882353 40.2678571428571  C 41.1764705882353 40.4813988095238  41.1075367647059 40.6568080357143  40.9696691176471 40.7940848214286  C 40.8318014705882 40.9313616071429  40.655637254902 41  40.4411764705882 41  L 9.55882352941176 41  C 9.34436274509804 41  9.16819852941177 40.9313616071429  9.03033088235294 40.7940848214286  C 8.89246323529412 40.6568080357143  8.82352941176471 40.4813988095238  8.82352941176471 40.2678571428571  L 8.82352941176471 38.8035714285714  C 8.82352941176471 38.5900297619048  8.89246323529412 38.4146205357143  9.03033088235294 38.27734375  C 9.16819852941177 38.1400669642857  9.34436274509804 38.0714285714286  9.55882352941176 38  L 24 38  L 24 8.53404017857143  C 22.9166666666667 8.32049851190476  22.3690257352941 7.97349330357143  21.8864889705882 7.49302455357143  C 21.4039522058824 7.01255580357143  21.0554534313726 6.4672619047619  20.8409926470588 6  L 9.55882352941176 6  C 9.34436274509804 5.85714285714286  9.16819852941177 5.78850446428571  9.03033088235294 5.65122767857143  C 8.89246323529412 5.51395089285714  8.82352941176471 5.33854166666666  8.82352941176471 5.125  L 8.82352941176471 3.66071428571429  C 8.82352941176471 3.44717261904761  8.89246323529412 3.27176339285714  9.03033088235294 3.13448660714286  C 9.16819852941177 2.99720982142857  9.34436274509804 2.92857142857143  9.55882352941176 3  L 20.8409926470588 3  C 21.1626838235294 2.05915178571429  21.6988357843137 1.35370163690476  22.4494485294118 0.812220982142859  C 23.2000612745098 0.270740327380955  24.0502450980392 0  25 0  C 25.9497549019608 0  26.7999387254902 0.270740327380955  27.5505514705882 0.812220982142859  C 28.3011642156863 1.35370163690476  28.8373161764706 2.05915178571429  29.1590073529412 3  L 40.4411764705882 3  C 40.655637254902 2.92857142857143  40.8318014705882 2.99720982142857  40.9696691176471 3.13448660714286  C 41.1075367647059 3.27176339285714  41.1764705882353 3.44717261904761  41.1764705882353 3.66071428571429  L 41.1764705882353 5.125  C 41.1764705882353 5.33854166666666  41.1075367647059 5.51395089285714  40.9696691176471 5.65122767857143  C 40.8318014705882 5.78850446428571  40.655637254902 5.85714285714286  40.4411764705882 6  Z M 23.7017463235294 5.685546875  C 24.0617340686275 6.04399181547619  24.4944852941176 6.22321428571429  25 6.22321428571429  C 25.5055147058824 6.22321428571429  25.9382659313726 6.04399181547619  26.2982536764706 5.685546875  C 26.6582414215686 5.32710193452381  26.8382352941176 4.89620535714286  26.8382352941176 4.39285714285714  C 26.8382352941176 3.88950892857143  26.6582414215686 3.45861235119047  26.2982536764706 3.10016741071429  C 25.9382659313726 2.7417224702381  25.5055147058824 2.5625  25 2.5625  C 24.4944852941176 2.5625  24.0617340686275 2.7417224702381  23.7017463235294 3.10016741071429  C 23.3417585784314 3.45861235119047  23.1617647058824 3.88950892857143  23.1617647058824 4.39285714285714  C 23.1617647058824 4.89620535714286  23.3417585784314 5.32710193452381  23.7017463235294 5.685546875  Z M 49.1957720588235 24.50390625  C 49.7319240196078 25.5716145833333  50 26.1893601190476  50 26.3571428571429  C 50 27.4706101190476  49.6438419117647 28.4696800595238  48.9315257352941 29.3543526785714  C 48.2192095588235 30.239025297619  47.3192401960784 30.9330357142857  46.2316176470588 31.4363839285714  C 45.1439950980392 31.9397321428571  44.0372242647059 32.3172433035714  42.9113051470588 32.5689174107143  C 41.7853860294118 32.8205915178571  40.7169117647059 32.9464285714286  39.7058823529412 32.9464285714286  C 38.6948529411765 32.9464285714286  37.6263786764706 32.8205915178571  36.5004595588235 32.5689174107143  C 35.3745404411765 32.3172433035714  34.2677696078431 31.9397321428571  33.1801470588235 31.4363839285714  C 32.0925245098039 30.9330357142857  31.1925551470588 30.239025297619  30.4802389705882 29.3543526785714  C 29.7679227941176 28.4696800595238  29.4117647058824 27.4706101190476  29.4117647058824 26.3571428571429  C 29.4117647058824 26.1893601190476  29.6798406862745 25.5716145833333  30.2159926470588 24.50390625  C 30.7521446078431 23.4361979166667  31.4568014705882 22.1053757440476  32.3299632352941 20.5114397321429  C 33.203125 18.9175037202381  34.0226715686275 17.426525297619  34.7886029411765 16.0385044642857  C 35.5545343137255 14.6504836309524  36.3357843137255 13.2472098214286  37.1323529411765 11.8286830357143  C 37.9289215686275 10.41015625  38.3578431372549 9.64750744047619  38.4191176470588 9.54073660714286  C 38.6948529411765 9.03738839285714  39.1237745098039 8.78571428571429  39.7058823529412 8.78571428571429  C 40.2879901960784 8.78571428571429  40.7169117647059 9.03738839285714  40.9926470588235 9.54073660714286  C 41.0539215686275 9.64750744047619  41.4828431372549 10.41015625  42.2794117647059 11.8286830357143  C 43.0759803921569 13.2472098214286  43.8572303921569 14.6504836309524  44.6231617647059 16.0385044642857  C 45.3890931372549 17.426525297619  46.2086397058824 18.9175037202381  47.0818014705882 20.5114397321429  C 47.9549632352941 22.1053757440476  48.6596200980392 23.4361979166667  49.1957720588235 24.50390625  Z M 19.7840073529412 24.50390625  C 20.3201593137255 25.5716145833333  20.5882352941176 26.1893601190476  20.5882352941176 26.3571428571429  C 20.5882352941176 27.4706101190476  20.2320772058824 28.4696800595238  19.5197610294118 29.3543526785714  C 18.8074448529412 30.239025297619  17.9074754901961 30.9330357142857  16.8198529411765 31.4363839285714  C 15.7322303921569 31.9397321428571  14.6254595588235 32.3172433035714  13.4995404411765 32.5689174107143  C 12.3736213235294 32.8205915178571  11.3051470588235 32.9464285714286  10.2941176470588 32.9464285714286  C 9.28308823529412 32.9464285714286  8.21461397058824 32.8205915178571  7.08869485294118 32.5689174107143  C 5.96277573529412 32.3172433035714  4.85600490196078 31.9397321428571  3.76838235294118 31.4363839285714  C 2.68075980392157 30.9330357142857  1.78079044117647 30.239025297619  1.06847426470588 29.3543526785714  C 0.356158088235294 28.4696800595238  0 27.4706101190476  0 26.3571428571429  C 0 26.1893601190476  0.268075980392157 25.5716145833333  0.804227941176471 24.50390625  C 1.34037990196078 23.4361979166667  2.04503676470588 22.1053757440476  2.91819852941176 20.5114397321429  C 3.79136029411765 18.9175037202381  4.6109068627451 17.426525297619  5.37683823529412 16.0385044642857  C 6.14276960784314 14.6504836309524  6.92401960784314 13.2472098214286  7.72058823529412 11.8286830357143  C 8.5171568627451 10.41015625  8.94607843137255 9.64750744047619  9.00735294117647 9.54073660714286  C 9.28308823529412 9.03738839285714  9.71200980392157 8.78571428571429  10.2941176470588 8.78571428571429  C 10.8762254901961 8.78571428571429  11.3051470588235 9.03738839285714  11.5808823529412 9.54073660714286  C 11.6421568627451 9.64750744047619  12.0710784313726 10.41015625  12.8676470588235 11.8286830357143  C 13.6642156862745 13.2472098214286  14.4454656862745 14.6504836309524  15.2113970588235 16.0385044642857  C 15.9773284313726 17.426525297619  16.796875 18.9175037202381  17.6700367647059 20.5114397321429  C 18.5431985294118 22.1053757440476  19.2478553921569 23.4361979166667  19.7840073529412 24.50390625  Z " fill-rule="nonzero" fill="#ffffff" stroke="none" transform="matrix(1 0 0 1 967 45 )" />
  </g>
</svg>