<?xml version="1.0" encoding="utf-8"?>
<svg version="1.1" xmlns:xlink="http://www.w3.org/1999/xlink" width="280px" height="36px" viewBox="50 138  280 36" xmlns="http://www.w3.org/2000/svg">
  <path d="M 51 143  A 4 4 0 0 1 55 139 L 325 139  A 4 4 0 0 1 329 143 L 329 169  A 4 4 0 0 1 325 173 L 55 173  A 4 4 0 0 1 51 169 L 51 143  Z " fill-rule="nonzero" fill="#ffffff" stroke="none" fill-opacity="0.996078431372549" />
  <path d="M 50.5 143  A 4.5 4.5 0 0 1 55 138.5 L 325 138.5  A 4.5 4.5 0 0 1 329.5 143 L 329.5 169  A 4.5 4.5 0 0 1 325 173.5 L 55 173.5  A 4.5 4.5 0 0 1 50.5 169 L 50.5 143  Z " stroke-width="1" stroke="#555555" fill="none" stroke-opacity="0.298039215686275" />
</svg>