<?xml version="1.0" encoding="utf-8"?>
<svg version="1.1" xmlns:xlink="http://www.w3.org/1999/xlink" width="17px" height="17px" viewBox="1269 1818  17 17" xmlns="http://www.w3.org/2000/svg">
  <path d="M 1277.5 1818  C 1282.26 1818  1286 1821.74  1286 1826.5  C 1286 1831.26  1282.26 1835  1277.5 1835  C 1272.74 1835  1269 1831.26  1269 1826.5  C 1269 1821.74  1272.74 1818  1277.5 1818  Z " fill-rule="nonzero" fill="#ffffff" stroke="none" />
  <path d="M 1277.5 1818.5  C 1281.98 1818.5  1285.5 1822.02  1285.5 1826.5  C 1285.5 1830.98  1281.98 1834.5  1277.5 1834.5  C 1273.02 1834.5  1269.5 1830.98  1269.5 1826.5  C 1269.5 1822.02  1273.02 1818.5  1277.5 1818.5  Z " stroke-width="1" stroke="#f60068" fill="none" />
  <path d="M 1277.5 1830.75  C 1275.12 1830.75  1273.25 1828.88  1273.25 1826.5  C 1273.25 1824.12  1275.12 1822.25  1277.5 1822.25  C 1279.88 1822.25  1281.75 1824.12  1281.75 1826.5  C 1281.75 1828.88  1279.88 1830.75  1277.5 1830.75  " fill-rule="nonzero" fill="#f60068" stroke="none" />
</svg>