<?xml version="1.0" encoding="utf-8"?>
<svg version="1.1" xmlns:xlink="http://www.w3.org/1999/xlink" width="17px" height="17px" viewBox="1288 1823  17 17" xmlns="http://www.w3.org/2000/svg">
  <path d="M 1296.5 1823  C 1301.26 1823  1305 1826.74  1305 1831.5  C 1305 1836.26  1301.26 1840  1296.5 1840  C 1291.74 1840  1288 1836.26  1288 1831.5  C 1288 1826.74  1291.74 1823  1296.5 1823  Z " fill-rule="nonzero" fill="#ffffff" stroke="none" />
  <path d="M 1296.5 1823.5  C 1300.98 1823.5  1304.5 1827.02  1304.5 1831.5  C 1304.5 1835.98  1300.98 1839.5  1296.5 1839.5  C 1292.02 1839.5  1288.5 1835.98  1288.5 1831.5  C 1288.5 1827.02  1292.02 1823.5  1296.5 1823.5  Z " stroke-width="1" stroke="#f60068" fill="none" />
  <path d="M 1296.5 1835.75  C 1294.12 1835.75  1292.25 1833.88  1292.25 1831.5  C 1292.25 1829.12  1294.12 1827.25  1296.5 1827.25  C 1298.88 1827.25  1300.75 1829.12  1300.75 1831.5  C 1300.75 1833.88  1298.88 1835.75  1296.5 1835.75  " fill-rule="nonzero" fill="#f60068" stroke="none" />
</svg>