<?xml version="1.0" encoding="utf-8"?>
<svg version="1.1" xmlns:xlink="http://www.w3.org/1999/xlink" width="17px" height="17px" viewBox="1268 1843  17 17" xmlns="http://www.w3.org/2000/svg">
  <path d="M 1276.5 1843  C 1281.26 1843  1285 1846.74  1285 1851.5  C 1285 1856.26  1281.26 1860  1276.5 1860  C 1271.74 1860  1268 1856.26  1268 1851.5  C 1268 1846.74  1271.74 1843  1276.5 1843  Z " fill-rule="nonzero" fill="#f0f0f0" stroke="none" />
  <path d="M 1276.5 1843.5  C 1280.98 1843.5  1284.5 1847.02  1284.5 1851.5  C 1284.5 1855.98  1280.98 1859.5  1276.5 1859.5  C 1272.02 1859.5  1268.5 1855.98  1268.5 1851.5  C 1268.5 1847.02  1272.02 1843.5  1276.5 1843.5  Z " stroke-width="1" stroke="#797979" fill="none" />
  <path d="M 1276.5 1855.75  C 1274.12 1855.75  1272.25 1853.88  1272.25 1851.5  C 1272.25 1849.12  1274.12 1847.25  1276.5 1847.25  C 1278.88 1847.25  1280.75 1849.12  1280.75 1851.5  C 1280.75 1853.88  1278.88 1855.75  1276.5 1855.75  " fill-rule="nonzero" fill="#797979" stroke="none" />
</svg>