<?xml version="1.0" encoding="utf-8"?>
<svg version="1.1" xmlns:xlink="http://www.w3.org/1999/xlink" width="17px" height="17px" viewBox="1219 705  17 17" xmlns="http://www.w3.org/2000/svg">
  <path d="M 1227.5 705  C 1232.26 705  1236 708.74  1236 713.5  C 1236 718.26  1232.26 722  1227.5 722  C 1222.74 722  1219 718.26  1219 713.5  C 1219 708.74  1222.74 705  1227.5 705  Z " fill-rule="nonzero" fill="#ffffff" stroke="none" />
  <path d="M 1227.5 705.5  C 1231.98 705.5  1235.5 709.02  1235.5 713.5  C 1235.5 717.98  1231.98 721.5  1227.5 721.5  C 1223.02 721.5  1219.5 717.98  1219.5 713.5  C 1219.5 709.02  1223.02 705.5  1227.5 705.5  Z " stroke-width="1" stroke="#f60068" fill="none" />
  <path d="M 1227.5 717.75  C 1225.12 717.75  1223.25 715.88  1223.25 713.5  C 1223.25 711.12  1225.12 709.25  1227.5 709.25  C 1229.88 709.25  1231.75 711.12  1231.75 713.5  C 1231.75 715.88  1229.88 717.75  1227.5 717.75  " fill-rule="nonzero" fill="#f60068" stroke="none" />
</svg>