<?xml version="1.0" encoding="utf-8"?>
<svg version="1.1" xmlns:xlink="http://www.w3.org/1999/xlink" width="17px" height="17px" viewBox="1259 1085  17 17" xmlns="http://www.w3.org/2000/svg">
  <path d="M 1267.5 1085  C 1272.26 1085  1276 1088.74  1276 1093.5  C 1276 1098.26  1272.26 1102  1267.5 1102  C 1262.74 1102  1259 1098.26  1259 1093.5  C 1259 1088.74  1262.74 1085  1267.5 1085  Z " fill-rule="nonzero" fill="#ffffff" stroke="none" />
  <path d="M 1267.5 1085.5  C 1271.98 1085.5  1275.5 1089.02  1275.5 1093.5  C 1275.5 1097.98  1271.98 1101.5  1267.5 1101.5  C 1263.02 1101.5  1259.5 1097.98  1259.5 1093.5  C 1259.5 1089.02  1263.02 1085.5  1267.5 1085.5  Z " stroke-width="1" stroke="#f60068" fill="none" />
  <path d="M 1267.5 1097.75  C 1265.12 1097.75  1263.25 1095.88  1263.25 1093.5  C 1263.25 1091.12  1265.12 1089.25  1267.5 1089.25  C 1269.88 1089.25  1271.75 1091.12  1271.75 1093.5  C 1271.75 1095.88  1269.88 1097.75  1267.5 1097.75  " fill-rule="nonzero" fill="#f60068" stroke="none" />
</svg>