<?xml version="1.0" encoding="utf-8"?>
<svg version="1.1" xmlns:xlink="http://www.w3.org/1999/xlink" width="17px" height="17px" viewBox="1279 1091  17 17" xmlns="http://www.w3.org/2000/svg">
  <path d="M 1287.5 1091.5  C 1291.98 1091.5  1295.5 1095.02  1295.5 1099.5  C 1295.5 1103.98  1291.98 1107.5  1287.5 1107.5  C 1283.02 1107.5  1279.5 1103.98  1279.5 1099.5  C 1279.5 1095.02  1283.02 1091.5  1287.5 1091.5  Z " fill-rule="nonzero" fill="#f0f0f0" stroke="none" />
  <path d="M 1287.5 1091.5  C 1291.98 1091.5  1295.5 1095.02  1295.5 1099.5  C 1295.5 1103.98  1291.98 1107.5  1287.5 1107.5  C 1283.02 1107.5  1279.5 1103.98  1279.5 1099.5  C 1279.5 1095.02  1283.02 1091.5  1287.5 1091.5  Z " stroke-width="1" stroke="#797979" fill="none" stroke-opacity="0.996078431372549" />
  <path d="M 1287.5 1103.75  C 1285.12 1103.75  1283.25 1101.88  1283.25 1099.5  C 1283.25 1097.12  1285.12 1095.25  1287.5 1095.25  C 1289.88 1095.25  1291.75 1097.12  1291.75 1099.5  C 1291.75 1101.88  1289.88 1103.75  1287.5 1103.75  " fill-rule="nonzero" fill="#797979" stroke="none" fill-opacity="0.996078431372549" />
</svg>