<?xml version="1.0" encoding="utf-8"?>
<svg version="1.1" xmlns:xlink="http://www.w3.org/1999/xlink" width="17px" height="17px" viewBox="1260 1086  17 17" xmlns="http://www.w3.org/2000/svg">
  <path d="M 1268.5 1086.5  C 1272.98 1086.5  1276.5 1090.02  1276.5 1094.5  C 1276.5 1098.98  1272.98 1102.5  1268.5 1102.5  C 1264.02 1102.5  1260.5 1098.98  1260.5 1094.5  C 1260.5 1090.02  1264.02 1086.5  1268.5 1086.5  Z " fill-rule="nonzero" fill="#f0f0f0" stroke="none" />
  <path d="M 1268.5 1086.5  C 1272.98 1086.5  1276.5 1090.02  1276.5 1094.5  C 1276.5 1098.98  1272.98 1102.5  1268.5 1102.5  C 1264.02 1102.5  1260.5 1098.98  1260.5 1094.5  C 1260.5 1090.02  1264.02 1086.5  1268.5 1086.5  Z " stroke-width="1" stroke="#797979" fill="none" stroke-opacity="0.996078431372549" />
  <path d="M 1268.5 1098.75  C 1266.12 1098.75  1264.25 1096.88  1264.25 1094.5  C 1264.25 1092.12  1266.12 1090.25  1268.5 1090.25  C 1270.88 1090.25  1272.75 1092.12  1272.75 1094.5  C 1272.75 1096.88  1270.88 1098.75  1268.5 1098.75  " fill-rule="nonzero" fill="#797979" stroke="none" fill-opacity="0.996078431372549" />
</svg>