<?xml version="1.0" encoding="utf-8"?>
<svg version="1.1" xmlns:xlink="http://www.w3.org/1999/xlink" width="17px" height="17px" viewBox="1219 731  17 17" xmlns="http://www.w3.org/2000/svg">
  <path d="M 1227.5 731.5  C 1231.98 731.5  1235.5 735.02  1235.5 739.5  C 1235.5 743.98  1231.98 747.5  1227.5 747.5  C 1223.02 747.5  1219.5 743.98  1219.5 739.5  C 1219.5 735.02  1223.02 731.5  1227.5 731.5  Z " fill-rule="nonzero" fill="#f0f0f0" stroke="none" />
  <path d="M 1227.5 731.5  C 1231.98 731.5  1235.5 735.02  1235.5 739.5  C 1235.5 743.98  1231.98 747.5  1227.5 747.5  C 1223.02 747.5  1219.5 743.98  1219.5 739.5  C 1219.5 735.02  1223.02 731.5  1227.5 731.5  Z " stroke-width="1" stroke="#797979" fill="none" stroke-opacity="0.996078431372549" />
  <path d="M 1227.5 743.75  C 1225.12 743.75  1223.25 741.88  1223.25 739.5  C 1223.25 737.12  1225.12 735.25  1227.5 735.25  C 1229.88 735.25  1231.75 737.12  1231.75 739.5  C 1231.75 741.88  1229.88 743.75  1227.5 743.75  " fill-rule="nonzero" fill="#797979" stroke="none" fill-opacity="0.996078431372549" />
</svg>