<?xml version="1.0" encoding="utf-8"?>
<svg version="1.1" xmlns:xlink="http://www.w3.org/1999/xlink" width="17px" height="17px" viewBox="1259 1111  17 17" xmlns="http://www.w3.org/2000/svg">
  <path d="M 1267.5 1111.5  C 1271.98 1111.5  1275.5 1115.02  1275.5 1119.5  C 1275.5 1123.98  1271.98 1127.5  1267.5 1127.5  C 1263.02 1127.5  1259.5 1123.98  1259.5 1119.5  C 1259.5 1115.02  1263.02 1111.5  1267.5 1111.5  Z " fill-rule="nonzero" fill="#f0f0f0" stroke="none" />
  <path d="M 1267.5 1111.5  C 1271.98 1111.5  1275.5 1115.02  1275.5 1119.5  C 1275.5 1123.98  1271.98 1127.5  1267.5 1127.5  C 1263.02 1127.5  1259.5 1123.98  1259.5 1119.5  C 1259.5 1115.02  1263.02 1111.5  1267.5 1111.5  Z " stroke-width="1" stroke="#797979" fill="none" stroke-opacity="0.996078431372549" />
  <path d="M 1267.5 1123.75  C 1265.12 1123.75  1263.25 1121.88  1263.25 1119.5  C 1263.25 1117.12  1265.12 1115.25  1267.5 1115.25  C 1269.88 1115.25  1271.75 1117.12  1271.75 1119.5  C 1271.75 1121.88  1269.88 1123.75  1267.5 1123.75  " fill-rule="nonzero" fill="#797979" stroke="none" fill-opacity="0.996078431372549" />
</svg>