<?xml version="1.0" encoding="utf-8"?>
<svg version="1.1" xmlns:xlink="http://www.w3.org/1999/xlink" width="17px" height="17px" viewBox="1259 1111  17 17" xmlns="http://www.w3.org/2000/svg">
  <path d="M 1267.5 1111  C 1272.26 1111  1276 1114.74  1276 1119.5  C 1276 1124.26  1272.26 1128  1267.5 1128  C 1262.74 1128  1259 1124.26  1259 1119.5  C 1259 1114.74  1262.74 1111  1267.5 1111  Z " fill-rule="nonzero" fill="#ffffff" stroke="none" />
  <path d="M 1267.5 1111.5  C 1271.98 1111.5  1275.5 1115.02  1275.5 1119.5  C 1275.5 1123.98  1271.98 1127.5  1267.5 1127.5  C 1263.02 1127.5  1259.5 1123.98  1259.5 1119.5  C 1259.5 1115.02  1263.02 1111.5  1267.5 1111.5  Z " stroke-width="1" stroke="#f60068" fill="none" />
  <path d="M 1267.5 1123.75  C 1265.12 1123.75  1263.25 1121.88  1263.25 1119.5  C 1263.25 1117.12  1265.12 1115.25  1267.5 1115.25  C 1269.88 1115.25  1271.75 1117.12  1271.75 1119.5  C 1271.75 1121.88  1269.88 1123.75  1267.5 1123.75  " fill-rule="nonzero" fill="#f60068" stroke="none" />
</svg>