<?xml version="1.0" encoding="utf-8"?>
<svg version="1.1" xmlns:xlink="http://www.w3.org/1999/xlink" width="17px" height="17px" viewBox="1279 1117  17 17" xmlns="http://www.w3.org/2000/svg">
  <path d="M 1287.5 1117  C 1292.26 1117  1296 1120.74  1296 1125.5  C 1296 1130.26  1292.26 1134  1287.5 1134  C 1282.74 1134  1279 1130.26  1279 1125.5  C 1279 1120.74  1282.74 1117  1287.5 1117  Z " fill-rule="nonzero" fill="#ffffff" stroke="none" />
  <path d="M 1287.5 1117.5  C 1291.98 1117.5  1295.5 1121.02  1295.5 1125.5  C 1295.5 1129.98  1291.98 1133.5  1287.5 1133.5  C 1283.02 1133.5  1279.5 1129.98  1279.5 1125.5  C 1279.5 1121.02  1283.02 1117.5  1287.5 1117.5  Z " stroke-width="1" stroke="#f60068" fill="none" />
  <path d="M 1287.5 1129.75  C 1285.12 1129.75  1283.25 1127.88  1283.25 1125.5  C 1283.25 1123.12  1285.12 1121.25  1287.5 1121.25  C 1289.88 1121.25  1291.75 1123.12  1291.75 1125.5  C 1291.75 1127.88  1289.88 1129.75  1287.5 1129.75  " fill-rule="nonzero" fill="#f60068" stroke="none" />
</svg>