<?xml version="1.0" encoding="utf-8"?>
<svg version="1.1" xmlns:xlink="http://www.w3.org/1999/xlink" width="1506px" height="2995px" xmlns="http://www.w3.org/2000/svg">
  <g transform="matrix(1 0 0 1 0 -50 )">
    <path d="M 1 53  A 2 2 0 0 1 3 51 L 1503 51  A 2 2 0 0 1 1505 53 L 1505 3042  A 2 2 0 0 1 1503 3044 L 3 3044  A 2 2 0 0 1 1 3042 L 1 53  Z " fill-rule="nonzero" fill="#ffffff" stroke="none" />
    <path d="M 0.5 53  A 2.5 2.5 0 0 1 3 50.5 L 1503 50.5  A 2.5 2.5 0 0 1 1505.5 53 L 1505.5 3042  A 2.5 2.5 0 0 1 1503 3044.5 L 3 3044.5  A 2.5 2.5 0 0 1 0.5 3042 L 0.5 53  Z " stroke-width="1" stroke="#ec3d52" fill="none" stroke-opacity="0.188235294117647" />
  </g>
</svg>