<?xml version="1.0" encoding="utf-8"?>
<svg version="1.1" xmlns:xlink="http://www.w3.org/1999/xlink" width="1506px" height="2969px" xmlns="http://www.w3.org/2000/svg">
  <g transform="matrix(1 0 0 1 0 -46 )">
    <path d="M 1 49  A 2 2 0 0 1 3 47 L 1503 47  A 2 2 0 0 1 1505 49 L 1505 3012  A 2 2 0 0 1 1503 3014 L 3 3014  A 2 2 0 0 1 1 3012 L 1 49  Z " fill-rule="nonzero" fill="#ffffff" stroke="none" />
    <path d="M 0.5 49  A 2.5 2.5 0 0 1 3 46.5 L 1503 46.5  A 2.5 2.5 0 0 1 1505.5 49 L 1505.5 3012  A 2.5 2.5 0 0 1 1503 3014.5 L 3 3014.5  A 2.5 2.5 0 0 1 0.5 3012 L 0.5 49  Z " stroke-width="1" stroke="#ec3d52" fill="none" stroke-opacity="0.188235294117647" />
  </g>
</svg>