<?xml version="1.0" encoding="utf-8"?>
<svg version="1.1" xmlns:xlink="http://www.w3.org/1999/xlink" width="17px" height="17px" viewBox="1308 1925  17 17" xmlns="http://www.w3.org/2000/svg">
  <path d="M 1316.5 1925  C 1321.26 1925  1325 1928.74  1325 1933.5  C 1325 1938.26  1321.26 1942  1316.5 1942  C 1311.74 1942  1308 1938.26  1308 1933.5  C 1308 1928.74  1311.74 1925  1316.5 1925  Z " fill-rule="nonzero" fill="#ffffff" stroke="none" />
  <path d="M 1316.5 1925.5  C 1320.98 1925.5  1324.5 1929.02  1324.5 1933.5  C 1324.5 1937.98  1320.98 1941.5  1316.5 1941.5  C 1312.02 1941.5  1308.5 1937.98  1308.5 1933.5  C 1308.5 1929.02  1312.02 1925.5  1316.5 1925.5  Z " stroke-width="1" stroke="#f60068" fill="none" />
  <path d="M 1316.5 1937.75  C 1314.12 1937.75  1312.25 1935.88  1312.25 1933.5  C 1312.25 1931.12  1314.12 1929.25  1316.5 1929.25  C 1318.88 1929.25  1320.75 1931.12  1320.75 1933.5  C 1320.75 1935.88  1318.88 1937.75  1316.5 1937.75  " fill-rule="nonzero" fill="#f60068" stroke="none" />
</svg>