<?xml version="1.0" encoding="utf-8"?>
<svg version="1.1" xmlns:xlink="http://www.w3.org/1999/xlink" width="17px" height="17px" viewBox="1308 1950  17 17" xmlns="http://www.w3.org/2000/svg">
  <path d="M 1316.5 1950  C 1321.26 1950  1325 1953.74  1325 1958.5  C 1325 1963.26  1321.26 1967  1316.5 1967  C 1311.74 1967  1308 1963.26  1308 1958.5  C 1308 1953.74  1311.74 1950  1316.5 1950  Z " fill-rule="nonzero" fill="#f0f0f0" stroke="none" />
  <path d="M 1316.5 1950.5  C 1320.98 1950.5  1324.5 1954.02  1324.5 1958.5  C 1324.5 1962.98  1320.98 1966.5  1316.5 1966.5  C 1312.02 1966.5  1308.5 1962.98  1308.5 1958.5  C 1308.5 1954.02  1312.02 1950.5  1316.5 1950.5  Z " stroke-width="1" stroke="#797979" fill="none" />
  <path d="M 1316.5 1962.75  C 1314.12 1962.75  1312.25 1960.88  1312.25 1958.5  C 1312.25 1956.12  1314.12 1954.25  1316.5 1954.25  C 1318.88 1954.25  1320.75 1956.12  1320.75 1958.5  C 1320.75 1960.88  1318.88 1962.75  1316.5 1962.75  " fill-rule="nonzero" fill="#797979" stroke="none" />
</svg>