<?xml version="1.0" encoding="utf-8"?>
<svg version="1.1" xmlns:xlink="http://www.w3.org/1999/xlink" width="17px" height="17px" viewBox="1299 1193  17 17" xmlns="http://www.w3.org/2000/svg">
  <path d="M 1307.5 1193  C 1312.26 1193  1316 1196.74  1316 1201.5  C 1316 1206.26  1312.26 1210  1307.5 1210  C 1302.74 1210  1299 1206.26  1299 1201.5  C 1299 1196.74  1302.74 1193  1307.5 1193  Z " fill-rule="nonzero" fill="#f0f0f0" stroke="none" />
  <path d="M 1307.5 1193.5  C 1311.98 1193.5  1315.5 1197.02  1315.5 1201.5  C 1315.5 1205.98  1311.98 1209.5  1307.5 1209.5  C 1303.02 1209.5  1299.5 1205.98  1299.5 1201.5  C 1299.5 1197.02  1303.02 1193.5  1307.5 1193.5  Z " stroke-width="1" stroke="#797979" fill="none" />
  <path d="M 1307.5 1205.75  C 1305.12 1205.75  1303.25 1203.88  1303.25 1201.5  C 1303.25 1199.12  1305.12 1197.25  1307.5 1197.25  C 1309.88 1197.25  1311.75 1199.12  1311.75 1201.5  C 1311.75 1203.88  1309.88 1205.75  1307.5 1205.75  " fill-rule="nonzero" fill="#797979" stroke="none" />
</svg>