<?xml version="1.0" encoding="utf-8"?>
<svg version="1.1" xmlns:xlink="http://www.w3.org/1999/xlink" width="17px" height="17px" viewBox="1299 1219  17 17" xmlns="http://www.w3.org/2000/svg">
  <path d="M 1307.5 1219  C 1312.26 1219  1316 1222.74  1316 1227.5  C 1316 1232.26  1312.26 1236  1307.5 1236  C 1302.74 1236  1299 1232.26  1299 1227.5  C 1299 1222.74  1302.74 1219  1307.5 1219  Z " fill-rule="nonzero" fill="#ffffff" stroke="none" />
  <path d="M 1307.5 1219.5  C 1311.98 1219.5  1315.5 1223.02  1315.5 1227.5  C 1315.5 1231.98  1311.98 1235.5  1307.5 1235.5  C 1303.02 1235.5  1299.5 1231.98  1299.5 1227.5  C 1299.5 1223.02  1303.02 1219.5  1307.5 1219.5  Z " stroke-width="1" stroke="#f60068" fill="none" />
  <path d="M 1307.5 1231.75  C 1305.12 1231.75  1303.25 1229.88  1303.25 1227.5  C 1303.25 1225.12  1305.12 1223.25  1307.5 1223.25  C 1309.88 1223.25  1311.75 1225.12  1311.75 1227.5  C 1311.75 1229.88  1309.88 1231.75  1307.5 1231.75  " fill-rule="nonzero" fill="#f60068" stroke="none" />
</svg>