<?xml version="1.0" encoding="utf-8"?>
<svg version="1.1" xmlns:xlink="http://www.w3.org/1999/xlink" width="1349px" height="75px" xmlns="http://www.w3.org/2000/svg">
  <g transform="matrix(1 0 0 1 -108 -3176 )">
    <path d="M 109 3181  A 4 4 0 0 1 113 3177 L 1452 3177  A 4 4 0 0 1 1456 3181 L 1456 3246  A 4 4 0 0 1 1452 3250 L 113 3250  A 4 4 0 0 1 109 3246 L 109 3181  Z " fill-rule="nonzero" fill="#ffffff" stroke="none" />
    <path d="M 108.5 3181  A 4.5 4.5 0 0 1 113 3176.5 L 1452 3176.5  A 4.5 4.5 0 0 1 1456.5 3181 L 1456.5 3246  A 4.5 4.5 0 0 1 1452 3250.5 L 113 3250.5  A 4.5 4.5 0 0 1 108.5 3246 L 108.5 3181  Z " stroke-width="1" stroke="#d7d7d7" fill="none" stroke-opacity="0.498039215686275" />
  </g>
</svg>