<?xml version="1.0" encoding="utf-8"?>
<svg version="1.1" xmlns:xlink="http://www.w3.org/1999/xlink" width="12px" height="12px" viewBox="1124 995  12 12" xmlns="http://www.w3.org/2000/svg">
  <path d="M 1124.5 998  A 2.5 2.5 0 0 1 1127 995.5 L 1133 995.5  A 2.5 2.5 0 0 1 1135.5 998 L 1135.5 1004  A 2.5 2.5 0 0 1 1133 1006.5 L 1127 1006.5  A 2.5 2.5 0 0 1 1124.5 1004 L 1124.5 998  Z " fill-rule="nonzero" fill="#ffffff" stroke="none" />
  <path d="M 1124.5 998  A 2.5 2.5 0 0 1 1127 995.5 L 1133 995.5  A 2.5 2.5 0 0 1 1135.5 998 L 1135.5 1004  A 2.5 2.5 0 0 1 1133 1006.5 L 1127 1006.5  A 2.5 2.5 0 0 1 1124.5 1004 L 1124.5 998  Z " stroke-width="1" stroke="#797979" fill="none" />
</svg>