<?xml version="1.0" encoding="utf-8"?>
<svg version="1.1" xmlns:xlink="http://www.w3.org/1999/xlink" width="1349px" height="511px" xmlns="http://www.w3.org/2000/svg">
  <g transform="matrix(1 0 0 1 -108 -225 )">
    <path d="M 109 230  A 4 4 0 0 1 113 226 L 1452 226  A 4 4 0 0 1 1456 230 L 1456 731  A 4 4 0 0 1 1452 735 L 113 735  A 4 4 0 0 1 109 731 L 109 230  Z " fill-rule="nonzero" fill="#ffffff" stroke="none" />
    <path d="M 108.5 230  A 4.5 4.5 0 0 1 113 225.5 L 1452 225.5  A 4.5 4.5 0 0 1 1456.5 230 L 1456.5 731  A 4.5 4.5 0 0 1 1452 735.5 L 113 735.5  A 4.5 4.5 0 0 1 108.5 731 L 108.5 230  Z " stroke-width="1" stroke="#d7d7d7" fill="none" stroke-opacity="0.349019607843137" />
  </g>
</svg>