<?xml version="1.0" encoding="utf-8"?>
<svg version="1.1" xmlns:xlink="http://www.w3.org/1999/xlink" width="12px" height="12px" viewBox="664 650  12 12" xmlns="http://www.w3.org/2000/svg">
  <path d="M 664.5 653  A 2.5 2.5 0 0 1 667 650.5 L 673 650.5  A 2.5 2.5 0 0 1 675.5 653 L 675.5 659  A 2.5 2.5 0 0 1 673 661.5 L 667 661.5  A 2.5 2.5 0 0 1 664.5 659 L 664.5 653  Z " fill-rule="nonzero" fill="#ffffff" stroke="none" />
  <path d="M 664.5 653  A 2.5 2.5 0 0 1 667 650.5 L 673 650.5  A 2.5 2.5 0 0 1 675.5 653 L 675.5 659  A 2.5 2.5 0 0 1 673 661.5 L 667 661.5  A 2.5 2.5 0 0 1 664.5 659 L 664.5 653  Z " stroke-width="1" stroke="#797979" fill="none" />
</svg>