<?xml version="1.0" encoding="utf-8"?>
<svg version="1.1" xmlns:xlink="http://www.w3.org/1999/xlink" width="12px" height="10px" xmlns="http://www.w3.org/2000/svg">
  <g transform="matrix(1 0 0 1 -882 -351 )">
    <path d="M 11.4390934844193 0  C 11.6770538243626 0  11.8441926345609 0.0923295454545459  11.9405099150142 0.276988636363636  C 12.0368271954674 0.471117424242423  11.9971671388102 0.63683712121212  11.8215297450425 0.774147727272727  L 7.63172804532578 4.27556818181818  L 7.63172804532578 9.54545454545455  C 7.63172804532578 9.74431818181818  7.52124645892351 9.88399621212121  7.30028328611898 9.96448863636364  C 7.22662889518414 9.98816287878788  7.15580736543909 10  7.08781869688385 10  C 6.93484419263456 10  6.80736543909349 9.95501893939394  6.70538243626062 9.86505681818182  L 4.52974504249292 8.046875  C 4.42209631728045 7.95691287878788  4.36827195467422 7.85037878787879  4.36827195467422 7.72727272727273  L 4.36827195467422 4.27556818181818  L 0.178470254957507 0.774147727272727  C 0.0028328611898017 0.63683712121212  -0.0368271954674221 0.471117424242423  0.0594900849858357 0.276988636363636  C 0.155807365439094 0.0923295454545459  0.322946175637394 0  0.560906515580737 0  L 11.4390934844193 0  Z " fill-rule="nonzero" fill="#fffdfb" stroke="none" transform="matrix(1 0 0 1 882 351 )" />
  </g>
</svg>