<?xml version="1.0" encoding="utf-8"?>
<svg version="1.1" xmlns:xlink="http://www.w3.org/1999/xlink" width="20px" height="18px" xmlns="http://www.w3.org/2000/svg">
  <g transform="matrix(1 0 0 1 -129 -311 )">
    <path d="M 4.61538461538462 13.5  L 4.61538461538462 16.5  L 15.3846153846154 16.5  L 15.3846153846154 13.5  L 4.61538461538462 13.5  Z M 4.61538461538462 1.5  L 4.61538461538462 9  L 15.3846153846154 9  L 15.3846153846154 4.5  L 13.4615384615385 4.5  C 13.1410256410256 4.5  12.8685897435897 4.390625  12.6442307692308 4.171875  C 12.4198717948718 3.953125  12.3076923076923 3.6875  12.3076923076923 3.375  L 12.3076923076923 1.5  L 4.61538461538462 1.5  Z M 18.2331730769231 10.27734375  C 18.3854166666667 10.12890625  18.4615384615385 9.953125  18.4615384615385 9.75  C 18.4615384615385 9.546875  18.3854166666667 9.37109375  18.2331730769231 9.22265625  C 18.0809294871795 9.07421875  17.900641025641 9  17.6923076923077 9  C 17.4839743589744 9  17.3036858974359 9.07421875  17.1514423076923 9.22265625  C 16.9991987179487 9.37109375  16.9230769230769 9.546875  16.9230769230769 9.75  C 16.9230769230769 9.953125  16.9991987179487 10.12890625  17.1514423076923 10.27734375  C 17.3036858974359 10.42578125  17.4839743589744 10.5  17.6923076923077 10.5  C 17.900641025641 10.5  18.0809294871795 10.42578125  18.2331730769231 10.27734375  Z M 19.3209134615385 8.162109375  C 19.7736378205128 8.603515625  20 9.1328125  20 9.75  L 20 14.625  C 20 14.7265625  19.9619391025641 14.814453125  19.8858173076923 14.888671875  C 19.8096955128205 14.962890625  19.7195512820513 15  19.6153846153846 15  L 16.9230769230769 15  L 16.9230769230769 16.875  C 16.9230769230769 17.1875  16.8108974358974 17.453125  16.5865384615385 17.671875  C 16.3621794871795 17.890625  16.0897435897436 18  15.7692307692308 18  L 4.23076923076923 18  C 3.91025641025641 18  3.63782051282051 17.890625  3.41346153846154 17.671875  C 3.18910256410256 17.453125  3.07692307692308 17.1875  3.07692307692308 16.875  L 3.07692307692308 15  L 0.384615384615385 15  C 0.280448717948718 15  0.190304487179487 14.962890625  0.114182692307692 14.888671875  C 0.0380608974358974 14.814453125  0 14.7265625  0 14.625  L 0 9.75  C 0 9.1328125  0.226362179487179 8.603515625  0.679086538461538 8.162109375  C 1.1318108974359 7.720703125  1.67467948717949 7.5  2.30769230769231 7.5  L 3.07692307692308 7.5  L 3.07692307692308 1.125  C 3.07692307692308 0.812499999999999  3.18910256410256 0.546874999999998  3.41346153846154 0.328124999999999  C 3.63782051282051 0.109374999999999  3.91025641025641 0  4.23076923076923 0  L 12.3076923076923 0  C 12.6282051282051 0  12.9807692307692 0.0781249999999982  13.3653846153846 0.234375000000001  C 13.75 0.390624999999999  14.0544871794872 0.578124999999998  14.2788461538462 0.796875000000001  L 16.1057692307692 2.578125  C 16.3301282051282 2.796875  16.5224358974359 3.09375  16.6826923076923 3.46875  C 16.8429487179487 3.84375  16.9230769230769 4.1875  16.9230769230769 4.5  L 16.9230769230769 7.5  L 17.6923076923077 7.5  C 18.3253205128205 7.5  18.8681891025641 7.720703125  19.3209134615385 8.162109375  Z " fill-rule="nonzero" fill="#d42d00" stroke="none" transform="matrix(1 0 0 1 129 311 )" />
  </g>
</svg>