<?xml version="1.0" encoding="utf-8"?>
<svg version="1.1" xmlns:xlink="http://www.w3.org/1999/xlink" width="1372px" height="1438px" xmlns="http://www.w3.org/2000/svg">
  <g transform="matrix(1 0 0 1 0 -1675 )">
    <path d="M 1 1680  A 4 4 0 0 1 5 1676 L 1367 1676  A 4 4 0 0 1 1371 1680 L 1371 3108  A 4 4 0 0 1 1367 3112 L 5 3112  A 4 4 0 0 1 1 3108 L 1 1680  Z " fill-rule="nonzero" fill="#ffffff" stroke="none" />
    <path d="M 0.5 1680  A 4.5 4.5 0 0 1 5 1675.5 L 1367 1675.5  A 4.5 4.5 0 0 1 1371.5 1680 L 1371.5 3108  A 4.5 4.5 0 0 1 1367 3112.5 L 5 3112.5  A 4.5 4.5 0 0 1 0.5 3108 L 0.5 1680  Z " stroke-width="1" stroke="#f60068" fill="none" stroke-opacity="0.498039215686275" />
  </g>
</svg>