<?xml version="1.0" encoding="utf-8"?>
<svg version="1.1" xmlns:xlink="http://www.w3.org/1999/xlink" width="12px" height="12px" viewBox="1245 1184  12 12" xmlns="http://www.w3.org/2000/svg">
  <path d="M 1245.5 1187  A 2.5 2.5 0 0 1 1248 1184.5 L 1254 1184.5  A 2.5 2.5 0 0 1 1256.5 1187 L 1256.5 1193  A 2.5 2.5 0 0 1 1254 1195.5 L 1248 1195.5  A 2.5 2.5 0 0 1 1245.5 1193 L 1245.5 1187  Z " fill-rule="nonzero" fill="#ffffff" stroke="none" />
  <path d="M 1245.5 1187  A 2.5 2.5 0 0 1 1248 1184.5 L 1254 1184.5  A 2.5 2.5 0 0 1 1256.5 1187 L 1256.5 1193  A 2.5 2.5 0 0 1 1254 1195.5 L 1248 1195.5  A 2.5 2.5 0 0 1 1245.5 1193 L 1245.5 1187  Z " stroke-width="1" stroke="#f60068" fill="none" />
  <path d="M 1247.57142857143 1190  L 1250.14285714286 1192.57142857143  " stroke-width="2.57142857142857" stroke="#f60068" fill="none" />
  <path d="M 1250.14285714286 1192.57142857143  L 1254.42857142857 1186.57142857143  " stroke-width="2.57142857142857" stroke="#f60068" fill="none" />
</svg>