<?xml version="1.0" encoding="utf-8"?>
<svg version="1.1" xmlns:xlink="http://www.w3.org/1999/xlink" width="12px" height="12px" viewBox="1246 397  12 12" xmlns="http://www.w3.org/2000/svg">
  <path d="M 1246.5 400  A 2.5 2.5 0 0 1 1249 397.5 L 1255 397.5  A 2.5 2.5 0 0 1 1257.5 400 L 1257.5 406  A 2.5 2.5 0 0 1 1255 408.5 L 1249 408.5  A 2.5 2.5 0 0 1 1246.5 406 L 1246.5 400  Z " fill-rule="nonzero" fill="#ffffff" stroke="none" />
  <path d="M 1246.5 400  A 2.5 2.5 0 0 1 1249 397.5 L 1255 397.5  A 2.5 2.5 0 0 1 1257.5 400 L 1257.5 406  A 2.5 2.5 0 0 1 1255 408.5 L 1249 408.5  A 2.5 2.5 0 0 1 1246.5 406 L 1246.5 400  Z " stroke-width="1" stroke="#797979" fill="none" />
</svg>