<?xml version="1.0" encoding="utf-8"?>
<svg version="1.1" xmlns:xlink="http://www.w3.org/1999/xlink" width="15px" height="11px" xmlns="http://www.w3.org/2000/svg">
  <defs>
    <mask fill="white" id="clip1">
      <path d="M 14.814453125 8.96328125  C 14.9381510416667 9.07213541666667  15 9.20104166666667  15 9.35  L 15 10.45  C 15 10.5989583333333  14.9381510416667 10.7278645833333  14.814453125 10.83671875  C 14.6907552083333 10.9455729166667  14.5442708333333 11  14.375 11  L 0.625 11  C 0.455729166666667 11  0.309244791666667 10.9455729166667  0.185546875 10.83671875  C 0.0618489583333333 10.7278645833333  0 10.5989583333333  0 10.45  L 0 9.35  C 0 9.20104166666667  0.0618489583333333 9.07213541666667  0.185546875 8.96328125  C 0.309244791666667 8.85442708333333  0.455729166666667 8.8  0.625 8.8  L 14.375 8.8  C 14.5442708333333 8.8  14.6907552083333 8.85442708333333  14.814453125 8.96328125  Z M 14.814453125 4.56328125  C 14.9381510416667 4.67213541666667  15 4.80104166666667  15 4.95  L 15 6.05  C 15 6.19895833333333  14.9381510416667 6.32786458333333  14.814453125 6.43671875  C 14.6907552083333 6.54557291666667  14.5442708333333 6.6  14.375 6.6  L 0.625 6.6  C 0.455729166666667 6.6  0.309244791666667 6.54557291666667  0.185546875 6.43671875  C 0.0618489583333333 6.32786458333333  0 6.19895833333333  0 6.05  L 0 4.95  C 0 4.80104166666667  0.0618489583333333 4.67213541666667  0.185546875 4.56328125  C 0.309244791666667 4.45442708333333  0.455729166666667 4.4  0.625 4.4  L 14.375 4.4  C 14.5442708333333 4.4  14.6907552083333 4.45442708333333  14.814453125 4.56328125  Z M 14.814453125 0.16328125  C 14.9381510416667 0.272135416666666  15 0.401041666666666  15 0.55  L 15 1.65  C 15 1.79895833333333  14.9381510416667 1.92786458333333  14.814453125 2.03671875  C 14.6907552083333 2.14557291666667  14.5442708333333 2.2  14.375 2.2  L 0.625 2.2  C 0.455729166666667 2.2  0.309244791666667 2.14557291666667  0.185546875 2.03671875  C 0.0618489583333333 1.92786458333333  0 1.79895833333333  0 1.65  L 0 0.55  C 0 0.401041666666666  0.0618489583333333 0.272135416666666  0.185546875 0.16328125  C 0.309244791666667 0.0544270833333327  0.455729166666667 0  0.625 0  L 14.375 0  C 14.5442708333333 0  14.6907552083333 0.0544270833333327  14.814453125 0.16328125  Z " fill-rule="evenodd" />
    </mask>
  </defs>
  <g transform="matrix(1 0 0 1 -126 -253 )">
    <path d="M 14.814453125 8.96328125  C 14.9381510416667 9.07213541666667  15 9.20104166666667  15 9.35  L 15 10.45  C 15 10.5989583333333  14.9381510416667 10.7278645833333  14.814453125 10.83671875  C 14.6907552083333 10.9455729166667  14.5442708333333 11  14.375 11  L 0.625 11  C 0.455729166666667 11  0.309244791666667 10.9455729166667  0.185546875 10.83671875  C 0.0618489583333333 10.7278645833333  0 10.5989583333333  0 10.45  L 0 9.35  C 0 9.20104166666667  0.0618489583333333 9.07213541666667  0.185546875 8.96328125  C 0.309244791666667 8.85442708333333  0.455729166666667 8.8  0.625 8.8  L 14.375 8.8  C 14.5442708333333 8.8  14.6907552083333 8.85442708333333  14.814453125 8.96328125  Z M 14.814453125 4.56328125  C 14.9381510416667 4.67213541666667  15 4.80104166666667  15 4.95  L 15 6.05  C 15 6.19895833333333  14.9381510416667 6.32786458333333  14.814453125 6.43671875  C 14.6907552083333 6.54557291666667  14.5442708333333 6.6  14.375 6.6  L 0.625 6.6  C 0.455729166666667 6.6  0.309244791666667 6.54557291666667  0.185546875 6.43671875  C 0.0618489583333333 6.32786458333333  0 6.19895833333333  0 6.05  L 0 4.95  C 0 4.80104166666667  0.0618489583333333 4.67213541666667  0.185546875 4.56328125  C 0.309244791666667 4.45442708333333  0.455729166666667 4.4  0.625 4.4  L 14.375 4.4  C 14.5442708333333 4.4  14.6907552083333 4.45442708333333  14.814453125 4.56328125  Z M 14.814453125 0.16328125  C 14.9381510416667 0.272135416666666  15 0.401041666666666  15 0.55  L 15 1.65  C 15 1.79895833333333  14.9381510416667 1.92786458333333  14.814453125 2.03671875  C 14.6907552083333 2.14557291666667  14.5442708333333 2.2  14.375 2.2  L 0.625 2.2  C 0.455729166666667 2.2  0.309244791666667 2.14557291666667  0.185546875 2.03671875  C 0.0618489583333333 1.92786458333333  0 1.79895833333333  0 1.65  L 0 0.55  C 0 0.401041666666666  0.0618489583333333 0.272135416666666  0.185546875 0.16328125  C 0.309244791666667 0.0544270833333327  0.455729166666667 0  0.625 0  L 14.375 0  C 14.5442708333333 0  14.6907552083333 0.0544270833333327  14.814453125 0.16328125  Z " fill-rule="nonzero" fill="#ffffff" stroke="none" fill-opacity="0.0235294117647059" transform="matrix(1 0 0 1 126 253 )" />
    <path d="M 14.814453125 8.96328125  C 14.9381510416667 9.07213541666667  15 9.20104166666667  15 9.35  L 15 10.45  C 15 10.5989583333333  14.9381510416667 10.7278645833333  14.814453125 10.83671875  C 14.6907552083333 10.9455729166667  14.5442708333333 11  14.375 11  L 0.625 11  C 0.455729166666667 11  0.309244791666667 10.9455729166667  0.185546875 10.83671875  C 0.0618489583333333 10.7278645833333  0 10.5989583333333  0 10.45  L 0 9.35  C 0 9.20104166666667  0.0618489583333333 9.07213541666667  0.185546875 8.96328125  C 0.309244791666667 8.85442708333333  0.455729166666667 8.8  0.625 8.8  L 14.375 8.8  C 14.5442708333333 8.8  14.6907552083333 8.85442708333333  14.814453125 8.96328125  Z " stroke-width="4" stroke="#f60068" fill="none" transform="matrix(1 0 0 1 126 253 )" mask="url(#clip1)" />
    <path d="M 14.814453125 4.56328125  C 14.9381510416667 4.67213541666667  15 4.80104166666667  15 4.95  L 15 6.05  C 15 6.19895833333333  14.9381510416667 6.32786458333333  14.814453125 6.43671875  C 14.6907552083333 6.54557291666667  14.5442708333333 6.6  14.375 6.6  L 0.625 6.6  C 0.455729166666667 6.6  0.309244791666667 6.54557291666667  0.185546875 6.43671875  C 0.0618489583333333 6.32786458333333  0 6.19895833333333  0 6.05  L 0 4.95  C 0 4.80104166666667  0.0618489583333333 4.67213541666667  0.185546875 4.56328125  C 0.309244791666667 4.45442708333333  0.455729166666667 4.4  0.625 4.4  L 14.375 4.4  C 14.5442708333333 4.4  14.6907552083333 4.45442708333333  14.814453125 4.56328125  Z " stroke-width="4" stroke="#f60068" fill="none" transform="matrix(1 0 0 1 126 253 )" mask="url(#clip1)" />
    <path d="M 14.814453125 0.16328125  C 14.9381510416667 0.272135416666666  15 0.401041666666666  15 0.55  L 15 1.65  C 15 1.79895833333333  14.9381510416667 1.92786458333333  14.814453125 2.03671875  C 14.6907552083333 2.14557291666667  14.5442708333333 2.2  14.375 2.2  L 0.625 2.2  C 0.455729166666667 2.2  0.309244791666667 2.14557291666667  0.185546875 2.03671875  C 0.0618489583333333 1.92786458333333  0 1.79895833333333  0 1.65  L 0 0.55  C 0 0.401041666666666  0.0618489583333333 0.272135416666666  0.185546875 0.16328125  C 0.309244791666667 0.0544270833333327  0.455729166666667 0  0.625 0  L 14.375 0  C 14.5442708333333 0  14.6907552083333 0.0544270833333327  14.814453125 0.16328125  Z " stroke-width="4" stroke="#f60068" fill="none" transform="matrix(1 0 0 1 126 253 )" mask="url(#clip1)" />
  </g>
</svg>