<?xml version="1.0" encoding="utf-8"?>
<svg version="1.1" xmlns:xlink="http://www.w3.org/1999/xlink" width="18px" height="14px" xmlns="http://www.w3.org/2000/svg">
  <g transform="matrix(1 0 0 1 -114 -297 )">
    <path d="M 1.2 12.6  L 8.4 12.6  L 11.55 8.4  L 4.35 8.4  L 1.2 12.6  Z M 17.4515625 0.22421875  C 17.6484375 0.373697916666666  17.796875 0.572395833333332  17.896875 0.8203125  C 17.990625 1.06822916666667  18.0203125 1.32890625  17.9859375 1.60234375  C 17.9515625 1.87578125  17.85625 2.11458333333333  17.7 2.31875  L 9.3 13.51875  C 9.0625 13.8395833333333  8.7625 14  8.4 14  L 1.2 14  C 0.9625 14  0.7453125 13.9252604166667  0.5484375 13.77578125  C 0.3515625 13.6263020833333  0.203125 13.4276041666667  0.103125 13.1796875  C 0.009375 12.9317708333333  -0.0203125 12.67109375  0.0140625 12.39765625  C 0.0484375 12.12421875  0.14375 11.8854166666667  0.3 11.68125  L 8.7 0.481250000000001  C 8.9375 0.160416666666665  9.2375 0  9.6 0  L 16.8 0  C 17.0375 0  17.2546875 0.0747395833333322  17.4515625 0.22421875  Z " fill-rule="nonzero" fill="#d9001b" stroke="none" transform="matrix(1 0 0 1 114 297 )" />
  </g>
</svg>