<?xml version="1.0" encoding="utf-8"?>
<svg version="1.1" xmlns:xlink="http://www.w3.org/1999/xlink" width="18px" height="14px" xmlns="http://www.w3.org/2000/svg">
  <g transform="matrix(1 0 0 1 -114 -157 )">
    <path d="M 4.8 5  C 4.8 5.72395833333333  5.053125 6.390625  5.559375 7  C 4.546875 7.02604166666667  3.71875 7.359375  3.075 8  L 1.81875 8  C 1.30625 8  0.875 7.89453125  0.525 7.68359375  C 0.175 7.47265625  0 7.1640625  0 6.7578125  C 0 4.91927083333333  0.3875 4  1.1625 4  C 1.2 4  1.3359375 4.0546875  1.5703125 4.1640625  C 1.8046875 4.2734375  2.109375 4.38411458333333  2.484375 4.49609375  C 2.859375 4.60807291666667  3.23125 4.6640625  3.6 4.6640625  C 4.01875 4.6640625  4.434375 4.60416666666667  4.846875 4.484375  C 4.815625 4.67708333333333  4.8 4.84895833333333  4.8 5  Z M 15.5671875 11.16796875  C 15.5890625 11.4309895833333  15.6 11.7005208333333  15.6 11.9765625  C 15.6 12.6015625  15.371875 13.0950520833333  14.915625 13.45703125  C 14.459375 13.8190104166667  13.853125 14  13.096875 14  L 4.903125 14  C 4.146875 14  3.540625 13.8190104166667  3.084375 13.45703125  C 2.628125 13.0950520833333  2.4 12.6015625  2.4 11.9765625  C 2.4 11.7005208333333  2.4109375 11.4309895833333  2.4328125 11.16796875  C 2.4546875 10.9049479166667  2.4984375 10.62109375  2.5640625 10.31640625  C 2.6296875 10.01171875  2.7125 9.72916666666667  2.8125 9.46875  C 2.9125 9.20833333333333  3.046875 8.95442708333333  3.215625 8.70703125  C 3.384375 8.45963541666667  3.578125 8.24869791666667  3.796875 8.07421875  C 4.015625 7.89973958333333  4.2828125 7.76041666666667  4.5984375 7.65625  C 4.9140625 7.55208333333333  5.2625 7.5  5.64375 7.5  C 5.70625 7.5  5.840625 7.55598958333333  6.046875 7.66796875  C 6.253125 7.77994791666667  6.48125 7.90494791666667  6.73125 8.04296875  C 6.98125 8.18098958333333  7.315625 8.30598958333333  7.734375 8.41796875  C 8.153125 8.52994791666667  8.575 8.5859375  9 8.5859375  C 9.425 8.5859375  9.846875 8.52994791666667  10.265625 8.41796875  C 10.684375 8.30598958333333  11.01875 8.18098958333333  11.26875 8.04296875  C 11.51875 7.90494791666667  11.746875 7.77994791666667  11.953125 7.66796875  C 12.159375 7.55598958333333  12.29375 7.5  12.35625 7.5  C 12.7375 7.5  13.0859375 7.55208333333333  13.4015625 7.65625  C 13.7171875 7.76041666666667  13.984375 7.89973958333333  14.203125 8.07421875  C 14.421875 8.24869791666667  14.615625 8.45963541666667  14.784375 8.70703125  C 14.953125 8.95442708333333  15.0875 9.20833333333333  15.1875 9.46875  C 15.2875 9.72916666666667  15.3703125 10.01171875  15.4359375 10.31640625  C 15.5015625 10.62109375  15.5453125 10.9049479166667  15.5671875 11.16796875  Z M 5.296875 0.5859375  C 5.765625 0.9765625  6 1.44791666666667  6 2  C 6 2.55208333333333  5.765625 3.0234375  5.296875 3.4140625  C 4.828125 3.8046875  4.2625 4  3.6 4  C 2.9375 4  2.371875 3.8046875  1.903125 3.4140625  C 1.434375 3.0234375  1.2 2.55208333333333  1.2 2  C 1.2 1.44791666666667  1.434375 0.9765625  1.903125 0.5859375  C 2.371875 0.195312500000001  2.9375 0  3.6 0  C 4.2625 0  4.828125 0.195312500000001  5.296875 0.5859375  Z M 11.5453125 2.87890625  C 12.2484375 3.46484375  12.6 4.171875  12.6 5  C 12.6 5.828125  12.2484375 6.53515625  11.5453125 7.12109375  C 10.8421875 7.70703125  9.99375 8  9 8  C 8.00625 8  7.1578125 7.70703125  6.4546875 7.12109375  C 5.7515625 6.53515625  5.4 5.828125  5.4 5  C 5.4 4.171875  5.7515625 3.46484375  6.4546875 2.87890625  C 7.1578125 2.29296875  8.00625 2  9 2  C 9.99375 2  10.8421875 2.29296875  11.5453125 2.87890625  Z M 16.8375 4  C 17.6125 4  18 4.91927083333333  18 6.7578125  C 18 7.1640625  17.825 7.47265625  17.475 7.68359375  C 17.125 7.89453125  16.69375 8  16.18125 8  L 14.925 8  C 14.28125 7.359375  13.453125 7.02604166666667  12.440625 7  C 12.946875 6.390625  13.2 5.72395833333333  13.2 5  C 13.2 4.84895833333333  13.184375 4.67708333333333  13.153125 4.484375  C 13.565625 4.60416666666667  13.98125 4.6640625  14.4 4.6640625  C 14.76875 4.6640625  15.140625 4.60807291666667  15.515625 4.49609375  C 15.890625 4.38411458333333  16.1953125 4.2734375  16.4296875 4.1640625  C 16.6640625 4.0546875  16.8 4  16.8375 4  Z M 16.096875 0.5859375  C 16.565625 0.9765625  16.8 1.44791666666667  16.8 2  C 16.8 2.55208333333333  16.565625 3.0234375  16.096875 3.4140625  C 15.628125 3.8046875  15.0625 4  14.4 4  C 13.7375 4  13.171875 3.8046875  12.703125 3.4140625  C 12.234375 3.0234375  12 2.55208333333333  12 2  C 12 1.44791666666667  12.234375 0.9765625  12.703125 0.5859375  C 13.171875 0.195312500000001  13.7375 0  14.4 0  C 15.0625 0  15.628125 0.195312500000001  16.096875 0.5859375  Z " fill-rule="nonzero" fill="#7b4848" stroke="none" transform="matrix(1 0 0 1 114 157 )" />
  </g>
</svg>