<?xml version="1.0" encoding="utf-8"?>
<svg version="1.1" xmlns:xlink="http://www.w3.org/1999/xlink" width="18px" height="14px" xmlns="http://www.w3.org/2000/svg">
  <g transform="matrix(1 0 0 1 -113 -227 )">
    <path d="M 17.6152512998267 11.3633737723859  C 17.8717504332756 11.5736568457539  18 11.8189870980166  18 12.0993645291739  C 18 12.3851338340073  17.8717504332756 12.6277681494319  17.6152512998267 12.8272674754477  L 16.5025996533796 13.7007510109763  C 16.2322357019064 13.9002503369921  15.9168110918544 14  15.5563258232236 14  C 15.1889081455806 14  14.8769497400347 13.9002503369921  14.6204506065858 13.7007510109763  L 10.8457538994801 10.7567879838244  C 10.5823223570191 10.5626805314847  10.4506065857886 10.3200462160601  10.4506065857886 10.0288850375505  C 10.4506065857886 9.74311573271712  10.5996533795494 9.4843057962642  10.8977469670711 9.2524552281918  L 8.23570190641248 7.18197573656846  L 6.92547660311958 8.20103986135182  C 6.82842287694974 8.27652609281725  6.7105719237435 8.31426920854997  6.57192374350087 8.31426920854997  C 6.43327556325823 8.31426920854997  6.31542461005199 8.27652609281725  6.21837088388215 8.20103986135182  C 6.23223570190641 8.21182360870402  6.27556325823224 8.24417485076064  6.34835355285962 8.29809358752166  C 6.421143847487 8.35201232428269  6.46447140381283 8.38705950317735  6.47833622183709 8.40323512420566  C 6.49220103986135 8.41941074523397  6.52686308492201 8.45041401887156  6.58232235701906 8.49624494511843  C 6.63778162911612 8.5420758713653  6.67244367417678 8.57847101867899  6.68630849220104 8.6054303870595  C 6.7001733102253 8.63238975544001  6.7209705372617 8.66878490275371  6.74870017331023 8.71461582900058  C 6.77642980935875 8.76044675524745  6.79549393414211 8.80492971307529  6.80589254766031 8.84806470248411  C 6.81629116117851 8.89119969189293  6.82149046793761 8.93972655497785  6.82149046793761 8.99364529173888  C 6.82149046793761 9.19853649143077  6.72443674176777 9.38186019641826  6.53032928942808 9.54361640670133  C 6.50953206239168 9.55979202772964  6.45233968804159 9.60831889081456  6.35875216637782 9.6891969959561  C 6.26516464471404 9.77007510109763  6.19930675909879 9.82534180627768  6.16117850953206 9.85499711149624  C 6.12305025996534 9.88465241671481  6.05892547660312 9.92913537454265  5.96880415944541 9.98844598497978  C 5.8786828422877 10.0477565954169  5.80242634315425 10.0895436164067  5.74003466204506 10.1138070479492  C 5.67764298093588 10.1380704794916  5.60138648180243 10.1623339110341  5.51126516464471 10.1865973425765  C 5.421143847487 10.210860774119  5.33102253032929 10.2229924898902  5.24090121317158 10.2229924898902  C 4.96360485268631 10.2229924898902  4.72790294627383 10.1475062584248  4.53379549393414 9.99653379549393  L 0.291161178509532 6.69670710571924  C 0.097053726169844 6.54573464278837  0 6.36241093780089  0 6.14673599075679  C 0 6.07664163296746  0.0155979202772964 6.00654727517812  0.0467937608318891 5.93645291738879  C 0.0779896013864818 5.86635855959946  0.109185441941075 5.80704794916233  0.140381282495667 5.75852108607741  C 0.17157712305026 5.70999422299249  0.225303292894281 5.65068361255536  0.30155979202773 5.58058925476603  C 0.377816291161179 5.5104948969767  0.435008665511265 5.46062006547275  0.47313691507799 5.43096476025419  C 0.511265164644714 5.40130945503562  0.582322357019064 5.35008665511265  0.68630849220104 5.27729636048527  C 0.790294627383016 5.20450606585788  0.852686308492201 5.16002310803004  0.873483535528596 5.14384748700173  C 1.08145580589255 4.99287502407086  1.31715771230503 4.91738879260543  1.58058925476603 4.91738879260543  C 1.64991334488735 4.91738879260543  1.71230502599653 4.92143269786251  1.76776429809359 4.92952050837666  C 1.82322357019064 4.93760831889082  1.88041594454073 4.9524359715001  1.93934142114385 4.97400346620451  C 1.99826689774697 4.99557096090891  2.04506065857886 5.01174658193722  2.07972270363951 5.02253032928943  C 2.11438474870017 5.03331407664163  2.16117850953206 5.06027344502214  2.22010398613518 5.10340843443096  C 2.2790294627383 5.14654342383978  2.31889081455806 5.1735027922203  2.33968804159445 5.1842865395725  C 2.36048526863085 5.19507028692471  2.40554592720971 5.22876949740035  2.47487001733102 5.28538417099942  C 2.54419410745234 5.3419988445985  2.58578856152513 5.37569805507414  2.59965337954939 5.38648180242634  C 2.50259965337955 5.31099557096091  2.45407279029463 5.21933371846717  2.45407279029463 5.11149624494512  C 2.45407279029463 5.00365877142307  2.50259965337955 4.91199691892933  2.59965337954939 4.83651068746389  L 6.21837088388215 2.02195262853842  C 6.31542461005199 1.94646639707298  6.43327556325823 1.90872328134027  6.57192374350087 1.90872328134027  C 6.7105719237435 1.90872328134027  6.82842287694974 1.94646639707298  6.92547660311958 2.02195262853842  C 6.91161178509532 2.01116888118621  6.8682842287695 1.9788176391296  6.79549393414211 1.92489890236857  C 6.72270363951473 1.87098016560755  6.67937608318891 1.83593298671288  6.66551126516465 1.81975736568458  C 6.65164644714038 1.80358174465627  6.61698440207972 1.77257847101868  6.56152512998267 1.72674754477181  C 6.50606585788562 1.68091661852494  6.47140381282496 1.64452147121124  6.45753899480069 1.61756210283073  C 6.44367417677643 1.59060273445022  6.42287694974004 1.55420758713653  6.39514731369151 1.50837666088966  C 6.36741767764298 1.46254573464279  6.34835355285962 1.41806277681494  6.33795493934142 1.37492778740612  C 6.32755632582322 1.3317927979973  6.32235701906412 1.28326593491238  6.32235701906412 1.22934719815136  C 6.32235701906412 1.02445599845946  6.41941074523397 0.841132293471981  6.61351819757366 0.679376083188909  C 6.63431542461005 0.663200462160601  6.69150779896014 0.614673599075679  6.78509532062392 0.533795493934142  C 6.8786828422877 0.452917388792605  6.94454072790295 0.397650683612554  6.98266897746967 0.367995378393992  C 7.0207972270364 0.338340073175428  7.08492201039861 0.293857115347582  7.17504332755633 0.234546504910456  C 7.26516464471404 0.175235894473328  7.34142114384749 0.133448873483536  7.40381282495667 0.109185441941075  C 7.46620450606586 0.0849220103986128  7.54246100519931 0.060658578856152  7.63258232235702 0.0363951473136912  C 7.72270363951473 0.0121317157712304  7.81282495667244 0  7.90294627383016 0  C 8.18024263431542 0  8.4159445407279 0.0754862314654334  8.61005199306759 0.226458694396303  L 12.8526863084922 3.526285384171  C 13.0467937608319 3.67725784710187  13.1438474870017 3.86058155208935  13.1438474870017 4.07625649913345  C 13.1438474870017 4.14635085692278  13.1282495667244 4.21644521471211  13.0970537261698 4.28653957250144  C 13.0658578856153 4.35663393029077  13.0346620450607 4.4159445407279  13.0034662045061 4.46447140381282  C 12.9722703639515 4.51299826689775  12.9185441941075 4.57230887733487  12.842287694974 4.64240323512421  C 12.7660311958406 4.71249759291354  12.7088388214905 4.76237242441748  12.6707105719237 4.79202772963605  C 12.632582322357 4.82168303485461  12.5615251299827 4.87290583477759  12.4575389948007 4.94569612940497  C 12.3535528596187 5.01848642403235  12.2911611785095 5.0629693818602  12.2703639514731 5.0791450028885  C 12.0623916811092 5.23011746581937  11.8266897746967 5.30560369728481  11.5632582322357 5.30560369728481  C 11.4939341421144 5.30560369728481  11.4315424610052 5.30155979202773  11.3760831889081 5.29347198151358  C 11.3206239168111 5.28538417099942  11.263431542461 5.27055651839014  11.2045060658579 5.24898902368573  C 11.1455805892548 5.22742152898132  11.0987868284229 5.21124590795301  11.0641247833622 5.20046216060081  C 11.0294627383016 5.1896784132486  10.9826689774697 5.16271904486809  10.9237435008666 5.11958405545927  C 10.8648180242634 5.07644906605045  10.8249566724437 5.04948969766994  10.8041594454073 5.03870595031774  C 10.7833622183709 5.02792220296553  10.738301559792 4.99422299248989  10.6689774696707 4.93760831889082  C 10.5996533795494 4.88099364529174  10.5580589254766 4.8472944348161  10.5441941074523 4.83651068746389  C 10.6412478336222 4.91199691892933  10.6897746967071 5.00365877142307  10.6897746967071 5.11149624494512  C 10.6897746967071 5.21933371846717  10.6412478336222 5.31099557096091  10.5441941074523 5.38648180242634  L 9.23396880415945 6.40554592720971  L 11.896013864818 8.47602541883305  C 12.1941074523397 8.24417485076064  12.526863084922 8.12824956672444  12.894280762565 8.12824956672444  C 13.2547660311958 8.12824956672444  13.5701906412478 8.22799922973233  13.840554592721 8.42749855574812  L 17.6152512998267 11.3633737723859  Z " fill-rule="nonzero" fill="#ff00c7" stroke="none" fill-opacity="0.584313725490196" transform="matrix(1 0 0 1 113 227 )" />
  </g>
</svg>