<?xml version="1.0" encoding="utf-8"?>
<svg version="1.1" xmlns:xlink="http://www.w3.org/1999/xlink" width="18px" height="14px" xmlns="http://www.w3.org/2000/svg">
  <g transform="matrix(1 0 0 1 -114 -192 )">
    <path d="M 13.1986607142857 2.53371185237757  C 13.828125 3.31535367873196  14.1428571428571 4.16654837946534  14.1428571428571 5.08729595457771  C 14.1428571428571 6.00804352969009  13.828125 6.85923823042347  13.1986607142857 7.64088005677786  C 12.5691964285714 8.42252188313224  11.7103794642857 9.04021764845044  10.6222098214286 9.49396735273243  C 9.53404017857143 9.94771705701443  8.35044642857143 10.1745919091554  7.07142857142857 10.1745919091554  C 6.49553571428572 10.1745919091554  5.90625 10.1215992429619  5.30357142857143 10.0156139105749  C 4.47321428571429 10.5985332387036  3.54241071428571 11.0224745682517  2.51116071428571 11.2874378992193  C 2.27008928571429 11.347054648687  1.98214285714286 11.4000473148805  1.64732142857143 11.4464158977999  L 1.6171875 11.4464158977999  C 1.54352678571429 11.4464158977999  1.47488839285714 11.4199195647031  1.41127232142857 11.3669268985096  C 1.34765625 11.3139342323161  1.30915178571429 11.2443813579371  1.29575892857143 11.1582682753726  C 1.2890625 11.13839602555  1.28571428571429 11.1168677549089  1.28571428571429 11.0936834634493  C 1.28571428571429 11.0704991719896  1.28738839285714 11.0489709013485  1.29073660714286 11.0290986515259  C 1.29408482142857 11.0092264017033  1.30078125 10.9893541518808  1.31082589285714 10.9694819020582  L 1.3359375 10.9198012775018  C 1.3359375 10.9198012775018  1.34765625 10.9015850484978  1.37109375 10.8651525904897  C 1.39453125 10.8287201324817  1.40792410714286 10.8121599242962  1.41127232142857 10.8154719659333  C 1.41462053571429 10.8187840075704  1.4296875 10.8022237993849  1.45647321428571 10.7657913413769  C 1.48325892857143 10.7293588833688  1.49665178571429 10.7144546960019  1.49665178571429 10.7210787792761  C 1.53013392857143 10.6813342796309  1.60714285714286 10.5985332387036  1.72767857142857 10.472675656494  C 1.84821428571429 10.3468180742844  1.93526785714286 10.2491128459901  1.98883928571429 10.1795599716111  C 2.04241071428571 10.1100070972321  2.11774553571429 10.0139578897563  2.21484375 9.89141234918382  C 2.31194196428571 9.76886680861131  2.39564732142857 9.64135320558315  2.46595982142857 9.50887154009936  C 2.53627232142857 9.37638987461557  2.60491071428571 9.23066004258339  2.671875 9.07168204400284  C 1.84151785714286 8.59474804826118  1.18861607142857 8.00851667849539  0.713169642857143 7.31298793470546  C 0.237723214285714 6.61745919091554  0 5.87556186420629  0 5.08729595457771  C 0 4.16654837946534  0.314732142857143 3.31535367873196  0.944196428571429 2.53371185237757  C 1.57366071428571 1.75207002602318  2.43247767857143 1.13437426070499  3.52064732142857 0.680624556422996  C 4.60881696428571 0.226874852140998  5.79241071428572 0  7.07142857142857 0  C 8.35044642857143 0  9.53404017857143 0.226874852140998  10.6222098214286 0.680624556422996  C 11.7103794642857 1.13437426070499  12.5691964285714 1.75207002602318  13.1986607142857 2.53371185237757  Z M 17.2466517857143 5.34563520227111  C 17.7488839285714 6.05441211260941  18 6.81618168914124  18 7.63094393186657  C 18 8.42583392476934  17.7622767857143 9.16938727229714  17.2868303571429 9.86160397444996  C 16.8113839285714 10.5538206766028  16.1584821428571 11.13839602555  15.328125 11.6153300212917  C 15.3950892857143 11.7743080198722  15.4637276785714 11.9200378519044  15.5340401785714 12.0525195173882  C 15.6043526785714 12.185001182872  15.6880580357143 12.3125147859002  15.78515625 12.4350603264727  C 15.8822544642857 12.5576058670452  15.9575892857143 12.6536550745209  16.0111607142857 12.7232079488999  C 16.0647321428571 12.7927608232789  16.1517857142857 12.8904660515732  16.2723214285714 13.0163236337828  C 16.3928571428571 13.1421812159924  16.4698660714286 13.2249822569198  16.5033482142857 13.2647267565649  C 16.5100446428571 13.2713508398391  16.5234375 13.2862550272061  16.5435267857143 13.3094393186657  C 16.5636160714286 13.3326236101254  16.5786830357143 13.3491838183109  16.5887276785714 13.3591199432221  C 16.5987723214286 13.3690560681334  16.6121651785714 13.3856162763189  16.62890625 13.4088005677786  C 16.6456473214286 13.4319848592382  16.6573660714286 13.4502010882423  16.6640625 13.4634492547906  L 16.6891741071429 13.5131298793471  C 16.6891741071429 13.5131298793471  16.6958705357143 13.5330021291696  16.7092633928571 13.5727466288148  C 16.72265625 13.6124911284599  16.7243303571429 13.634019399101  16.7142857142857 13.6373314407381  C 16.7042410714286 13.6406434823752  16.7008928571429 13.6621717530163  16.7042410714286 13.7019162526615  C 16.6841517857143 13.7946534185001  16.640625 13.8675183345162  16.5736607142857 13.9205110007097  C 16.5066964285714 13.9735036669032  16.4330357142857 13.9966879583629  16.3526785714286 13.9900638750887  C 16.0178571428571 13.9436952921694  15.7299107142857 13.8907026259759  15.4888392857143 13.8310858765082  C 14.4575892857143 13.5661225455406  13.5267857142857 13.1421812159924  12.6964285714286 12.5592618878637  C 12.09375 12.6652472202508  11.5044642857143 12.7182398864443  10.9285714285714 12.7182398864443  C 9.11383928571429 12.7182398864443  7.53348214285714 12.2810503903478  6.1875 11.4066713981547  C 6.57589285714286 11.4331677312515  6.87053571428571 11.4464158977999  7.07142857142857 11.4464158977999  C 8.14955357142857 11.4464158977999  9.18415178571429 11.2973740241306  10.1752232142857 10.9992902767921  C 11.1662946428571 10.7012065294535  12.0502232142857 10.2739531582683  12.8270089285714 9.71753016323634  C 13.6640625 9.10811450201088  14.3069196428571 8.40596167494677  14.7555803571429 7.611071682044  C 15.2042410714286 6.81618168914124  15.4285714285714 5.97492311331914  15.4285714285714 5.08729595457771  C 15.4285714285714 4.5772415424651  15.3515625 4.07381121362669  15.1975446428571 3.57700496806246  C 16.0613839285714 4.04731488052993  16.7444196428571 4.63685829193281  17.2466517857143 5.34563520227111  Z " fill-rule="nonzero" fill="#1b9acc" stroke="none" transform="matrix(1 0 0 1 114 192 )" />
  </g>
</svg>