<?xml version="1.0" encoding="utf-8"?>
<svg version="1.1" xmlns:xlink="http://www.w3.org/1999/xlink" width="18px" height="14px" xmlns="http://www.w3.org/2000/svg">
  <g transform="matrix(1 0 0 1 -114 -122 )">
    <path d="M 17.3575013943112 0  C 17.4913552704964 0  17.611823759063 0.0286458333333346  17.7189068600112 0.0859375000000007  C 17.9397657557167 0.2109375  18.0301171221417 0.377604166666666  17.9899609592861 0.5859375  L 15.419966536531 12.5859375  C 15.3865030674847 12.7369791666667  15.2794199665365 12.8541666666667  15.0987172336866 12.9375  C 15.0050195203569 12.9791666666667  14.9012827663134 13  14.7875069715561 13  C 14.7138873396542 13  14.6335750139431 12.9869791666667  14.5465699944228 12.9609375  L 9.99888455103179 11.515625  L 7.56943669827105 13.8203125  C 7.44896820970441 13.9401041666667  7.28499721137758 14  7.07752370329057 14  C 6.99051868377022 14  6.91689905186838 13.9895833333333  6.85666480758505 13.96875  C 6.72950362520915 13.9322916666667  6.62744004461796 13.87109375  6.55047406581149 13.78515625  C 6.47350808700502 13.69921875  6.43502509760178 13.6041666666667  6.43502509760178 13.5  L 6.43502509760178 10.7734375  L 15.1087562744004 2.5  L 4.37702175125488 9.7265625  L 0.411600669269381 8.4609375  C 0.163970998326827 8.38802083333333  0.030117122141662 8.24479166666667  0.0100390407138873 8.03125  C -0.00334634690462911 7.82291666666667  0.103736754043502 7.66927083333333  0.331288343558282 7.5703125  L 17.0362520914668 0.0703124999999996  C 17.1366424986057 0.0234374999999993  17.2437255995538 0  17.3575013943112 0  Z " fill-rule="nonzero" fill="#017846" stroke="none" transform="matrix(1 0 0 1 114 122 )" />
  </g>
</svg>