<?xml version="1.0" encoding="utf-8"?>
<svg version="1.1" xmlns:xlink="http://www.w3.org/1999/xlink" width="18px" height="14px" xmlns="http://www.w3.org/2000/svg">
  <g transform="matrix(1 0 0 1 -114 -262 )">
    <path d="M 6 3  L 7.5 3  L 7.5 2  L 6 2  L 6 3  Z M 7.5 4  L 9 4  L 9 3  L 7.5 3  L 7.5 4  Z M 6 5  L 7.5 5  L 7.5 4  L 6 4  L 6 5  Z M 7.5 6  L 9 6  L 9 5  L 7.5 5  L 7.5 6  Z M 13.546875 0.53125  L 17.203125 2.96875  C 17.421875 3.11458333333333  17.609375 3.3125  17.765625 3.5625  C 17.921875 3.8125  18 4.04166666666667  18 4.25  L 18 13.25  C 18 13.4583333333333  17.890625 13.6354166666667  17.671875 13.78125  C 17.453125 13.9270833333333  17.1875 14  16.875 14  L 1.125 14  C 0.8125 14  0.546875 13.9270833333333  0.328125 13.78125  C 0.109375 13.6354166666667  0 13.4583333333333  0 13.25  L 0 0.75  C 0 0.541666666666666  0.109375 0.364583333333333  0.328125 0.21875  C 0.546875 0.0729166666666672  0.8125 0  1.125 0  L 11.625 0  C 11.9375 0  12.28125 0.0520833333333339  12.65625 0.15625  C 13.03125 0.260416666666667  13.328125 0.385416666666666  13.546875 0.53125  Z M 12.48046875 1.234375  C 12.38671875 1.171875  12.2265625 1.11458333333333  12 1.0625  L 12 4  L 16.40625 4  C 16.328125 3.84895833333333  16.2421875 3.7421875  16.1484375 3.6796875  L 12.48046875 1.234375  Z M 1.5 13  L 16.5 13  L 16.5 5  L 11.625 5  C 11.3125 5  11.046875 4.92708333333333  10.828125 4.78125  C 10.609375 4.63541666666667  10.5 4.45833333333333  10.5 4.25  L 10.5 1  L 9 1  L 9 2  L 7.5 2  L 7.5 1  L 1.5 1  L 1.5 13  Z M 8.8828125 7.1015625  C 9.015625 7.16927083333333  9.10546875 7.2578125  9.15234375 7.3671875  L 10.40625 10.09375  C 10.46875 10.234375  10.5 10.3697916666667  10.5 10.5  C 10.5 10.9322916666667  10.216796875 11.2903645833333  9.650390625 11.57421875  C 9.083984375 11.8580729166667  8.3671875 12  7.5 12  C 6.6328125 12  5.916015625 11.8580729166667  5.349609375 11.57421875  C 4.783203125 11.2903645833333  4.5 10.9322916666667  4.5 10.5  C 4.5 10.3697916666667  4.53125 10.234375  4.59375 10.09375  C 4.7578125 9.765625  5.2265625 8.734375  6 7  L 6 6  L 7.5 6  L 7.5 7  L 8.42578125 7  C 8.59765625 7  8.75 7.03385416666667  8.8828125 7.1015625  Z M 6.439453125 10.8515625  C 6.732421875 10.9505208333333  7.0859375 11  7.5 11  C 7.9140625 11  8.267578125 10.9505208333333  8.560546875 10.8515625  C 8.853515625 10.7526041666667  9 10.6354166666667  9 10.5  C 9 10.3645833333333  8.853515625 10.2473958333333  8.560546875 10.1484375  C 8.267578125 10.0494791666667  7.9140625 10  7.5 10  C 7.0859375 10  6.732421875 10.0494791666667  6.439453125 10.1484375  C 6.146484375 10.2473958333333  6 10.3645833333333  6 10.5  C 6 10.6354166666667  6.146484375 10.7526041666667  6.439453125 10.8515625  Z " fill-rule="nonzero" fill="#015478" stroke="none" transform="matrix(1 0 0 1 114 262 )" />
  </g>
</svg>