<?xml version="1.0" encoding="utf-8"?>
<svg version="1.1" xmlns:xlink="http://www.w3.org/1999/xlink" width="17px" height="17px" viewBox="1283 2350  17 17" xmlns="http://www.w3.org/2000/svg">
  <path d="M 1291.5 2350  C 1296.26 2350  1300 2353.74  1300 2358.5  C 1300 2363.26  1296.26 2367  1291.5 2367  C 1286.74 2367  1283 2363.26  1283 2358.5  C 1283 2353.74  1286.74 2350  1291.5 2350  Z " fill-rule="nonzero" fill="#ffffff" stroke="none" />
  <path d="M 1291.5 2350.5  C 1295.98 2350.5  1299.5 2354.02  1299.5 2358.5  C 1299.5 2362.98  1295.98 2366.5  1291.5 2366.5  C 1287.02 2366.5  1283.5 2362.98  1283.5 2358.5  C 1283.5 2354.02  1287.02 2350.5  1291.5 2350.5  Z " stroke-width="1" stroke="#f60068" fill="none" />
  <path d="M 1291.5 2362.75  C 1289.12 2362.75  1287.25 2360.88  1287.25 2358.5  C 1287.25 2356.12  1289.12 2354.25  1291.5 2354.25  C 1293.88 2354.25  1295.75 2356.12  1295.75 2358.5  C 1295.75 2360.88  1293.88 2362.75  1291.5 2362.75  " fill-rule="nonzero" fill="#f60068" stroke="none" />
</svg>