<?xml version="1.0" encoding="utf-8"?>
<svg version="1.1" xmlns:xlink="http://www.w3.org/1999/xlink" width="17px" height="17px" viewBox="1269 2354  17 17" xmlns="http://www.w3.org/2000/svg">
  <path d="M 1277.5 2354  C 1282.26 2354  1286 2357.74  1286 2362.5  C 1286 2367.26  1282.26 2371  1277.5 2371  C 1272.74 2371  1269 2367.26  1269 2362.5  C 1269 2357.74  1272.74 2354  1277.5 2354  Z " fill-rule="nonzero" fill="#ffffff" stroke="none" />
  <path d="M 1277.5 2354.5  C 1281.98 2354.5  1285.5 2358.02  1285.5 2362.5  C 1285.5 2366.98  1281.98 2370.5  1277.5 2370.5  C 1273.02 2370.5  1269.5 2366.98  1269.5 2362.5  C 1269.5 2358.02  1273.02 2354.5  1277.5 2354.5  Z " stroke-width="1" stroke="#f60068" fill="none" />
  <path d="M 1277.5 2366.75  C 1275.12 2366.75  1273.25 2364.88  1273.25 2362.5  C 1273.25 2360.12  1275.12 2358.25  1277.5 2358.25  C 1279.88 2358.25  1281.75 2360.12  1281.75 2362.5  C 1281.75 2364.88  1279.88 2366.75  1277.5 2366.75  " fill-rule="nonzero" fill="#f60068" stroke="none" />
</svg>