<?xml version="1.0" encoding="utf-8"?>
<svg version="1.1" xmlns:xlink="http://www.w3.org/1999/xlink" width="17px" height="17px" viewBox="1277 1650  17 17" xmlns="http://www.w3.org/2000/svg">
  <path d="M 1285.5 1650  C 1290.26 1650  1294 1653.74  1294 1658.5  C 1294 1663.26  1290.26 1667  1285.5 1667  C 1280.74 1667  1277 1663.26  1277 1658.5  C 1277 1653.74  1280.74 1650  1285.5 1650  Z " fill-rule="nonzero" fill="#ffffff" stroke="none" />
  <path d="M 1285.5 1650.5  C 1289.98 1650.5  1293.5 1654.02  1293.5 1658.5  C 1293.5 1662.98  1289.98 1666.5  1285.5 1666.5  C 1281.02 1666.5  1277.5 1662.98  1277.5 1658.5  C 1277.5 1654.02  1281.02 1650.5  1285.5 1650.5  Z " stroke-width="1" stroke="#f60068" fill="none" />
  <path d="M 1285.5 1662.75  C 1283.12 1662.75  1281.25 1660.88  1281.25 1658.5  C 1281.25 1656.12  1283.12 1654.25  1285.5 1654.25  C 1287.88 1654.25  1289.75 1656.12  1289.75 1658.5  C 1289.75 1660.88  1287.88 1662.75  1285.5 1662.75  " fill-rule="nonzero" fill="#f60068" stroke="none" />
</svg>