<?xml version="1.0" encoding="utf-8"?>
<svg version="1.1" xmlns:xlink="http://www.w3.org/1999/xlink" width="17px" height="17px" viewBox="1268 2369  17 17" xmlns="http://www.w3.org/2000/svg">
  <path d="M 1276.5 2369  C 1281.26 2369  1285 2372.74  1285 2377.5  C 1285 2382.26  1281.26 2386  1276.5 2386  C 1271.74 2386  1268 2382.26  1268 2377.5  C 1268 2372.74  1271.74 2369  1276.5 2369  Z " fill-rule="nonzero" fill="#ffffff" stroke="none" />
  <path d="M 1276.5 2369.5  C 1280.98 2369.5  1284.5 2373.02  1284.5 2377.5  C 1284.5 2381.98  1280.98 2385.5  1276.5 2385.5  C 1272.02 2385.5  1268.5 2381.98  1268.5 2377.5  C 1268.5 2373.02  1272.02 2369.5  1276.5 2369.5  Z " stroke-width="1" stroke="#f60068" fill="none" />
  <path d="M 1276.5 2381.75  C 1274.12 2381.75  1272.25 2379.88  1272.25 2377.5  C 1272.25 2375.12  1274.12 2373.25  1276.5 2373.25  C 1278.88 2373.25  1280.75 2375.12  1280.75 2377.5  C 1280.75 2379.88  1278.88 2381.75  1276.5 2381.75  " fill-rule="nonzero" fill="#f60068" stroke="none" />
</svg>