<?xml version="1.0" encoding="utf-8"?>
<svg version="1.1" xmlns:xlink="http://www.w3.org/1999/xlink" width="17px" height="17px" viewBox="1280 2369  17 17" xmlns="http://www.w3.org/2000/svg">
  <path d="M 1288.5 2369  C 1293.26 2369  1297 2372.74  1297 2377.5  C 1297 2382.26  1293.26 2386  1288.5 2386  C 1283.74 2386  1280 2382.26  1280 2377.5  C 1280 2372.74  1283.74 2369  1288.5 2369  Z " fill-rule="nonzero" fill="#ffffff" stroke="none" />
  <path d="M 1288.5 2369.5  C 1292.98 2369.5  1296.5 2373.02  1296.5 2377.5  C 1296.5 2381.98  1292.98 2385.5  1288.5 2385.5  C 1284.02 2385.5  1280.5 2381.98  1280.5 2377.5  C 1280.5 2373.02  1284.02 2369.5  1288.5 2369.5  Z " stroke-width="1" stroke="#f60068" fill="none" />
  <path d="M 1288.5 2381.75  C 1286.12 2381.75  1284.25 2379.88  1284.25 2377.5  C 1284.25 2375.12  1286.12 2373.25  1288.5 2373.25  C 1290.88 2373.25  1292.75 2375.12  1292.75 2377.5  C 1292.75 2379.88  1290.88 2381.75  1288.5 2381.75  " fill-rule="nonzero" fill="#f60068" stroke="none" />
</svg>