<?xml version="1.0" encoding="utf-8"?>
<svg version="1.1" xmlns:xlink="http://www.w3.org/1999/xlink" width="17px" height="17px" viewBox="1283 2376  17 17" xmlns="http://www.w3.org/2000/svg">
  <path d="M 1291.5 2376  C 1296.26 2376  1300 2379.74  1300 2384.5  C 1300 2389.26  1296.26 2393  1291.5 2393  C 1286.74 2393  1283 2389.26  1283 2384.5  C 1283 2379.74  1286.74 2376  1291.5 2376  Z " fill-rule="nonzero" fill="#ffffff" stroke="none" />
  <path d="M 1291.5 2376.5  C 1295.98 2376.5  1299.5 2380.02  1299.5 2384.5  C 1299.5 2388.98  1295.98 2392.5  1291.5 2392.5  C 1287.02 2392.5  1283.5 2388.98  1283.5 2384.5  C 1283.5 2380.02  1287.02 2376.5  1291.5 2376.5  Z " stroke-width="1" stroke="#f60068" fill="none" />
  <path d="M 1291.5 2388.75  C 1289.12 2388.75  1287.25 2386.88  1287.25 2384.5  C 1287.25 2382.12  1289.12 2380.25  1291.5 2380.25  C 1293.88 2380.25  1295.75 2382.12  1295.75 2384.5  C 1295.75 2386.88  1293.88 2388.75  1291.5 2388.75  " fill-rule="nonzero" fill="#f60068" stroke="none" />
</svg>