<?xml version="1.0" encoding="utf-8"?>
<svg version="1.1" xmlns:xlink="http://www.w3.org/1999/xlink" width="17px" height="17px" viewBox="1259 1618  17 17" xmlns="http://www.w3.org/2000/svg">
  <path d="M 1267.5 1618  C 1272.26 1618  1276 1621.74  1276 1626.5  C 1276 1631.26  1272.26 1635  1267.5 1635  C 1262.74 1635  1259 1631.26  1259 1626.5  C 1259 1621.74  1262.74 1618  1267.5 1618  Z " fill-rule="nonzero" fill="#ffffff" stroke="none" />
  <path d="M 1267.5 1618.5  C 1271.98 1618.5  1275.5 1622.02  1275.5 1626.5  C 1275.5 1630.98  1271.98 1634.5  1267.5 1634.5  C 1263.02 1634.5  1259.5 1630.98  1259.5 1626.5  C 1259.5 1622.02  1263.02 1618.5  1267.5 1618.5  Z " stroke-width="1" stroke="#f60068" fill="none" />
  <path d="M 1267.5 1630.75  C 1265.12 1630.75  1263.25 1628.88  1263.25 1626.5  C 1263.25 1624.12  1265.12 1622.25  1267.5 1622.25  C 1269.88 1622.25  1271.75 1624.12  1271.75 1626.5  C 1271.75 1628.88  1269.88 1630.75  1267.5 1630.75  " fill-rule="nonzero" fill="#f60068" stroke="none" />
</svg>