<?xml version="1.0" encoding="utf-8"?>
<svg version="1.1" xmlns:xlink="http://www.w3.org/1999/xlink" width="17px" height="17px" viewBox="1223 928  17 17" xmlns="http://www.w3.org/2000/svg">
  <path d="M 1231.5 928  C 1236.26 928  1240 931.74  1240 936.5  C 1240 941.26  1236.26 945  1231.5 945  C 1226.74 945  1223 941.26  1223 936.5  C 1223 931.74  1226.74 928  1231.5 928  Z " fill-rule="nonzero" fill="#ffffff" stroke="none" />
  <path d="M 1231.5 928.5  C 1235.98 928.5  1239.5 932.02  1239.5 936.5  C 1239.5 940.98  1235.98 944.5  1231.5 944.5  C 1227.02 944.5  1223.5 940.98  1223.5 936.5  C 1223.5 932.02  1227.02 928.5  1231.5 928.5  Z " stroke-width="1" stroke="#f60068" fill="none" />
  <path d="M 1231.5 940.75  C 1229.12 940.75  1227.25 938.88  1227.25 936.5  C 1227.25 934.12  1229.12 932.25  1231.5 932.25  C 1233.88 932.25  1235.75 934.12  1235.75 936.5  C 1235.75 938.88  1233.88 940.75  1231.5 940.75  " fill-rule="nonzero" fill="#f60068" stroke="none" />
</svg>