<?xml version="1.0" encoding="utf-8"?>
<svg version="1.1" xmlns:xlink="http://www.w3.org/1999/xlink" width="17px" height="17px" viewBox="1260 1622  17 17" xmlns="http://www.w3.org/2000/svg">
  <path d="M 1268.5 1622.5  C 1272.98 1622.5  1276.5 1626.02  1276.5 1630.5  C 1276.5 1634.98  1272.98 1638.5  1268.5 1638.5  C 1264.02 1638.5  1260.5 1634.98  1260.5 1630.5  C 1260.5 1626.02  1264.02 1622.5  1268.5 1622.5  Z " fill-rule="nonzero" fill="#f0f0f0" stroke="none" />
  <path d="M 1268.5 1622.5  C 1272.98 1622.5  1276.5 1626.02  1276.5 1630.5  C 1276.5 1634.98  1272.98 1638.5  1268.5 1638.5  C 1264.02 1638.5  1260.5 1634.98  1260.5 1630.5  C 1260.5 1626.02  1264.02 1622.5  1268.5 1622.5  Z " stroke-width="1" stroke="#797979" fill="none" stroke-opacity="0.996078431372549" />
  <path d="M 1268.5 1634.75  C 1266.12 1634.75  1264.25 1632.88  1264.25 1630.5  C 1264.25 1628.12  1266.12 1626.25  1268.5 1626.25  C 1270.88 1626.25  1272.75 1628.12  1272.75 1630.5  C 1272.75 1632.88  1270.88 1634.75  1268.5 1634.75  " fill-rule="nonzero" fill="#797979" stroke="none" fill-opacity="0.996078431372549" />
</svg>