<?xml version="1.0" encoding="utf-8"?>
<svg version="1.1" xmlns:xlink="http://www.w3.org/1999/xlink" width="17px" height="17px" viewBox="1259 1611  17 17" xmlns="http://www.w3.org/2000/svg">
  <path d="M 1267.5 1611  C 1272.26 1611  1276 1614.74  1276 1619.5  C 1276 1624.26  1272.26 1628  1267.5 1628  C 1262.74 1628  1259 1624.26  1259 1619.5  C 1259 1614.74  1262.74 1611  1267.5 1611  Z " fill-rule="nonzero" fill="#ffffff" stroke="none" />
  <path d="M 1267.5 1611.5  C 1271.98 1611.5  1275.5 1615.02  1275.5 1619.5  C 1275.5 1623.98  1271.98 1627.5  1267.5 1627.5  C 1263.02 1627.5  1259.5 1623.98  1259.5 1619.5  C 1259.5 1615.02  1263.02 1611.5  1267.5 1611.5  Z " stroke-width="1" stroke="#f60068" fill="none" />
  <path d="M 1267.5 1623.75  C 1265.12 1623.75  1263.25 1621.88  1263.25 1619.5  C 1263.25 1617.12  1265.12 1615.25  1267.5 1615.25  C 1269.88 1615.25  1271.75 1617.12  1271.75 1619.5  C 1271.75 1621.88  1269.88 1623.75  1267.5 1623.75  " fill-rule="nonzero" fill="#f60068" stroke="none" />
</svg>