<?xml version="1.0" encoding="utf-8"?>
<svg version="1.1" xmlns:xlink="http://www.w3.org/1999/xlink" width="17px" height="17px" viewBox="1271 1611  17 17" xmlns="http://www.w3.org/2000/svg">
  <path d="M 1279.5 1611  C 1284.26 1611  1288 1614.74  1288 1619.5  C 1288 1624.26  1284.26 1628  1279.5 1628  C 1274.74 1628  1271 1624.26  1271 1619.5  C 1271 1614.74  1274.74 1611  1279.5 1611  Z " fill-rule="nonzero" fill="#ffffff" stroke="none" />
  <path d="M 1279.5 1611.5  C 1283.98 1611.5  1287.5 1615.02  1287.5 1619.5  C 1287.5 1623.98  1283.98 1627.5  1279.5 1627.5  C 1275.02 1627.5  1271.5 1623.98  1271.5 1619.5  C 1271.5 1615.02  1275.02 1611.5  1279.5 1611.5  Z " stroke-width="1" stroke="#f60068" fill="none" />
  <path d="M 1279.5 1623.75  C 1277.12 1623.75  1275.25 1621.88  1275.25 1619.5  C 1275.25 1617.12  1277.12 1615.25  1279.5 1615.25  C 1281.88 1615.25  1283.75 1617.12  1283.75 1619.5  C 1283.75 1621.88  1281.88 1623.75  1279.5 1623.75  " fill-rule="nonzero" fill="#f60068" stroke="none" />
</svg>