<?xml version="1.0" encoding="utf-8"?>
<svg version="1.1" xmlns:xlink="http://www.w3.org/1999/xlink" width="17px" height="17px" viewBox="1223 954  17 17" xmlns="http://www.w3.org/2000/svg">
  <path d="M 1231.5 954  C 1236.26 954  1240 957.74  1240 962.5  C 1240 967.26  1236.26 971  1231.5 971  C 1226.74 971  1223 967.26  1223 962.5  C 1223 957.74  1226.74 954  1231.5 954  Z " fill-rule="nonzero" fill="#ffffff" stroke="none" />
  <path d="M 1231.5 954.5  C 1235.98 954.5  1239.5 958.02  1239.5 962.5  C 1239.5 966.98  1235.98 970.5  1231.5 970.5  C 1227.02 970.5  1223.5 966.98  1223.5 962.5  C 1223.5 958.02  1227.02 954.5  1231.5 954.5  Z " stroke-width="1" stroke="#f60068" fill="none" />
  <path d="M 1231.5 966.75  C 1229.12 966.75  1227.25 964.88  1227.25 962.5  C 1227.25 960.12  1229.12 958.25  1231.5 958.25  C 1233.88 958.25  1235.75 960.12  1235.75 962.5  C 1235.75 964.88  1233.88 966.75  1231.5 966.75  " fill-rule="nonzero" fill="#f60068" stroke="none" />
</svg>