<?xml version="1.0" encoding="utf-8"?>
<svg version="1.1" xmlns:xlink="http://www.w3.org/1999/xlink" width="17px" height="17px" viewBox="1259 1644  17 17" xmlns="http://www.w3.org/2000/svg">
  <path d="M 1267.5 1644  C 1272.26 1644  1276 1647.74  1276 1652.5  C 1276 1657.26  1272.26 1661  1267.5 1661  C 1262.74 1661  1259 1657.26  1259 1652.5  C 1259 1647.74  1262.74 1644  1267.5 1644  Z " fill-rule="nonzero" fill="#ffffff" stroke="none" />
  <path d="M 1267.5 1644.5  C 1271.98 1644.5  1275.5 1648.02  1275.5 1652.5  C 1275.5 1656.98  1271.98 1660.5  1267.5 1660.5  C 1263.02 1660.5  1259.5 1656.98  1259.5 1652.5  C 1259.5 1648.02  1263.02 1644.5  1267.5 1644.5  Z " stroke-width="1" stroke="#f60068" fill="none" />
  <path d="M 1267.5 1656.75  C 1265.12 1656.75  1263.25 1654.88  1263.25 1652.5  C 1263.25 1650.12  1265.12 1648.25  1267.5 1648.25  C 1269.88 1648.25  1271.75 1650.12  1271.75 1652.5  C 1271.75 1654.88  1269.88 1656.75  1267.5 1656.75  " fill-rule="nonzero" fill="#f60068" stroke="none" />
</svg>