<?xml version="1.0" encoding="utf-8"?>
<svg version="1.1" xmlns:xlink="http://www.w3.org/1999/xlink" width="17px" height="17px" viewBox="1260 1648  17 17" xmlns="http://www.w3.org/2000/svg">
  <path d="M 1268.5 1648  C 1273.26 1648  1277 1651.74  1277 1656.5  C 1277 1661.26  1273.26 1665  1268.5 1665  C 1263.74 1665  1260 1661.26  1260 1656.5  C 1260 1651.74  1263.74 1648  1268.5 1648  Z " fill-rule="nonzero" fill="#ffffff" stroke="none" />
  <path d="M 1268.5 1648.5  C 1272.98 1648.5  1276.5 1652.02  1276.5 1656.5  C 1276.5 1660.98  1272.98 1664.5  1268.5 1664.5  C 1264.02 1664.5  1260.5 1660.98  1260.5 1656.5  C 1260.5 1652.02  1264.02 1648.5  1268.5 1648.5  Z " stroke-width="1" stroke="#f60068" fill="none" />
  <path d="M 1268.5 1660.75  C 1266.12 1660.75  1264.25 1658.88  1264.25 1656.5  C 1264.25 1654.12  1266.12 1652.25  1268.5 1652.25  C 1270.88 1652.25  1272.75 1654.12  1272.75 1656.5  C 1272.75 1658.88  1270.88 1660.75  1268.5 1660.75  " fill-rule="nonzero" fill="#f60068" stroke="none" />
</svg>