<?xml version="1.0" encoding="utf-8"?>
<svg version="1.1" xmlns:xlink="http://www.w3.org/1999/xlink" width="17px" height="17px" viewBox="1271 1637  17 17" xmlns="http://www.w3.org/2000/svg">
  <path d="M 1279.5 1637.5  C 1283.98 1637.5  1287.5 1641.02  1287.5 1645.5  C 1287.5 1649.98  1283.98 1653.5  1279.5 1653.5  C 1275.02 1653.5  1271.5 1649.98  1271.5 1645.5  C 1271.5 1641.02  1275.02 1637.5  1279.5 1637.5  Z " fill-rule="nonzero" fill="#f0f0f0" stroke="none" />
  <path d="M 1279.5 1637.5  C 1283.98 1637.5  1287.5 1641.02  1287.5 1645.5  C 1287.5 1649.98  1283.98 1653.5  1279.5 1653.5  C 1275.02 1653.5  1271.5 1649.98  1271.5 1645.5  C 1271.5 1641.02  1275.02 1637.5  1279.5 1637.5  Z " stroke-width="1" stroke="#797979" fill="none" stroke-opacity="0.996078431372549" />
  <path d="M 1279.5 1649.75  C 1277.12 1649.75  1275.25 1647.88  1275.25 1645.5  C 1275.25 1643.12  1277.12 1641.25  1279.5 1641.25  C 1281.88 1641.25  1283.75 1643.12  1283.75 1645.5  C 1283.75 1647.88  1281.88 1649.75  1279.5 1649.75  " fill-rule="nonzero" fill="#797979" stroke="none" fill-opacity="0.996078431372549" />
</svg>