<?xml version="1.0" encoding="utf-8"?>
<svg version="1.1" xmlns:xlink="http://www.w3.org/1999/xlink" width="12px" height="12px" viewBox="186 846  12 12" xmlns="http://www.w3.org/2000/svg">
  <path d="M 186.5 849  A 2.5 2.5 0 0 1 189 846.5 L 195 846.5  A 2.5 2.5 0 0 1 197.5 849 L 197.5 855  A 2.5 2.5 0 0 1 195 857.5 L 189 857.5  A 2.5 2.5 0 0 1 186.5 855 L 186.5 849  Z " fill-rule="nonzero" fill="#f0f0f0" stroke="none" />
  <path d="M 186.5 849  A 2.5 2.5 0 0 1 189 846.5 L 195 846.5  A 2.5 2.5 0 0 1 197.5 849 L 197.5 855  A 2.5 2.5 0 0 1 195 857.5 L 189 857.5  A 2.5 2.5 0 0 1 186.5 855 L 186.5 849  Z " stroke-width="1" stroke="#797979" fill="none" />
  <path d="M 188.571428571429 852  L 191.142857142857 854.571428571429  " stroke-width="2.57142857142857" stroke="#797979" fill="none" />
  <path d="M 191.142857142857 854.571428571429  L 195.428571428571 848.571428571429  " stroke-width="2.57142857142857" stroke="#797979" fill="none" />
</svg>