<?xml version="1.0" encoding="utf-8"?>
<svg version="1.1" xmlns:xlink="http://www.w3.org/1999/xlink" width="729px" height="50px" viewBox="140 366  729 50" xmlns="http://www.w3.org/2000/svg">
  <path d="M 141 371  A 4 4 0 0 1 145 367 L 868 367  L 868 411  A 4 4 0 0 1 864 415 L 145 415  A 4 4 0 0 1 141 411 L 141 371  Z " fill-rule="nonzero" fill="#ffffff" stroke="none" fill-opacity="0.996078431372549" />
  <path d="M 140.5 371  A 4.5 4.5 0 0 1 145 366.5 L 868.5 366.5  L 868.5 411  A 4.5 4.5 0 0 1 864 415.5 L 145 415.5  A 4.5 4.5 0 0 1 140.5 411 L 140.5 371  Z " stroke-width="1" stroke="#d7d7d7" fill="none" stroke-opacity="0.505882352941176" />
</svg>