<?xml version="1.0" encoding="utf-8"?>
<svg version="1.1" xmlns:xlink="http://www.w3.org/1999/xlink" width="229px" height="35px" viewBox="140 753  229 35" xmlns="http://www.w3.org/2000/svg">
  <path d="M 141 770.5  A 16.5 16.5 0 0 1 157.5 754 L 351.5 754  A 16.5 16.5 0 0 1 368 770.5 A 16.5 16.5 0 0 1 351.5 787 L 157.5 787  A 16.5 16.5 0 0 1 141 770.5 Z " fill-rule="nonzero" fill="#ffffff" stroke="none" fill-opacity="0.996078431372549" />
  <path d="M 140.5 770.5  A 17 17 0 0 1 157.5 753.5 L 351.5 753.5  A 17 17 0 0 1 368.5 770.5 A 17 17 0 0 1 351.5 787.5 L 157.5 787.5  A 17 17 0 0 1 140.5 770.5 Z " stroke-width="1" stroke="#d7d7d7" fill="none" stroke-opacity="0.505882352941176" />
</svg>