<?xml version="1.0" encoding="utf-8"?>
<svg version="1.1" xmlns:xlink="http://www.w3.org/1999/xlink" width="229px" height="50px" viewBox="644 1375  229 50" xmlns="http://www.w3.org/2000/svg">
  <path d="M 645 1380  A 4 4 0 0 1 649 1376 L 872 1376  L 872 1420  A 4 4 0 0 1 868 1424 L 649 1424  A 4 4 0 0 1 645 1420 L 645 1380  Z " fill-rule="nonzero" fill="#ffffff" stroke="none" fill-opacity="0.996078431372549" />
  <path d="M 644.5 1380  A 4.5 4.5 0 0 1 649 1375.5 L 872.5 1375.5  L 872.5 1420  A 4.5 4.5 0 0 1 868 1424.5 L 649 1424.5  A 4.5 4.5 0 0 1 644.5 1420 L 644.5 1380  Z " stroke-width="1" stroke="#d7d7d7" fill="none" stroke-opacity="0.505882352941176" />
</svg>