<?xml version="1.0" encoding="utf-8"?>
<svg version="1.1" xmlns:xlink="http://www.w3.org/1999/xlink" width="723px" height="50px" viewBox="140 642  723 50" xmlns="http://www.w3.org/2000/svg">
  <path d="M 141 647  A 4 4 0 0 1 145 643 L 862 643  L 862 687  A 4 4 0 0 1 858 691 L 145 691  A 4 4 0 0 1 141 687 L 141 647  Z " fill-rule="nonzero" fill="#ffffff" stroke="none" fill-opacity="0.996078431372549" />
  <path d="M 140.5 647  A 4.5 4.5 0 0 1 145 642.5 L 862.5 642.5  L 862.5 687  A 4.5 4.5 0 0 1 858 691.5 L 145 691.5  A 4.5 4.5 0 0 1 140.5 687 L 140.5 647  Z " stroke-width="1" stroke="#d7d7d7" fill="none" stroke-opacity="0.505882352941176" />
</svg>