<?xml version="1.0" encoding="utf-8"?>
<svg version="1.1" xmlns:xlink="http://www.w3.org/1999/xlink" width="904px" height="50px" viewBox="140 1241  904 50" xmlns="http://www.w3.org/2000/svg">
  <path d="M 141 1246  A 4 4 0 0 1 145 1242 L 1043 1242  L 1043 1286  A 4 4 0 0 1 1039 1290 L 145 1290  A 4 4 0 0 1 141 1286 L 141 1246  Z " fill-rule="nonzero" fill="#ffffff" stroke="none" fill-opacity="0.996078431372549" />
  <path d="M 140.5 1246  A 4.5 4.5 0 0 1 145 1241.5 L 1043.5 1241.5  L 1043.5 1286  A 4.5 4.5 0 0 1 1039 1290.5 L 145 1290.5  A 4.5 4.5 0 0 1 140.5 1286 L 140.5 1246  Z " stroke-width="1" stroke="#d7d7d7" fill="none" stroke-opacity="0.505882352941176" />
</svg>