<?xml version="1.0" encoding="utf-8"?>
<svg version="1.1" xmlns:xlink="http://www.w3.org/1999/xlink" width="1210px" height="321px" xmlns="http://www.w3.org/2000/svg">
  <g transform="matrix(1 0 0 1 -158 -892 )">
    <path d="M 159 897  A 4 4 0 0 1 163 893 L 1367 893  L 1367 1208  A 4 4 0 0 1 1363 1212 L 163 1212  A 4 4 0 0 1 159 1208 L 159 897  Z " fill-rule="nonzero" fill="#ffffff" stroke="none" />
    <path d="M 158.5 897  A 4.5 4.5 0 0 1 163 892.5 L 1367.5 892.5  L 1367.5 1208  A 4.5 4.5 0 0 1 1363 1212.5 L 163 1212.5  A 4.5 4.5 0 0 1 158.5 1208 L 158.5 897  Z " stroke-width="1" stroke="#d7d7d7" fill="none" stroke-opacity="0.505882352941176" />
  </g>
</svg>