<?xml version="1.0" encoding="utf-8"?>
<svg version="1.1" xmlns:xlink="http://www.w3.org/1999/xlink" width="1210px" height="184px" viewBox="160 2477  1210 184" xmlns="http://www.w3.org/2000/svg">
  <path d="M 161 2482  A 4 4 0 0 1 165 2478 L 1365 2478  A 4 4 0 0 1 1369 2482 L 1369 2656  A 4 4 0 0 1 1365 2660 L 165 2660  A 4 4 0 0 1 161 2656 L 161 2482  Z " fill-rule="nonzero" fill="#ffffff" stroke="none" fill-opacity="0.996078431372549" />
  <path d="M 160.5 2482  A 4.5 4.5 0 0 1 165 2477.5 L 1365 2477.5  A 4.5 4.5 0 0 1 1369.5 2482 L 1369.5 2656  A 4.5 4.5 0 0 1 1365 2660.5 L 165 2660.5  A 4.5 4.5 0 0 1 160.5 2656 L 160.5 2482  Z " stroke-width="1" stroke="#d7d7d7" fill="none" stroke-opacity="0.505882352941176" />
</svg>