<?xml version="1.0" encoding="utf-8"?>
<svg version="1.1" xmlns:xlink="http://www.w3.org/1999/xlink" width="1210px" height="222px" xmlns="http://www.w3.org/2000/svg">
  <g transform="matrix(1 0 0 1 -158 -1300 )">
    <path d="M 159 1305  A 4 4 0 0 1 163 1301 L 1367 1301  L 1367 1517  A 4 4 0 0 1 1363 1521 L 163 1521  A 4 4 0 0 1 159 1517 L 159 1305  Z " fill-rule="nonzero" fill="#ffffff" stroke="none" />
    <path d="M 158.5 1305  A 4.5 4.5 0 0 1 163 1300.5 L 1367.5 1300.5  L 1367.5 1517  A 4.5 4.5 0 0 1 1363 1521.5 L 163 1521.5  A 4.5 4.5 0 0 1 158.5 1517 L 158.5 1305  Z " stroke-width="1" stroke="#d7d7d7" fill="none" stroke-opacity="0.505882352941176" />
  </g>
</svg>