<?xml version="1.0" encoding="utf-8"?>
<svg version="1.1" xmlns:xlink="http://www.w3.org/1999/xlink" width="1212px" height="203px" xmlns="http://www.w3.org/2000/svg">
  <g transform="matrix(1 0 0 1 -160 -2889 )">
    <path d="M 161 2894  A 4 4 0 0 1 165 2890 L 1367 2890  A 4 4 0 0 1 1371 2894 L 1371 3087  A 4 4 0 0 1 1367 3091 L 165 3091  A 4 4 0 0 1 161 3087 L 161 2894  Z " fill-rule="nonzero" fill="#ffffff" stroke="none" />
    <path d="M 160.5 2894  A 4.5 4.5 0 0 1 165 2889.5 L 1367 2889.5  A 4.5 4.5 0 0 1 1371.5 2894 L 1371.5 3087  A 4.5 4.5 0 0 1 1367 3091.5 L 165 3091.5  A 4.5 4.5 0 0 1 160.5 3087 L 160.5 2894  Z " stroke-width="1" stroke="#d7d7d7" fill="none" stroke-opacity="0.498039215686275" />
  </g>
</svg>