<?xml version="1.0" encoding="utf-8"?>
<svg version="1.1" xmlns:xlink="http://www.w3.org/1999/xlink" width="1210px" height="144px" xmlns="http://www.w3.org/2000/svg">
  <g transform="matrix(1 0 0 1 -158 -657 )">
    <path d="M 159 662  A 4 4 0 0 1 163 658 L 1363 658  A 4 4 0 0 1 1367 662 L 1367 796  A 4 4 0 0 1 1363 800 L 163 800  A 4 4 0 0 1 159 796 L 159 662  Z " fill-rule="nonzero" fill="#ffffff" stroke="none" />
    <path d="M 158.5 662  A 4.5 4.5 0 0 1 163 657.5 L 1363 657.5  A 4.5 4.5 0 0 1 1367.5 662 L 1367.5 796  A 4.5 4.5 0 0 1 1363 800.5 L 163 800.5  A 4.5 4.5 0 0 1 158.5 796 L 158.5 662  Z " stroke-width="1" stroke="#d7d7d7" fill="none" stroke-opacity="0.349019607843137" />
  </g>
</svg>