<?xml version="1.0" encoding="utf-8"?>
<svg version="1.1" xmlns:xlink="http://www.w3.org/1999/xlink" width="1226px" height="50px" viewBox="139 418  1226 50" xmlns="http://www.w3.org/2000/svg">
  <path d="M 140 423  A 4 4 0 0 1 144 419 L 1364 419  L 1364 463  A 4 4 0 0 1 1360 467 L 144 467  A 4 4 0 0 1 140 463 L 140 423  Z " fill-rule="nonzero" fill="#ffffff" stroke="none" fill-opacity="0.996078431372549" />
  <path d="M 139.5 423  A 4.5 4.5 0 0 1 144 418.5 L 1364.5 418.5  L 1364.5 463  A 4.5 4.5 0 0 1 1360 467.5 L 144 467.5  A 4.5 4.5 0 0 1 139.5 463 L 139.5 423  Z " stroke-width="1" stroke="#d7d7d7" fill="none" stroke-opacity="0.505882352941176" />
</svg>