<?xml version="1.0" encoding="utf-8"?>
<svg version="1.1" xmlns:xlink="http://www.w3.org/1999/xlink" width="1210px" height="326px" xmlns="http://www.w3.org/2000/svg">
  <g transform="matrix(1 0 0 1 -158 -1612 )">
    <path d="M 159 1617  A 4 4 0 0 1 163 1613 L 1367 1613  L 1367 1933  A 4 4 0 0 1 1363 1937 L 163 1937  A 4 4 0 0 1 159 1933 L 159 1617  Z " fill-rule="nonzero" fill="#ffffff" stroke="none" />
    <path d="M 158.5 1617  A 4.5 4.5 0 0 1 163 1612.5 L 1367.5 1612.5  L 1367.5 1933  A 4.5 4.5 0 0 1 1363 1937.5 L 163 1937.5  A 4.5 4.5 0 0 1 158.5 1933 L 158.5 1617  Z " stroke-width="1" stroke="#d7d7d7" fill="none" stroke-opacity="0.505882352941176" />
  </g>
</svg>