<?xml version="1.0" encoding="utf-8"?>
<svg version="1.1" xmlns:xlink="http://www.w3.org/1999/xlink" width="12px" height="12px" viewBox="1257 1020  12 12" xmlns="http://www.w3.org/2000/svg">
  <path d="M 1257.5 1023  A 2.5 2.5 0 0 1 1260 1020.5 L 1266 1020.5  A 2.5 2.5 0 0 1 1268.5 1023 L 1268.5 1029  A 2.5 2.5 0 0 1 1266 1031.5 L 1260 1031.5  A 2.5 2.5 0 0 1 1257.5 1029 L 1257.5 1023  Z " fill-rule="nonzero" fill="#ffffff" stroke="none" />
  <path d="M 1257.5 1023  A 2.5 2.5 0 0 1 1260 1020.5 L 1266 1020.5  A 2.5 2.5 0 0 1 1268.5 1023 L 1268.5 1029  A 2.5 2.5 0 0 1 1266 1031.5 L 1260 1031.5  A 2.5 2.5 0 0 1 1257.5 1029 L 1257.5 1023  Z " stroke-width="1" stroke="#797979" fill="none" />
</svg>