<?xml version="1.0" encoding="utf-8"?>
<svg version="1.1" xmlns:xlink="http://www.w3.org/1999/xlink" width="12px" height="12px" viewBox="340 1075  12 12" xmlns="http://www.w3.org/2000/svg">
  <path d="M 340.5 1078  A 2.5 2.5 0 0 1 343 1075.5 L 349 1075.5  A 2.5 2.5 0 0 1 351.5 1078 L 351.5 1084  A 2.5 2.5 0 0 1 349 1086.5 L 343 1086.5  A 2.5 2.5 0 0 1 340.5 1084 L 340.5 1078  Z " fill-rule="nonzero" fill="#ffffff" stroke="none" />
  <path d="M 340.5 1078  A 2.5 2.5 0 0 1 343 1075.5 L 349 1075.5  A 2.5 2.5 0 0 1 351.5 1078 L 351.5 1084  A 2.5 2.5 0 0 1 349 1086.5 L 343 1086.5  A 2.5 2.5 0 0 1 340.5 1084 L 340.5 1078  Z " stroke-width="1" stroke="#797979" fill="none" />
</svg>