<?xml version="1.0" encoding="utf-8"?>
<svg version="1.1" xmlns:xlink="http://www.w3.org/1999/xlink" width="12px" height="12px" viewBox="1093 723  12 12" xmlns="http://www.w3.org/2000/svg">
  <path d="M 1093.5 726  A 2.5 2.5 0 0 1 1096 723.5 L 1102 723.5  A 2.5 2.5 0 0 1 1104.5 726 L 1104.5 732  A 2.5 2.5 0 0 1 1102 734.5 L 1096 734.5  A 2.5 2.5 0 0 1 1093.5 732 L 1093.5 726  Z " fill-rule="nonzero" fill="#ffffff" stroke="none" />
  <path d="M 1093.5 726  A 2.5 2.5 0 0 1 1096 723.5 L 1102 723.5  A 2.5 2.5 0 0 1 1104.5 726 L 1104.5 732  A 2.5 2.5 0 0 1 1102 734.5 L 1096 734.5  A 2.5 2.5 0 0 1 1093.5 732 L 1093.5 726  Z " stroke-width="1" stroke="#f60068" fill="none" />
  <path d="M 1095.57142857143 729  L 1098.14285714286 731.571428571429  " stroke-width="2.57142857142857" stroke="#f60068" fill="none" />
  <path d="M 1098.14285714286 731.571428571429  L 1102.42857142857 725.571428571429  " stroke-width="2.57142857142857" stroke="#f60068" fill="none" />
</svg>