<?xml version="1.0" encoding="utf-8"?>
<svg version="1.1" xmlns:xlink="http://www.w3.org/1999/xlink" width="12px" height="12px" viewBox="967 458  12 12" xmlns="http://www.w3.org/2000/svg">
  <path d="M 967.5 461  A 2.5 2.5 0 0 1 970 458.5 L 976 458.5  A 2.5 2.5 0 0 1 978.5 461 L 978.5 467  A 2.5 2.5 0 0 1 976 469.5 L 970 469.5  A 2.5 2.5 0 0 1 967.5 467 L 967.5 461  Z " fill-rule="nonzero" fill="#ffffff" stroke="none" />
  <path d="M 967.5 461  A 2.5 2.5 0 0 1 970 458.5 L 976 458.5  A 2.5 2.5 0 0 1 978.5 461 L 978.5 467  A 2.5 2.5 0 0 1 976 469.5 L 970 469.5  A 2.5 2.5 0 0 1 967.5 467 L 967.5 461  Z " stroke-width="1" stroke="#f60068" fill="none" />
  <path d="M 969.571428571429 464  L 972.142857142857 466.571428571429  " stroke-width="2.57142857142857" stroke="#f60068" fill="none" />
  <path d="M 972.142857142857 466.571428571429  L 976.428571428571 460.571428571429  " stroke-width="2.57142857142857" stroke="#f60068" fill="none" />
</svg>