<?xml version="1.0" encoding="utf-8"?>
<svg version="1.1" xmlns:xlink="http://www.w3.org/1999/xlink" width="1227px" height="70px" viewBox="140 524  1227 70" xmlns="http://www.w3.org/2000/svg">
  <path d="M 141 529  A 4 4 0 0 1 145 525 L 1366 525  L 1366 589  A 4 4 0 0 1 1362 593 L 145 593  A 4 4 0 0 1 141 589 L 141 529  Z " fill-rule="nonzero" fill="#ffffff" stroke="none" />
  <path d="M 140.5 529  A 4.5 4.5 0 0 1 145 524.5 L 1366.5 524.5  L 1366.5 589  A 4.5 4.5 0 0 1 1362 593.5 L 145 593.5  A 4.5 4.5 0 0 1 140.5 589 L 140.5 529  Z " stroke-width="1" stroke="#d7d7d7" fill="none" stroke-opacity="0.498039215686275" />
</svg>