<?xml version="1.0" encoding="utf-8"?>
<svg version="1.1" xmlns:xlink="http://www.w3.org/1999/xlink" width="12px" height="12px" viewBox="841 248  12 12" xmlns="http://www.w3.org/2000/svg">
  <path d="M 841.5 251  A 2.5 2.5 0 0 1 844 248.5 L 850 248.5  A 2.5 2.5 0 0 1 852.5 251 L 852.5 257  A 2.5 2.5 0 0 1 850 259.5 L 844 259.5  A 2.5 2.5 0 0 1 841.5 257 L 841.5 251  Z " fill-rule="nonzero" fill="#f0f0f0" stroke="none" />
  <path d="M 841.5 251  A 2.5 2.5 0 0 1 844 248.5 L 850 248.5  A 2.5 2.5 0 0 1 852.5 251 L 852.5 257  A 2.5 2.5 0 0 1 850 259.5 L 844 259.5  A 2.5 2.5 0 0 1 841.5 257 L 841.5 251  Z " stroke-width="1" stroke="#797979" fill="none" />
  <path d="M 843.571428571429 254  L 846.142857142857 256.571428571429  " stroke-width="2.57142857142857" stroke="#797979" fill="none" />
  <path d="M 846.142857142857 256.571428571429  L 850.428571428571 250.571428571429  " stroke-width="2.57142857142857" stroke="#797979" fill="none" />
</svg>