<?xml version="1.0" encoding="utf-8"?>
<svg version="1.1" xmlns:xlink="http://www.w3.org/1999/xlink" width="729px" height="40px" viewBox="140 419  729 40" xmlns="http://www.w3.org/2000/svg">
  <path d="M 141 424  A 4 4 0 0 1 145 420 L 868 420  L 868 454  A 4 4 0 0 1 864 458 L 145 458  A 4 4 0 0 1 141 454 L 141 424  Z " fill-rule="nonzero" fill="#f0f0f0" stroke="none" />
  <path d="M 140.5 424  A 4.5 4.5 0 0 1 145 419.5 L 868.5 419.5  L 868.5 454  A 4.5 4.5 0 0 1 864 458.5 L 145 458.5  A 4.5 4.5 0 0 1 140.5 454 L 140.5 424  Z " stroke-width="1" stroke="#d7d7d7" fill="none" stroke-opacity="0.498039215686275" />
</svg>