<?xml version="1.0" encoding="utf-8"?>
<svg version="1.1" xmlns:xlink="http://www.w3.org/1999/xlink" width="12px" height="12px" viewBox="1258 1024  12 12" xmlns="http://www.w3.org/2000/svg">
  <path d="M 1258.5 1027  A 2.5 2.5 0 0 1 1261 1024.5 L 1267 1024.5  A 2.5 2.5 0 0 1 1269.5 1027 L 1269.5 1033  A 2.5 2.5 0 0 1 1267 1035.5 L 1261 1035.5  A 2.5 2.5 0 0 1 1258.5 1033 L 1258.5 1027  Z " fill-rule="nonzero" fill="#f0f0f0" stroke="none" />
  <path d="M 1258.5 1027  A 2.5 2.5 0 0 1 1261 1024.5 L 1267 1024.5  A 2.5 2.5 0 0 1 1269.5 1027 L 1269.5 1033  A 2.5 2.5 0 0 1 1267 1035.5 L 1261 1035.5  A 2.5 2.5 0 0 1 1258.5 1033 L 1258.5 1027  Z " stroke-width="1" stroke="#797979" fill="none" />
</svg>