<?xml version="1.0" encoding="utf-8"?>
<svg version="1.1" xmlns:xlink="http://www.w3.org/1999/xlink" width="12px" height="12px" viewBox="340 1078  12 12" xmlns="http://www.w3.org/2000/svg">
  <path d="M 340.5 1081  A 2.5 2.5 0 0 1 343 1078.5 L 349 1078.5  A 2.5 2.5 0 0 1 351.5 1081 L 351.5 1087  A 2.5 2.5 0 0 1 349 1089.5 L 343 1089.5  A 2.5 2.5 0 0 1 340.5 1087 L 340.5 1081  Z " fill-rule="nonzero" fill="#f0f0f0" stroke="none" />
  <path d="M 340.5 1081  A 2.5 2.5 0 0 1 343 1078.5 L 349 1078.5  A 2.5 2.5 0 0 1 351.5 1081 L 351.5 1087  A 2.5 2.5 0 0 1 349 1089.5 L 343 1089.5  A 2.5 2.5 0 0 1 340.5 1087 L 340.5 1081  Z " stroke-width="1" stroke="#797979" fill="none" />
</svg>