<?xml version="1.0" encoding="utf-8"?>
<svg version="1.1" xmlns:xlink="http://www.w3.org/1999/xlink" width="1210px" height="70px" viewBox="158 2327  1210 70" xmlns="http://www.w3.org/2000/svg">
  <path d="M 159 2332  A 4 4 0 0 1 163 2328 L 1363 2328  A 4 4 0 0 1 1367 2332 L 1367 2392  A 4 4 0 0 1 1363 2396 L 163 2396  A 4 4 0 0 1 159 2392 L 159 2332  Z " fill-rule="nonzero" fill="#f0f0f0" stroke="none" />
  <path d="M 158.5 2332  A 4.5 4.5 0 0 1 163 2327.5 L 1363 2327.5  A 4.5 4.5 0 0 1 1367.5 2332 L 1367.5 2392  A 4.5 4.5 0 0 1 1363 2396.5 L 163 2396.5  A 4.5 4.5 0 0 1 158.5 2392 L 158.5 2332  Z " stroke-width="1" stroke="#d7d7d7" fill="none" stroke-opacity="0.505882352941176" />
</svg>