<?xml version="1.0" encoding="utf-8"?>
<svg version="1.1" xmlns:xlink="http://www.w3.org/1999/xlink" width="1210px" height="40px" viewBox="158 535  1210 40" xmlns="http://www.w3.org/2000/svg">
  <path d="M 159 540  A 4 4 0 0 1 163 536 L 1367 536  L 1367 570  A 4 4 0 0 1 1363 574 L 163 574  A 4 4 0 0 1 159 570 L 159 540  Z " fill-rule="nonzero" fill="#f0f0f0" stroke="none" />
  <path d="M 158.5 540  A 4.5 4.5 0 0 1 163 535.5 L 1367.5 535.5  L 1367.5 570  A 4.5 4.5 0 0 1 1363 574.5 L 163 574.5  A 4.5 4.5 0 0 1 158.5 570 L 158.5 540  Z " stroke-width="1" stroke="#d7d7d7" fill="none" stroke-opacity="0.498039215686275" />
</svg>