<?xml version="1.0" encoding="utf-8"?>
<svg version="1.1" xmlns:xlink="http://www.w3.org/1999/xlink" width="12px" height="12px" viewBox="1269 1023  12 12" xmlns="http://www.w3.org/2000/svg">
  <path d="M 1269.5 1026  A 2.5 2.5 0 0 1 1272 1023.5 L 1278 1023.5  A 2.5 2.5 0 0 1 1280.5 1026 L 1280.5 1032  A 2.5 2.5 0 0 1 1278 1034.5 L 1272 1034.5  A 2.5 2.5 0 0 1 1269.5 1032 L 1269.5 1026  Z " fill-rule="nonzero" fill="#ffffff" stroke="none" />
  <path d="M 1269.5 1026  A 2.5 2.5 0 0 1 1272 1023.5 L 1278 1023.5  A 2.5 2.5 0 0 1 1280.5 1026 L 1280.5 1032  A 2.5 2.5 0 0 1 1278 1034.5 L 1272 1034.5  A 2.5 2.5 0 0 1 1269.5 1032 L 1269.5 1026  Z " stroke-width="1" stroke="#797979" fill="none" />
</svg>