<?xml version="1.0" encoding="utf-8"?>
<svg version="1.1" xmlns:xlink="http://www.w3.org/1999/xlink" width="12px" height="12px" viewBox="352 1078  12 12" xmlns="http://www.w3.org/2000/svg">
  <path d="M 352.5 1081  A 2.5 2.5 0 0 1 355 1078.5 L 361 1078.5  A 2.5 2.5 0 0 1 363.5 1081 L 363.5 1087  A 2.5 2.5 0 0 1 361 1089.5 L 355 1089.5  A 2.5 2.5 0 0 1 352.5 1087 L 352.5 1081  Z " fill-rule="nonzero" fill="#f0f0f0" stroke="none" />
  <path d="M 352.5 1081  A 2.5 2.5 0 0 1 355 1078.5 L 361 1078.5  A 2.5 2.5 0 0 1 363.5 1081 L 363.5 1087  A 2.5 2.5 0 0 1 361 1089.5 L 355 1089.5  A 2.5 2.5 0 0 1 352.5 1087 L 352.5 1081  Z " stroke-width="1" stroke="#797979" fill="none" />
  <path d="M 354.571428571429 1084  L 357.142857142857 1086.57142857143  " stroke-width="2.57142857142857" stroke="#797979" fill="none" />
  <path d="M 357.142857142857 1086.57142857143  L 361.428571428571 1080.57142857143  " stroke-width="2.57142857142857" stroke="#797979" fill="none" />
</svg>