<?xml version="1.0" encoding="utf-8"?>
<svg version="1.1" xmlns:xlink="http://www.w3.org/1999/xlink" width="12px" height="12px" viewBox="644 458  12 12" xmlns="http://www.w3.org/2000/svg">
  <path d="M 644.5 461  A 2.5 2.5 0 0 1 647 458.5 L 653 458.5  A 2.5 2.5 0 0 1 655.5 461 L 655.5 467  A 2.5 2.5 0 0 1 653 469.5 L 647 469.5  A 2.5 2.5 0 0 1 644.5 467 L 644.5 461  Z " fill-rule="nonzero" fill="#f0f0f0" stroke="none" />
  <path d="M 644.5 461  A 2.5 2.5 0 0 1 647 458.5 L 653 458.5  A 2.5 2.5 0 0 1 655.5 461 L 655.5 467  A 2.5 2.5 0 0 1 653 469.5 L 647 469.5  A 2.5 2.5 0 0 1 644.5 467 L 644.5 461  Z " stroke-width="1" stroke="#797979" fill="none" />
</svg>