<?xml version="1.0" encoding="utf-8"?>
<svg version="1.1" xmlns:xlink="http://www.w3.org/1999/xlink" width="1226px" height="321px" xmlns="http://www.w3.org/2000/svg">
  <g transform="matrix(1 0 0 1 -139 -1582 )">
    <path d="M 140 1587  A 4 4 0 0 1 144 1583 L 1364 1583  L 1364 1898  A 4 4 0 0 1 1360 1902 L 144 1902  A 4 4 0 0 1 140 1898 L 140 1587  Z " fill-rule="nonzero" fill="#ffffff" stroke="none" />
    <path d="M 139.5 1587  A 4.5 4.5 0 0 1 144 1582.5 L 1364.5 1582.5  L 1364.5 1898  A 4.5 4.5 0 0 1 1360 1902.5 L 144 1902.5  A 4.5 4.5 0 0 1 139.5 1898 L 139.5 1587  Z " stroke-width="1" stroke="#d7d7d7" fill="none" stroke-opacity="0.505882352941176" />
  </g>
</svg>