<?xml version="1.0" encoding="utf-8"?>
<svg version="1.1" xmlns:xlink="http://www.w3.org/1999/xlink" width="1226px" height="326px" xmlns="http://www.w3.org/2000/svg">
  <g transform="matrix(1 0 0 1 -139 -2311 )">
    <path d="M 140 2316  A 4 4 0 0 1 144 2312 L 1364 2312  L 1364 2632  A 4 4 0 0 1 1360 2636 L 144 2636  A 4 4 0 0 1 140 2632 L 140 2316  Z " fill-rule="nonzero" fill="#ffffff" stroke="none" />
    <path d="M 139.5 2316  A 4.5 4.5 0 0 1 144 2311.5 L 1364.5 2311.5  L 1364.5 2632  A 4.5 4.5 0 0 1 1360 2636.5 L 144 2636.5  A 4.5 4.5 0 0 1 139.5 2632 L 139.5 2316  Z " stroke-width="1" stroke="#d7d7d7" fill="none" stroke-opacity="0.505882352941176" />
  </g>
</svg>