<?xml version="1.0" encoding="utf-8"?>
<svg version="1.1" xmlns:xlink="http://www.w3.org/1999/xlink" width="1226px" height="70px" viewBox="139 3022  1226 70" xmlns="http://www.w3.org/2000/svg">
  <path d="M 140 3027  A 4 4 0 0 1 144 3023 L 1364 3023  L 1364 3087  A 4 4 0 0 1 1360 3091 L 144 3091  A 4 4 0 0 1 140 3087 L 140 3027  Z " fill-rule="nonzero" fill="#f0f0f0" stroke="none" />
  <path d="M 139.5 3027  A 4.5 4.5 0 0 1 144 3022.5 L 1364.5 3022.5  L 1364.5 3087  A 4.5 4.5 0 0 1 1360 3091.5 L 144 3091.5  A 4.5 4.5 0 0 1 139.5 3087 L 139.5 3027  Z " stroke-width="1" stroke="#d7d7d7" fill="none" stroke-opacity="0.498039215686275" />
</svg>