<?xml version="1.0" encoding="utf-8"?>
<svg version="1.1" xmlns:xlink="http://www.w3.org/1999/xlink" width="12px" height="12px" viewBox="1068 752  12 12" xmlns="http://www.w3.org/2000/svg">
  <path d="M 1068.5 755  A 2.5 2.5 0 0 1 1071 752.5 L 1077 752.5  A 2.5 2.5 0 0 1 1079.5 755 L 1079.5 761  A 2.5 2.5 0 0 1 1077 763.5 L 1071 763.5  A 2.5 2.5 0 0 1 1068.5 761 L 1068.5 755  Z " fill-rule="nonzero" fill="#f0f0f0" stroke="none" />
  <path d="M 1068.5 755  A 2.5 2.5 0 0 1 1071 752.5 L 1077 752.5  A 2.5 2.5 0 0 1 1079.5 755 L 1079.5 761  A 2.5 2.5 0 0 1 1077 763.5 L 1071 763.5  A 2.5 2.5 0 0 1 1068.5 761 L 1068.5 755  Z " stroke-width="1" stroke="#797979" fill="none" />
</svg>