<?xml version="1.0" encoding="utf-8"?>
<svg version="1.1" xmlns:xlink="http://www.w3.org/1999/xlink" width="12px" height="12px" viewBox="341 1079  12 12" xmlns="http://www.w3.org/2000/svg">
  <path d="M 341.5 1082  A 2.5 2.5 0 0 1 344 1079.5 L 350 1079.5  A 2.5 2.5 0 0 1 352.5 1082 L 352.5 1088  A 2.5 2.5 0 0 1 350 1090.5 L 344 1090.5  A 2.5 2.5 0 0 1 341.5 1088 L 341.5 1082  Z " fill-rule="nonzero" fill="#ffffff" stroke="none" />
  <path d="M 341.5 1082  A 2.5 2.5 0 0 1 344 1079.5 L 350 1079.5  A 2.5 2.5 0 0 1 352.5 1082 L 352.5 1088  A 2.5 2.5 0 0 1 350 1090.5 L 344 1090.5  A 2.5 2.5 0 0 1 341.5 1088 L 341.5 1082  Z " stroke-width="1" stroke="#f60068" fill="none" />
  <path d="M 343.571428571429 1085  L 346.142857142857 1087.57142857143  " stroke-width="2.57142857142857" stroke="#f60068" fill="none" />
  <path d="M 346.142857142857 1087.57142857143  L 350.428571428571 1081.57142857143  " stroke-width="2.57142857142857" stroke="#f60068" fill="none" />
</svg>