<?xml version="1.0" encoding="utf-8"?>
<svg version="1.1" xmlns:xlink="http://www.w3.org/1999/xlink" width="1212px" height="88px" viewBox="160 2731  1212 88" xmlns="http://www.w3.org/2000/svg">
  <path d="M 161 2736  A 4 4 0 0 1 165 2732 L 1371 2732  L 1371 2814  A 4 4 0 0 1 1367 2818 L 165 2818  A 4 4 0 0 1 161 2814 L 161 2736  Z " fill-rule="nonzero" fill="#ffffff" stroke="none" />
  <path d="M 160.5 2736  A 4.5 4.5 0 0 1 165 2731.5 L 1371.5 2731.5  L 1371.5 2814  A 4.5 4.5 0 0 1 1367 2818.5 L 165 2818.5  A 4.5 4.5 0 0 1 160.5 2814 L 160.5 2736  Z " stroke-width="1" stroke="#d7d7d7" fill="none" stroke-opacity="0.498039215686275" />
</svg>