<?xml version="1.0" encoding="utf-8"?>
<svg version="1.1" xmlns:xlink="http://www.w3.org/1999/xlink" width="1226px" height="203px" xmlns="http://www.w3.org/2000/svg">
  <g transform="matrix(1 0 0 1 -140 -804 )">
    <path d="M 141 809  A 4 4 0 0 1 145 805 L 1365 805  L 1365 1002  A 4 4 0 0 1 1361 1006 L 145 1006  A 4 4 0 0 1 141 1002 L 141 809  Z " fill-rule="nonzero" fill="#ffffff" stroke="none" />
    <path d="M 140.5 809  A 4.5 4.5 0 0 1 145 804.5 L 1365.5 804.5  L 1365.5 1002  A 4.5 4.5 0 0 1 1361 1006.5 L 145 1006.5  A 4.5 4.5 0 0 1 140.5 1002 L 140.5 809  Z " stroke-width="1" stroke="#d7d7d7" fill="none" stroke-opacity="0.498039215686275" />
  </g>
</svg>