<?xml version="1.0" encoding="utf-8"?>
<svg version="1.1" xmlns:xlink="http://www.w3.org/1999/xlink" width="12px" height="12px" viewBox="1349 817  12 12" xmlns="http://www.w3.org/2000/svg">
  <path d="M 1349.5 820  A 2.5 2.5 0 0 1 1352 817.5 L 1358 817.5  A 2.5 2.5 0 0 1 1360.5 820 L 1360.5 826  A 2.5 2.5 0 0 1 1358 828.5 L 1352 828.5  A 2.5 2.5 0 0 1 1349.5 826 L 1349.5 820  Z " fill-rule="nonzero" fill="#ffffff" stroke="none" />
  <path d="M 1349.5 820  A 2.5 2.5 0 0 1 1352 817.5 L 1358 817.5  A 2.5 2.5 0 0 1 1360.5 820 L 1360.5 826  A 2.5 2.5 0 0 1 1358 828.5 L 1352 828.5  A 2.5 2.5 0 0 1 1349.5 826 L 1349.5 820  Z " stroke-width="1" stroke="#797979" fill="none" />
</svg>