<?xml version="1.0" encoding="utf-8"?>
<svg version="1.1" xmlns:xlink="http://www.w3.org/1999/xlink" width="1222px" height="203px" xmlns="http://www.w3.org/2000/svg">
  <g transform="matrix(1 0 0 1 -140 -1145 )">
    <path d="M 141 1150  A 4 4 0 0 1 145 1146 L 1361 1146  L 1361 1343  A 4 4 0 0 1 1357 1347 L 145 1347  A 4 4 0 0 1 141 1343 L 141 1150  Z " fill-rule="nonzero" fill="#ffffff" stroke="none" />
    <path d="M 140.5 1150  A 4.5 4.5 0 0 1 145 1145.5 L 1361.5 1145.5  L 1361.5 1343  A 4.5 4.5 0 0 1 1357 1347.5 L 145 1347.5  A 4.5 4.5 0 0 1 140.5 1343 L 140.5 1150  Z " stroke-width="1" stroke="#d7d7d7" fill="none" stroke-opacity="0.498039215686275" />
  </g>
</svg>