<?xml version="1.0" encoding="utf-8"?>
<svg version="1.1" xmlns:xlink="http://www.w3.org/1999/xlink" width="1226px" height="70px" viewBox="139 753  1226 70" xmlns="http://www.w3.org/2000/svg">
  <path d="M 140 758  A 4 4 0 0 1 144 754 L 1364 754  L 1364 818  A 4 4 0 0 1 1360 822 L 144 822  A 4 4 0 0 1 140 818 L 140 758  Z " fill-rule="nonzero" fill="#f0f0f0" stroke="none" />
  <path d="M 139.5 758  A 4.5 4.5 0 0 1 144 753.5 L 1364.5 753.5  L 1364.5 818  A 4.5 4.5 0 0 1 1360 822.5 L 144 822.5  A 4.5 4.5 0 0 1 139.5 818 L 139.5 758  Z " stroke-width="1" stroke="#d7d7d7" fill="none" stroke-opacity="0.505882352941176" />
</svg>