<?xml version="1.0" encoding="utf-8"?>
<svg version="1.1" xmlns:xlink="http://www.w3.org/1999/xlink" width="12px" height="12px" viewBox="343 595  12 12" xmlns="http://www.w3.org/2000/svg">
  <path d="M 343.5 598  A 2.5 2.5 0 0 1 346 595.5 L 352 595.5  A 2.5 2.5 0 0 1 354.5 598 L 354.5 604  A 2.5 2.5 0 0 1 352 606.5 L 346 606.5  A 2.5 2.5 0 0 1 343.5 604 L 343.5 598  Z " fill-rule="nonzero" fill="#ffffff" stroke="none" />
  <path d="M 343.5 598  A 2.5 2.5 0 0 1 346 595.5 L 352 595.5  A 2.5 2.5 0 0 1 354.5 598 L 354.5 604  A 2.5 2.5 0 0 1 352 606.5 L 346 606.5  A 2.5 2.5 0 0 1 343.5 604 L 343.5 598  Z " stroke-width="1" stroke="#797979" fill="none" />
</svg>