<?xml version="1.0" encoding="utf-8"?>
<svg version="1.1" xmlns:xlink="http://www.w3.org/1999/xlink" width="12px" height="12px" viewBox="1359 332  12 12" xmlns="http://www.w3.org/2000/svg">
  <path d="M 1359.5 335  A 2.5 2.5 0 0 1 1362 332.5 L 1368 332.5  A 2.5 2.5 0 0 1 1370.5 335 L 1370.5 341  A 2.5 2.5 0 0 1 1368 343.5 L 1362 343.5  A 2.5 2.5 0 0 1 1359.5 341 L 1359.5 335  Z " fill-rule="nonzero" fill="#f0f0f0" stroke="none" />
  <path d="M 1359.5 335  A 2.5 2.5 0 0 1 1362 332.5 L 1368 332.5  A 2.5 2.5 0 0 1 1370.5 335 L 1370.5 341  A 2.5 2.5 0 0 1 1368 343.5 L 1362 343.5  A 2.5 2.5 0 0 1 1359.5 341 L 1359.5 335  Z " stroke-width="1" stroke="#797979" fill="none" />
  <path d="M 1361.57142857143 338  L 1364.14285714286 340.571428571429  " stroke-width="2.57142857142857" stroke="#797979" fill="none" />
  <path d="M 1364.14285714286 340.571428571429  L 1368.42857142857 334.571428571429  " stroke-width="2.57142857142857" stroke="#797979" fill="none" />
</svg>