<?xml version="1.0" encoding="utf-8"?>
<svg version="1.1" xmlns:xlink="http://www.w3.org/1999/xlink" width="12px" height="12px" viewBox="1075 1966  12 12" xmlns="http://www.w3.org/2000/svg">
  <path d="M 1075.5 1969  A 2.5 2.5 0 0 1 1078 1966.5 L 1084 1966.5  A 2.5 2.5 0 0 1 1086.5 1969 L 1086.5 1975  A 2.5 2.5 0 0 1 1084 1977.5 L 1078 1977.5  A 2.5 2.5 0 0 1 1075.5 1975 L 1075.5 1969  Z " fill-rule="nonzero" fill="#ffffff" stroke="none" />
  <path d="M 1075.5 1969  A 2.5 2.5 0 0 1 1078 1966.5 L 1084 1966.5  A 2.5 2.5 0 0 1 1086.5 1969 L 1086.5 1975  A 2.5 2.5 0 0 1 1084 1977.5 L 1078 1977.5  A 2.5 2.5 0 0 1 1075.5 1975 L 1075.5 1969  Z " stroke-width="1" stroke="#f60068" fill="none" />
  <path d="M 1077.57142857143 1972  L 1080.14285714286 1974.57142857143  " stroke-width="2.57142857142857" stroke="#f60068" fill="none" />
  <path d="M 1080.14285714286 1974.57142857143  L 1084.42857142857 1968.57142857143  " stroke-width="2.57142857142857" stroke="#f60068" fill="none" />
</svg>