<?xml version="1.0" encoding="utf-8"?>
<svg version="1.1" xmlns:xlink="http://www.w3.org/1999/xlink" width="1226px" height="40px" viewBox="139 643  1226 40" xmlns="http://www.w3.org/2000/svg">
  <path d="M 140 648  A 4 4 0 0 1 144 644 L 1364 644  L 1364 678  A 4 4 0 0 1 1360 682 L 144 682  A 4 4 0 0 1 140 678 L 140 648  Z " fill-rule="nonzero" fill="#ffffff" stroke="none" />
  <path d="M 139.5 648  A 4.5 4.5 0 0 1 144 643.5 L 1364.5 643.5  L 1364.5 678  A 4.5 4.5 0 0 1 1360 682.5 L 144 682.5  A 4.5 4.5 0 0 1 139.5 678 L 139.5 648  Z " stroke-width="1" stroke="#d7d7d7" fill="none" stroke-opacity="0.498039215686275" />
</svg>