<?xml version="1.0" encoding="utf-8"?>
<svg version="1.1" xmlns:xlink="http://www.w3.org/1999/xlink" width="1238px" height="203px" xmlns="http://www.w3.org/2000/svg">
  <g transform="matrix(1 0 0 1 -134 -670 )">
    <path d="M 135 675  A 4 4 0 0 1 139 671 L 1371 671  L 1371 868  A 4 4 0 0 1 1367 872 L 139 872  A 4 4 0 0 1 135 868 L 135 675  Z " fill-rule="nonzero" fill="#ffffff" stroke="none" />
    <path d="M 134.5 675  A 4.5 4.5 0 0 1 139 670.5 L 1371.5 670.5  L 1371.5 868  A 4.5 4.5 0 0 1 1367 872.5 L 139 872.5  A 4.5 4.5 0 0 1 134.5 868 L 134.5 675  Z " stroke-width="1" stroke="#d7d7d7" fill="none" stroke-opacity="0.498039215686275" />
  </g>
</svg>