<?xml version="1.0" encoding="utf-8"?>
<svg version="1.1" xmlns:xlink="http://www.w3.org/1999/xlink" width="12px" height="12px" viewBox="1075 1863  12 12" xmlns="http://www.w3.org/2000/svg">
  <path d="M 1075.5 1866  A 2.5 2.5 0 0 1 1078 1863.5 L 1084 1863.5  A 2.5 2.5 0 0 1 1086.5 1866 L 1086.5 1872  A 2.5 2.5 0 0 1 1084 1874.5 L 1078 1874.5  A 2.5 2.5 0 0 1 1075.5 1872 L 1075.5 1866  Z " fill-rule="nonzero" fill="#f0f0f0" stroke="none" />
  <path d="M 1075.5 1866  A 2.5 2.5 0 0 1 1078 1863.5 L 1084 1863.5  A 2.5 2.5 0 0 1 1086.5 1866 L 1086.5 1872  A 2.5 2.5 0 0 1 1084 1874.5 L 1078 1874.5  A 2.5 2.5 0 0 1 1075.5 1872 L 1075.5 1866  Z " stroke-width="1" stroke="#797979" fill="none" />
  <path d="M 1077.57142857143 1869  L 1080.14285714286 1871.57142857143  " stroke-width="2.57142857142857" stroke="#797979" fill="none" />
  <path d="M 1080.14285714286 1871.57142857143  L 1084.42857142857 1865.57142857143  " stroke-width="2.57142857142857" stroke="#797979" fill="none" />
</svg>