<?xml version="1.0" encoding="utf-8"?>
<svg version="1.1" xmlns:xlink="http://www.w3.org/1999/xlink" width="12px" height="12px" viewBox="1190 657  12 12" xmlns="http://www.w3.org/2000/svg">
  <path d="M 1190.5 660  A 2.5 2.5 0 0 1 1193 657.5 L 1199 657.5  A 2.5 2.5 0 0 1 1201.5 660 L 1201.5 666  A 2.5 2.5 0 0 1 1199 668.5 L 1193 668.5  A 2.5 2.5 0 0 1 1190.5 666 L 1190.5 660  Z " fill-rule="nonzero" fill="#ffffff" stroke="none" />
  <path d="M 1190.5 660  A 2.5 2.5 0 0 1 1193 657.5 L 1199 657.5  A 2.5 2.5 0 0 1 1201.5 660 L 1201.5 666  A 2.5 2.5 0 0 1 1199 668.5 L 1193 668.5  A 2.5 2.5 0 0 1 1190.5 666 L 1190.5 660  Z " stroke-width="1" stroke="#f60068" fill="none" />
  <path d="M 1192.57142857143 663  L 1195.14285714286 665.571428571429  " stroke-width="2.57142857142857" stroke="#f60068" fill="none" />
  <path d="M 1195.14285714286 665.571428571429  L 1199.42857142857 659.571428571429  " stroke-width="2.57142857142857" stroke="#f60068" fill="none" />
</svg>