<?xml version="1.0" encoding="utf-8"?>
<svg version="1.1" xmlns:xlink="http://www.w3.org/1999/xlink" width="1222px" height="88px" viewBox="140 976  1222 88" xmlns="http://www.w3.org/2000/svg">
  <path d="M 141 981  A 4 4 0 0 1 145 977 L 1361 977  L 1361 1059  A 4 4 0 0 1 1357 1063 L 145 1063  A 4 4 0 0 1 141 1059 L 141 981  Z " fill-rule="nonzero" fill="#f0f0f0" stroke="none" />
  <path d="M 140.5 981  A 4.5 4.5 0 0 1 145 976.5 L 1361.5 976.5  L 1361.5 1059  A 4.5 4.5 0 0 1 1357 1063.5 L 145 1063.5  A 4.5 4.5 0 0 1 140.5 1059 L 140.5 981  Z " stroke-width="1" stroke="#d7d7d7" fill="none" stroke-opacity="0.498039215686275" />
</svg>