<?xml version="1.0" encoding="utf-8"?>
<svg version="1.1" xmlns:xlink="http://www.w3.org/1999/xlink" width="729px" height="50px" viewBox="151 418  729 50" xmlns="http://www.w3.org/2000/svg">
  <path d="M 152 423  A 4 4 0 0 1 156 419 L 879 419  L 879 463  A 4 4 0 0 1 875 467 L 156 467  A 4 4 0 0 1 152 463 L 152 423  Z " fill-rule="nonzero" fill="#ffffff" stroke="none" fill-opacity="0.996078431372549" />
  <path d="M 151.5 423  A 4.5 4.5 0 0 1 156 418.5 L 879.5 418.5  L 879.5 463  A 4.5 4.5 0 0 1 875 467.5 L 156 467.5  A 4.5 4.5 0 0 1 151.5 463 L 151.5 423  Z " stroke-width="1" stroke="#d7d7d7" fill="none" stroke-opacity="0.505882352941176" />
</svg>