<?xml version="1.0" encoding="utf-8"?>
<svg version="1.1" xmlns:xlink="http://www.w3.org/1999/xlink" width="12px" height="12px" viewBox="1166 337  12 12" xmlns="http://www.w3.org/2000/svg">
  <path d="M 1166.5 340  A 2.5 2.5 0 0 1 1169 337.5 L 1175 337.5  A 2.5 2.5 0 0 1 1177.5 340 L 1177.5 346  A 2.5 2.5 0 0 1 1175 348.5 L 1169 348.5  A 2.5 2.5 0 0 1 1166.5 346 L 1166.5 340  Z " fill-rule="nonzero" fill="#ffffff" stroke="none" />
  <path d="M 1166.5 340  A 2.5 2.5 0 0 1 1169 337.5 L 1175 337.5  A 2.5 2.5 0 0 1 1177.5 340 L 1177.5 346  A 2.5 2.5 0 0 1 1175 348.5 L 1169 348.5  A 2.5 2.5 0 0 1 1166.5 346 L 1166.5 340  Z " stroke-width="1" stroke="#797979" fill="none" />
</svg>