<?xml version="1.0" encoding="utf-8"?>
<svg version="1.1" xmlns:xlink="http://www.w3.org/1999/xlink" width="12px" height="12px" viewBox="1068 622  12 12" xmlns="http://www.w3.org/2000/svg">
  <path d="M 1068.5 625  A 2.5 2.5 0 0 1 1071 622.5 L 1077 622.5  A 2.5 2.5 0 0 1 1079.5 625 L 1079.5 631  A 2.5 2.5 0 0 1 1077 633.5 L 1071 633.5  A 2.5 2.5 0 0 1 1068.5 631 L 1068.5 625  Z " fill-rule="nonzero" fill="#ffffff" stroke="none" />
  <path d="M 1068.5 625  A 2.5 2.5 0 0 1 1071 622.5 L 1077 622.5  A 2.5 2.5 0 0 1 1079.5 625 L 1079.5 631  A 2.5 2.5 0 0 1 1077 633.5 L 1071 633.5  A 2.5 2.5 0 0 1 1068.5 631 L 1068.5 625  Z " stroke-width="1" stroke="#f60068" fill="none" />
  <path d="M 1070.57142857143 628  L 1073.14285714286 630.571428571429  " stroke-width="2.57142857142857" stroke="#f60068" fill="none" />
  <path d="M 1073.14285714286 630.571428571429  L 1077.42857142857 624.571428571429  " stroke-width="2.57142857142857" stroke="#f60068" fill="none" />
</svg>