<?xml version="1.0" encoding="utf-8"?>
<svg version="1.1" xmlns:xlink="http://www.w3.org/1999/xlink" width="12px" height="12px" viewBox="197 657  12 12" xmlns="http://www.w3.org/2000/svg">
  <path d="M 197.5 660  A 2.5 2.5 0 0 1 200 657.5 L 206 657.5  A 2.5 2.5 0 0 1 208.5 660 L 208.5 666  A 2.5 2.5 0 0 1 206 668.5 L 200 668.5  A 2.5 2.5 0 0 1 197.5 666 L 197.5 660  Z " fill-rule="nonzero" fill="#ffffff" stroke="none" />
  <path d="M 197.5 660  A 2.5 2.5 0 0 1 200 657.5 L 206 657.5  A 2.5 2.5 0 0 1 208.5 660 L 208.5 666  A 2.5 2.5 0 0 1 206 668.5 L 200 668.5  A 2.5 2.5 0 0 1 197.5 666 L 197.5 660  Z " stroke-width="1" stroke="#f60068" fill="none" />
  <path d="M 199.571428571429 663  L 202.142857142857 665.571428571429  " stroke-width="2.57142857142857" stroke="#f60068" fill="none" />
  <path d="M 202.142857142857 665.571428571429  L 206.428571428571 659.571428571429  " stroke-width="2.57142857142857" stroke="#f60068" fill="none" />
</svg>