<?xml version="1.0" encoding="utf-8"?>
<svg version="1.1" xmlns:xlink="http://www.w3.org/1999/xlink" width="729px" height="70px" viewBox="140 2199  729 70" xmlns="http://www.w3.org/2000/svg">
  <path d="M 141 2204  A 4 4 0 0 1 145 2200 L 868 2200  L 868 2264  A 4 4 0 0 1 864 2268 L 145 2268  A 4 4 0 0 1 141 2264 L 141 2204  Z " fill-rule="nonzero" fill="#f0f0f0" stroke="none" />
  <path d="M 140.5 2204  A 4.5 4.5 0 0 1 145 2199.5 L 868.5 2199.5  L 868.5 2264  A 4.5 4.5 0 0 1 864 2268.5 L 145 2268.5  A 4.5 4.5 0 0 1 140.5 2264 L 140.5 2204  Z " stroke-width="1" stroke="#d7d7d7" fill="none" stroke-opacity="0.498039215686275" />
</svg>