<?xml version="1.0" encoding="utf-8"?>
<svg version="1.1" xmlns:xlink="http://www.w3.org/1999/xlink" width="1238px" height="88px" viewBox="134 502  1238 88" xmlns="http://www.w3.org/2000/svg">
  <path d="M 135 507  A 4 4 0 0 1 139 503 L 1371 503  L 1371 585  A 4 4 0 0 1 1367 589 L 139 589  A 4 4 0 0 1 135 585 L 135 507  Z " fill-rule="nonzero" fill="#ffffff" stroke="none" />
  <path d="M 134.5 507  A 4.5 4.5 0 0 1 139 502.5 L 1371.5 502.5  L 1371.5 585  A 4.5 4.5 0 0 1 1367 589.5 L 139 589.5  A 4.5 4.5 0 0 1 134.5 585 L 134.5 507  Z " stroke-width="1" stroke="#d7d7d7" fill="none" stroke-opacity="0.498039215686275" />
</svg>