<?xml version="1.0" encoding="utf-8"?>
<svg version="1.1" xmlns:xlink="http://www.w3.org/1999/xlink" width="12px" height="12px" viewBox="1075 2083  12 12" xmlns="http://www.w3.org/2000/svg">
  <path d="M 1075.5 2086  A 2.5 2.5 0 0 1 1078 2083.5 L 1084 2083.5  A 2.5 2.5 0 0 1 1086.5 2086 L 1086.5 2092  A 2.5 2.5 0 0 1 1084 2094.5 L 1078 2094.5  A 2.5 2.5 0 0 1 1075.5 2092 L 1075.5 2086  Z " fill-rule="nonzero" fill="#f0f0f0" stroke="none" />
  <path d="M 1075.5 2086  A 2.5 2.5 0 0 1 1078 2083.5 L 1084 2083.5  A 2.5 2.5 0 0 1 1086.5 2086 L 1086.5 2092  A 2.5 2.5 0 0 1 1084 2094.5 L 1078 2094.5  A 2.5 2.5 0 0 1 1075.5 2092 L 1075.5 2086  Z " stroke-width="1" stroke="#797979" fill="none" />
</svg>