<?xml version="1.0" encoding="utf-8"?>
<svg version="1.1" xmlns:xlink="http://www.w3.org/1999/xlink" width="12px" height="12px" viewBox="696 657  12 12" xmlns="http://www.w3.org/2000/svg">
  <path d="M 696.5 660  A 2.5 2.5 0 0 1 699 657.5 L 705 657.5  A 2.5 2.5 0 0 1 707.5 660 L 707.5 666  A 2.5 2.5 0 0 1 705 668.5 L 699 668.5  A 2.5 2.5 0 0 1 696.5 666 L 696.5 660  Z " fill-rule="nonzero" fill="#f0f0f0" stroke="none" />
  <path d="M 696.5 660  A 2.5 2.5 0 0 1 699 657.5 L 705 657.5  A 2.5 2.5 0 0 1 707.5 660 L 707.5 666  A 2.5 2.5 0 0 1 705 668.5 L 699 668.5  A 2.5 2.5 0 0 1 696.5 666 L 696.5 660  Z " stroke-width="1" stroke="#797979" fill="none" />
  <path d="M 698.571428571429 663  L 701.142857142857 665.571428571429  " stroke-width="2.57142857142857" stroke="#797979" fill="none" />
  <path d="M 701.142857142857 665.571428571429  L 705.428571428571 659.571428571429  " stroke-width="2.57142857142857" stroke="#797979" fill="none" />
</svg>