<?xml version="1.0" encoding="utf-8"?>
<svg version="1.1" xmlns:xlink="http://www.w3.org/1999/xlink" width="733px" height="50px" viewBox="140 1723  733 50" xmlns="http://www.w3.org/2000/svg">
  <path d="M 141 1728  A 4 4 0 0 1 145 1724 L 872 1724  L 872 1768  A 4 4 0 0 1 868 1772 L 145 1772  A 4 4 0 0 1 141 1768 L 141 1728  Z " fill-rule="nonzero" fill="#f0f0f0" stroke="none" />
  <path d="M 140.5 1728  A 4.5 4.5 0 0 1 145 1723.5 L 872.5 1723.5  L 872.5 1768  A 4.5 4.5 0 0 1 868 1772.5 L 145 1772.5  A 4.5 4.5 0 0 1 140.5 1768 L 140.5 1728  Z " stroke-width="1" stroke="#d7d7d7" fill="none" stroke-opacity="0.505882352941176" />
</svg>