<?xml version="1.0" encoding="utf-8"?>
<svg version="1.1" xmlns:xlink="http://www.w3.org/1999/xlink" width="17px" height="17px" viewBox="1447 229  17 17" xmlns="http://www.w3.org/2000/svg">
  <path d="M 1455.5 229.5  C 1459.98 229.5  1463.5 233.02  1463.5 237.5  C 1463.5 241.98  1459.98 245.5  1455.5 245.5  C 1451.02 245.5  1447.5 241.98  1447.5 237.5  C 1447.5 233.02  1451.02 229.5  1455.5 229.5  Z " fill-rule="nonzero" fill="#f0f0f0" stroke="none" />
  <path d="M 1455.5 229.5  C 1459.98 229.5  1463.5 233.02  1463.5 237.5  C 1463.5 241.98  1459.98 245.5  1455.5 245.5  C 1451.02 245.5  1447.5 241.98  1447.5 237.5  C 1447.5 233.02  1451.02 229.5  1455.5 229.5  Z " stroke-width="1" stroke="#797979" fill="none" stroke-opacity="0.996078431372549" />
  <path d="M 1455.5 241.75  C 1453.12 241.75  1451.25 239.88  1451.25 237.5  C 1451.25 235.12  1453.12 233.25  1455.5 233.25  C 1457.88 233.25  1459.75 235.12  1459.75 237.5  C 1459.75 239.88  1457.88 241.75  1455.5 241.75  " fill-rule="nonzero" fill="#797979" stroke="none" fill-opacity="0.996078431372549" />
</svg>