<?xml version="1.0" encoding="utf-8"?>
<svg version="1.1" xmlns:xlink="http://www.w3.org/1999/xlink" width="17px" height="17px" viewBox="1263 229  17 17" xmlns="http://www.w3.org/2000/svg">
  <path d="M 1271.5 229.5  C 1275.98 229.5  1279.5 233.02  1279.5 237.5  C 1279.5 241.98  1275.98 245.5  1271.5 245.5  C 1267.02 245.5  1263.5 241.98  1263.5 237.5  C 1263.5 233.02  1267.02 229.5  1271.5 229.5  Z " fill-rule="nonzero" fill="#f0f0f0" stroke="none" />
  <path d="M 1271.5 229.5  C 1275.98 229.5  1279.5 233.02  1279.5 237.5  C 1279.5 241.98  1275.98 245.5  1271.5 245.5  C 1267.02 245.5  1263.5 241.98  1263.5 237.5  C 1263.5 233.02  1267.02 229.5  1271.5 229.5  Z " stroke-width="1" stroke="#797979" fill="none" stroke-opacity="0.996078431372549" />
  <path d="M 1271.5 241.75  C 1269.12 241.75  1267.25 239.88  1267.25 237.5  C 1267.25 235.12  1269.12 233.25  1271.5 233.25  C 1273.88 233.25  1275.75 235.12  1275.75 237.5  C 1275.75 239.88  1273.88 241.75  1271.5 241.75  " fill-rule="nonzero" fill="#797979" stroke="none" fill-opacity="0.996078431372549" />
</svg>