<?xml version="1.0" encoding="utf-8"?>
<svg version="1.1" xmlns:xlink="http://www.w3.org/1999/xlink" width="17px" height="17px" viewBox="1263 229  17 17" xmlns="http://www.w3.org/2000/svg">
  <path d="M 1271.5 229  C 1276.26 229  1280 232.74  1280 237.5  C 1280 242.26  1276.26 246  1271.5 246  C 1266.74 246  1263 242.26  1263 237.5  C 1263 232.74  1266.74 229  1271.5 229  Z " fill-rule="nonzero" fill="#ffffff" stroke="none" />
  <path d="M 1271.5 229.5  C 1275.98 229.5  1279.5 233.02  1279.5 237.5  C 1279.5 241.98  1275.98 245.5  1271.5 245.5  C 1267.02 245.5  1263.5 241.98  1263.5 237.5  C 1263.5 233.02  1267.02 229.5  1271.5 229.5  Z " stroke-width="1" stroke="#f60068" fill="none" />
  <path d="M 1271.5 241.75  C 1269.12 241.75  1267.25 239.88  1267.25 237.5  C 1267.25 235.12  1269.12 233.25  1271.5 233.25  C 1273.88 233.25  1275.75 235.12  1275.75 237.5  C 1275.75 239.88  1273.88 241.75  1271.5 241.75  " fill-rule="nonzero" fill="#f60068" stroke="none" />
</svg>