<?xml version="1.0" encoding="utf-8"?>
<svg version="1.1" xmlns:xlink="http://www.w3.org/1999/xlink" width="17px" height="17px" viewBox="1079 230  17 17" xmlns="http://www.w3.org/2000/svg">
  <path d="M 1087.5 230  C 1092.26 230  1096 233.74  1096 238.5  C 1096 243.26  1092.26 247  1087.5 247  C 1082.74 247  1079 243.26  1079 238.5  C 1079 233.74  1082.74 230  1087.5 230  Z " fill-rule="nonzero" fill="#ffffff" stroke="none" />
  <path d="M 1087.5 230.5  C 1091.98 230.5  1095.5 234.02  1095.5 238.5  C 1095.5 242.98  1091.98 246.5  1087.5 246.5  C 1083.02 246.5  1079.5 242.98  1079.5 238.5  C 1079.5 234.02  1083.02 230.5  1087.5 230.5  Z " stroke-width="1" stroke="#f60068" fill="none" />
  <path d="M 1087.5 242.75  C 1085.12 242.75  1083.25 240.88  1083.25 238.5  C 1083.25 236.12  1085.12 234.25  1087.5 234.25  C 1089.88 234.25  1091.75 236.12  1091.75 238.5  C 1091.75 240.88  1089.88 242.75  1087.5 242.75  " fill-rule="nonzero" fill="#f60068" stroke="none" />
</svg>