<?xml version="1.0" encoding="utf-8"?>
<svg version="1.1" xmlns:xlink="http://www.w3.org/1999/xlink" width="17px" height="17px" viewBox="1306 1667  17 17" xmlns="http://www.w3.org/2000/svg">
  <path d="M 1314.5 1667  C 1319.26 1667  1323 1670.74  1323 1675.5  C 1323 1680.26  1319.26 1684  1314.5 1684  C 1309.74 1684  1306 1680.26  1306 1675.5  C 1306 1670.74  1309.74 1667  1314.5 1667  Z " fill-rule="nonzero" fill="#ffffff" stroke="none" />
  <path d="M 1314.5 1667.5  C 1318.98 1667.5  1322.5 1671.02  1322.5 1675.5  C 1322.5 1679.98  1318.98 1683.5  1314.5 1683.5  C 1310.02 1683.5  1306.5 1679.98  1306.5 1675.5  C 1306.5 1671.02  1310.02 1667.5  1314.5 1667.5  Z " stroke-width="1" stroke="#f60068" fill="none" />
  <path d="M 1314.5 1679.75  C 1312.12 1679.75  1310.25 1677.88  1310.25 1675.5  C 1310.25 1673.12  1312.12 1671.25  1314.5 1671.25  C 1316.88 1671.25  1318.75 1673.12  1318.75 1675.5  C 1318.75 1677.88  1316.88 1679.75  1314.5 1679.75  " fill-rule="nonzero" fill="#f60068" stroke="none" />
</svg>