<?xml version="1.0" encoding="utf-8"?>
<svg version="1.1" xmlns:xlink="http://www.w3.org/1999/xlink" width="17px" height="17px" viewBox="1306 1693  17 17" xmlns="http://www.w3.org/2000/svg">
  <path d="M 1314.5 1693  C 1319.26 1693  1323 1696.74  1323 1701.5  C 1323 1706.26  1319.26 1710  1314.5 1710  C 1309.74 1710  1306 1706.26  1306 1701.5  C 1306 1696.74  1309.74 1693  1314.5 1693  Z " fill-rule="nonzero" fill="#ffffff" stroke="none" />
  <path d="M 1314.5 1693.5  C 1318.98 1693.5  1322.5 1697.02  1322.5 1701.5  C 1322.5 1705.98  1318.98 1709.5  1314.5 1709.5  C 1310.02 1709.5  1306.5 1705.98  1306.5 1701.5  C 1306.5 1697.02  1310.02 1693.5  1314.5 1693.5  Z " stroke-width="1" stroke="#f60068" fill="none" />
  <path d="M 1314.5 1705.75  C 1312.12 1705.75  1310.25 1703.88  1310.25 1701.5  C 1310.25 1699.12  1312.12 1697.25  1314.5 1697.25  C 1316.88 1697.25  1318.75 1699.12  1318.75 1701.5  C 1318.75 1703.88  1316.88 1705.75  1314.5 1705.75  " fill-rule="nonzero" fill="#f60068" stroke="none" />
</svg>