<?xml version="1.0" encoding="utf-8"?>
<svg version="1.1" xmlns:xlink="http://www.w3.org/1999/xlink" width="17px" height="17px" viewBox="1297 971  17 17" xmlns="http://www.w3.org/2000/svg">
  <path d="M 1305.5 971.5  C 1309.98 971.5  1313.5 975.02  1313.5 979.5  C 1313.5 983.98  1309.98 987.5  1305.5 987.5  C 1301.02 987.5  1297.5 983.98  1297.5 979.5  C 1297.5 975.02  1301.02 971.5  1305.5 971.5  Z " fill-rule="nonzero" fill="#f0f0f0" stroke="none" />
  <path d="M 1305.5 971.5  C 1309.98 971.5  1313.5 975.02  1313.5 979.5  C 1313.5 983.98  1309.98 987.5  1305.5 987.5  C 1301.02 987.5  1297.5 983.98  1297.5 979.5  C 1297.5 975.02  1301.02 971.5  1305.5 971.5  Z " stroke-width="1" stroke="#797979" fill="none" stroke-opacity="0.996078431372549" />
  <path d="M 1305.5 983.75  C 1303.12 983.75  1301.25 981.88  1301.25 979.5  C 1301.25 977.12  1303.12 975.25  1305.5 975.25  C 1307.88 975.25  1309.75 977.12  1309.75 979.5  C 1309.75 981.88  1307.88 983.75  1305.5 983.75  " fill-rule="nonzero" fill="#797979" stroke="none" fill-opacity="0.996078431372549" />
</svg>