<?xml version="1.0" encoding="utf-8"?>
<svg version="1.1" xmlns:xlink="http://www.w3.org/1999/xlink" width="12px" height="12px" viewBox="317 296  12 12" xmlns="http://www.w3.org/2000/svg">
  <path d="M 317.5 298  A 1.5 1.5 0 0 1 319 296.5 L 327 296.5  A 1.5 1.5 0 0 1 328.5 298 L 328.5 306  A 1.5 1.5 0 0 1 327 307.5 L 319 307.5  A 1.5 1.5 0 0 1 317.5 306 L 317.5 298  Z " fill-rule="nonzero" fill="#f0f0f0" stroke="none" />
  <path d="M 317.5 298  A 1.5 1.5 0 0 1 319 296.5 L 327 296.5  A 1.5 1.5 0 0 1 328.5 298 L 328.5 306  A 1.5 1.5 0 0 1 327 307.5 L 319 307.5  A 1.5 1.5 0 0 1 317.5 306 L 317.5 298  Z " stroke-width="1" stroke="#0000ff" fill="none" />
  <path d="M 319.571428571429 302  L 322.142857142857 304.571428571429  " stroke-width="2.57142857142857" stroke="#0000ff" fill="none" />
  <path d="M 322.142857142857 304.571428571429  L 326.428571428571 298.571428571429  " stroke-width="2.57142857142857" stroke="#0000ff" fill="none" />
</svg>