<?xml version="1.0" encoding="utf-8"?>
<svg version="1.1" xmlns:xlink="http://www.w3.org/1999/xlink" width="17px" height="17px" viewBox="1308 1931  17 17" xmlns="http://www.w3.org/2000/svg">
  <path d="M 1316.5 1931  C 1321.26 1931  1325 1934.74  1325 1939.5  C 1325 1944.26  1321.26 1948  1316.5 1948  C 1311.74 1948  1308 1944.26  1308 1939.5  C 1308 1934.74  1311.74 1931  1316.5 1931  Z " fill-rule="nonzero" fill="#f0f0f0" stroke="none" />
  <path d="M 1316.5 1931.5  C 1320.98 1931.5  1324.5 1935.02  1324.5 1939.5  C 1324.5 1943.98  1320.98 1947.5  1316.5 1947.5  C 1312.02 1947.5  1308.5 1943.98  1308.5 1939.5  C 1308.5 1935.02  1312.02 1931.5  1316.5 1931.5  Z " stroke-width="1" stroke="#797979" fill="none" />
  <path d="M 1316.5 1943.75  C 1314.12 1943.75  1312.25 1941.88  1312.25 1939.5  C 1312.25 1937.12  1314.12 1935.25  1316.5 1935.25  C 1318.88 1935.25  1320.75 1937.12  1320.75 1939.5  C 1320.75 1941.88  1318.88 1943.75  1316.5 1943.75  " fill-rule="nonzero" fill="#797979" stroke="none" />
</svg>