<?xml version="1.0" encoding="utf-8"?>
<svg version="1.1" xmlns:xlink="http://www.w3.org/1999/xlink" width="17px" height="17px" viewBox="1308 1956  17 17" xmlns="http://www.w3.org/2000/svg">
  <path d="M 1316.5 1956  C 1321.26 1956  1325 1959.74  1325 1964.5  C 1325 1969.26  1321.26 1973  1316.5 1973  C 1311.74 1973  1308 1969.26  1308 1964.5  C 1308 1959.74  1311.74 1956  1316.5 1956  Z " fill-rule="nonzero" fill="#ffffff" stroke="none" />
  <path d="M 1316.5 1956.5  C 1320.98 1956.5  1324.5 1960.02  1324.5 1964.5  C 1324.5 1968.98  1320.98 1972.5  1316.5 1972.5  C 1312.02 1972.5  1308.5 1968.98  1308.5 1964.5  C 1308.5 1960.02  1312.02 1956.5  1316.5 1956.5  Z " stroke-width="1" stroke="#f60068" fill="none" />
  <path d="M 1316.5 1968.75  C 1314.12 1968.75  1312.25 1966.88  1312.25 1964.5  C 1312.25 1962.12  1314.12 1960.25  1316.5 1960.25  C 1318.88 1960.25  1320.75 1962.12  1320.75 1964.5  C 1320.75 1966.88  1318.88 1968.75  1316.5 1968.75  " fill-rule="nonzero" fill="#f60068" stroke="none" />
</svg>