<?xml version="1.0" encoding="utf-8"?>
<svg version="1.1" xmlns:xlink="http://www.w3.org/1999/xlink" width="17px" height="17px" viewBox="1299 1199  17 17" xmlns="http://www.w3.org/2000/svg">
  <path d="M 1307.5 1199  C 1312.26 1199  1316 1202.74  1316 1207.5  C 1316 1212.26  1312.26 1216  1307.5 1216  C 1302.74 1216  1299 1212.26  1299 1207.5  C 1299 1202.74  1302.74 1199  1307.5 1199  Z " fill-rule="nonzero" fill="#f0f0f0" stroke="none" />
  <path d="M 1307.5 1199.5  C 1311.98 1199.5  1315.5 1203.02  1315.5 1207.5  C 1315.5 1211.98  1311.98 1215.5  1307.5 1215.5  C 1303.02 1215.5  1299.5 1211.98  1299.5 1207.5  C 1299.5 1203.02  1303.02 1199.5  1307.5 1199.5  Z " stroke-width="1" stroke="#797979" fill="none" />
  <path d="M 1307.5 1211.75  C 1305.12 1211.75  1303.25 1209.88  1303.25 1207.5  C 1303.25 1205.12  1305.12 1203.25  1307.5 1203.25  C 1309.88 1203.25  1311.75 1205.12  1311.75 1207.5  C 1311.75 1209.88  1309.88 1211.75  1307.5 1211.75  " fill-rule="nonzero" fill="#797979" stroke="none" />
</svg>