<?xml version="1.0" encoding="utf-8"?>
<svg version="1.1" xmlns:xlink="http://www.w3.org/1999/xlink" width="17px" height="17px" viewBox="1299 1225  17 17" xmlns="http://www.w3.org/2000/svg">
  <path d="M 1307.5 1225  C 1312.26 1225  1316 1228.74  1316 1233.5  C 1316 1238.26  1312.26 1242  1307.5 1242  C 1302.74 1242  1299 1238.26  1299 1233.5  C 1299 1228.74  1302.74 1225  1307.5 1225  Z " fill-rule="nonzero" fill="#ffffff" stroke="none" />
  <path d="M 1307.5 1225.5  C 1311.98 1225.5  1315.5 1229.02  1315.5 1233.5  C 1315.5 1237.98  1311.98 1241.5  1307.5 1241.5  C 1303.02 1241.5  1299.5 1237.98  1299.5 1233.5  C 1299.5 1229.02  1303.02 1225.5  1307.5 1225.5  Z " stroke-width="1" stroke="#f60068" fill="none" />
  <path d="M 1307.5 1237.75  C 1305.12 1237.75  1303.25 1235.88  1303.25 1233.5  C 1303.25 1231.12  1305.12 1229.25  1307.5 1229.25  C 1309.88 1229.25  1311.75 1231.12  1311.75 1233.5  C 1311.75 1235.88  1309.88 1237.75  1307.5 1237.75  " fill-rule="nonzero" fill="#f60068" stroke="none" />
</svg>