<?xml version="1.0" encoding="utf-8"?>
<svg version="1.1" xmlns:xlink="http://www.w3.org/1999/xlink" width="12px" height="12px" viewBox="987 656  12 12" xmlns="http://www.w3.org/2000/svg">
  <path d="M 987.5 659  A 2.5 2.5 0 0 1 990 656.5 L 996 656.5  A 2.5 2.5 0 0 1 998.5 659 L 998.5 665  A 2.5 2.5 0 0 1 996 667.5 L 990 667.5  A 2.5 2.5 0 0 1 987.5 665 L 987.5 659  Z " fill-rule="nonzero" fill="#ffffff" stroke="none" />
  <path d="M 987.5 659  A 2.5 2.5 0 0 1 990 656.5 L 996 656.5  A 2.5 2.5 0 0 1 998.5 659 L 998.5 665  A 2.5 2.5 0 0 1 996 667.5 L 990 667.5  A 2.5 2.5 0 0 1 987.5 665 L 987.5 659  Z " stroke-width="1" stroke="#797979" fill="none" />
</svg>