<?xml version="1.0" encoding="utf-8"?>
<svg version="1.1" xmlns:xlink="http://www.w3.org/1999/xlink" width="12px" height="12px" viewBox="664 656  12 12" xmlns="http://www.w3.org/2000/svg">
  <path d="M 664.5 659  A 2.5 2.5 0 0 1 667 656.5 L 673 656.5  A 2.5 2.5 0 0 1 675.5 659 L 675.5 665  A 2.5 2.5 0 0 1 673 667.5 L 667 667.5  A 2.5 2.5 0 0 1 664.5 665 L 664.5 659  Z " fill-rule="nonzero" fill="#f0f0f0" stroke="none" />
  <path d="M 664.5 659  A 2.5 2.5 0 0 1 667 656.5 L 673 656.5  A 2.5 2.5 0 0 1 675.5 659 L 675.5 665  A 2.5 2.5 0 0 1 673 667.5 L 667 667.5  A 2.5 2.5 0 0 1 664.5 665 L 664.5 659  Z " stroke-width="1" stroke="#797979" fill="none" />
  <path d="M 666.571428571429 662  L 669.142857142857 664.571428571429  " stroke-width="2.57142857142857" stroke="#797979" fill="none" />
  <path d="M 669.142857142857 664.571428571429  L 673.428571428571 658.571428571429  " stroke-width="2.57142857142857" stroke="#797979" fill="none" />
</svg>