<?xml version="1.0" encoding="utf-8"?>
<svg version="1.1" xmlns:xlink="http://www.w3.org/1999/xlink" width="12px" height="12px" viewBox="1454 1790  12 12" xmlns="http://www.w3.org/2000/svg">
  <path d="M 1454.5 1793  A 2.5 2.5 0 0 1 1457 1790.5 L 1463 1790.5  A 2.5 2.5 0 0 1 1465.5 1793 L 1465.5 1799  A 2.5 2.5 0 0 1 1463 1801.5 L 1457 1801.5  A 2.5 2.5 0 0 1 1454.5 1799 L 1454.5 1793  Z " fill-rule="nonzero" fill="#f0f0f0" stroke="none" />
  <path d="M 1454.5 1793  A 2.5 2.5 0 0 1 1457 1790.5 L 1463 1790.5  A 2.5 2.5 0 0 1 1465.5 1793 L 1465.5 1799  A 2.5 2.5 0 0 1 1463 1801.5 L 1457 1801.5  A 2.5 2.5 0 0 1 1454.5 1799 L 1454.5 1793  Z " stroke-width="1" stroke="#797979" fill="none" />
</svg>