<?xml version="1.0" encoding="utf-8"?>
<svg version="1.1" xmlns:xlink="http://www.w3.org/1999/xlink" width="17px" height="17px" viewBox="1306 1347  17 17" xmlns="http://www.w3.org/2000/svg">
  <path d="M 1314.5 1347  C 1319.26 1347  1323 1350.74  1323 1355.5  C 1323 1360.26  1319.26 1364  1314.5 1364  C 1309.74 1364  1306 1360.26  1306 1355.5  C 1306 1350.74  1309.74 1347  1314.5 1347  Z " fill-rule="nonzero" fill="#ffffff" stroke="none" />
  <path d="M 1314.5 1347.5  C 1318.98 1347.5  1322.5 1351.02  1322.5 1355.5  C 1322.5 1359.98  1318.98 1363.5  1314.5 1363.5  C 1310.02 1363.5  1306.5 1359.98  1306.5 1355.5  C 1306.5 1351.02  1310.02 1347.5  1314.5 1347.5  Z " stroke-width="1" stroke="#f60068" fill="none" />
  <path d="M 1314.5 1359.75  C 1312.12 1359.75  1310.25 1357.88  1310.25 1355.5  C 1310.25 1353.12  1312.12 1351.25  1314.5 1351.25  C 1316.88 1351.25  1318.75 1353.12  1318.75 1355.5  C 1318.75 1357.88  1316.88 1359.75  1314.5 1359.75  " fill-rule="nonzero" fill="#f60068" stroke="none" />
</svg>