<?xml version="1.0" encoding="utf-8"?>
<svg version="1.1" xmlns:xlink="http://www.w3.org/1999/xlink" width="17px" height="17px" viewBox="1306 1373  17 17" xmlns="http://www.w3.org/2000/svg">
  <path d="M 1314.5 1373  C 1319.26 1373  1323 1376.74  1323 1381.5  C 1323 1386.26  1319.26 1390  1314.5 1390  C 1309.74 1390  1306 1386.26  1306 1381.5  C 1306 1376.74  1309.74 1373  1314.5 1373  Z " fill-rule="nonzero" fill="#ffffff" stroke="none" />
  <path d="M 1314.5 1373.5  C 1318.98 1373.5  1322.5 1377.02  1322.5 1381.5  C 1322.5 1385.98  1318.98 1389.5  1314.5 1389.5  C 1310.02 1389.5  1306.5 1385.98  1306.5 1381.5  C 1306.5 1377.02  1310.02 1373.5  1314.5 1373.5  Z " stroke-width="1" stroke="#f60068" fill="none" />
  <path d="M 1314.5 1385.75  C 1312.12 1385.75  1310.25 1383.88  1310.25 1381.5  C 1310.25 1379.12  1312.12 1377.25  1314.5 1377.25  C 1316.88 1377.25  1318.75 1379.12  1318.75 1381.5  C 1318.75 1383.88  1316.88 1385.75  1314.5 1385.75  " fill-rule="nonzero" fill="#f60068" stroke="none" />
</svg>