<?xml version="1.0" encoding="utf-8"?>
<svg version="1.1" xmlns:xlink="http://www.w3.org/1999/xlink" width="17px" height="17px" viewBox="1297 931  17 17" xmlns="http://www.w3.org/2000/svg">
  <path d="M 1305.5 931.5  C 1309.98 931.5  1313.5 935.02  1313.5 939.5  C 1313.5 943.98  1309.98 947.5  1305.5 947.5  C 1301.02 947.5  1297.5 943.98  1297.5 939.5  C 1297.5 935.02  1301.02 931.5  1305.5 931.5  Z " fill-rule="nonzero" fill="#f0f0f0" stroke="none" />
  <path d="M 1305.5 931.5  C 1309.98 931.5  1313.5 935.02  1313.5 939.5  C 1313.5 943.98  1309.98 947.5  1305.5 947.5  C 1301.02 947.5  1297.5 943.98  1297.5 939.5  C 1297.5 935.02  1301.02 931.5  1305.5 931.5  Z " stroke-width="1" stroke="#797979" fill="none" stroke-opacity="0.996078431372549" />
  <path d="M 1305.5 943.75  C 1303.12 943.75  1301.25 941.88  1301.25 939.5  C 1301.25 937.12  1303.12 935.25  1305.5 935.25  C 1307.88 935.25  1309.75 937.12  1309.75 939.5  C 1309.75 941.88  1307.88 943.75  1305.5 943.75  " fill-rule="nonzero" fill="#797979" stroke="none" fill-opacity="0.996078431372549" />
</svg>