<?xml version="1.0" encoding="utf-8"?>
<svg version="1.1" xmlns:xlink="http://www.w3.org/1999/xlink" width="17px" height="17px" viewBox="1297 957  17 17" xmlns="http://www.w3.org/2000/svg">
  <path d="M 1305.5 957  C 1310.26 957  1314 960.74  1314 965.5  C 1314 970.26  1310.26 974  1305.5 974  C 1300.74 974  1297 970.26  1297 965.5  C 1297 960.74  1300.74 957  1305.5 957  Z " fill-rule="nonzero" fill="#ffffff" stroke="none" />
  <path d="M 1305.5 957.5  C 1309.98 957.5  1313.5 961.02  1313.5 965.5  C 1313.5 969.98  1309.98 973.5  1305.5 973.5  C 1301.02 973.5  1297.5 969.98  1297.5 965.5  C 1297.5 961.02  1301.02 957.5  1305.5 957.5  Z " stroke-width="1" stroke="#f60068" fill="none" />
  <path d="M 1305.5 969.75  C 1303.12 969.75  1301.25 967.88  1301.25 965.5  C 1301.25 963.12  1303.12 961.25  1305.5 961.25  C 1307.88 961.25  1309.75 963.12  1309.75 965.5  C 1309.75 967.88  1307.88 969.75  1305.5 969.75  " fill-rule="nonzero" fill="#f60068" stroke="none" />
</svg>