<?xml version="1.0" encoding="utf-8"?>
<svg version="1.1" xmlns:xlink="http://www.w3.org/1999/xlink" width="17px" height="17px" viewBox="1085 380  17 17" xmlns="http://www.w3.org/2000/svg">
  <path d="M 1093.5 380.5  C 1097.98 380.5  1101.5 384.02  1101.5 388.5  C 1101.5 392.98  1097.98 396.5  1093.5 396.5  C 1089.02 396.5  1085.5 392.98  1085.5 388.5  C 1085.5 384.02  1089.02 380.5  1093.5 380.5  Z " fill-rule="nonzero" fill="#f0f0f0" stroke="none" />
  <path d="M 1093.5 380.5  C 1097.98 380.5  1101.5 384.02  1101.5 388.5  C 1101.5 392.98  1097.98 396.5  1093.5 396.5  C 1089.02 396.5  1085.5 392.98  1085.5 388.5  C 1085.5 384.02  1089.02 380.5  1093.5 380.5  Z " stroke-width="1" stroke="#797979" fill="none" stroke-opacity="0.996078431372549" />
  <path d="M 1093.5 392.75  C 1091.12 392.75  1089.25 390.88  1089.25 388.5  C 1089.25 386.12  1091.12 384.25  1093.5 384.25  C 1095.88 384.25  1097.75 386.12  1097.75 388.5  C 1097.75 390.88  1095.88 392.75  1093.5 392.75  " fill-rule="nonzero" fill="#797979" stroke="none" fill-opacity="0.996078431372549" />
</svg>