<?xml version="1.0" encoding="utf-8"?>
<svg version="1.1" xmlns:xlink="http://www.w3.org/1999/xlink" width="17px" height="17px" viewBox="901 380  17 17" xmlns="http://www.w3.org/2000/svg">
  <path d="M 909.5 380  C 914.26 380  918 383.74  918 388.5  C 918 393.26  914.26 397  909.5 397  C 904.74 397  901 393.26  901 388.5  C 901 383.74  904.74 380  909.5 380  Z " fill-rule="nonzero" fill="#ffffff" stroke="none" />
  <path d="M 909.5 380.5  C 913.98 380.5  917.5 384.02  917.5 388.5  C 917.5 392.98  913.98 396.5  909.5 396.5  C 905.02 396.5  901.5 392.98  901.5 388.5  C 901.5 384.02  905.02 380.5  909.5 380.5  Z " stroke-width="1" stroke="#f60068" fill="none" />
  <path d="M 909.5 392.75  C 907.12 392.75  905.25 390.88  905.25 388.5  C 905.25 386.12  907.12 384.25  909.5 384.25  C 911.88 384.25  913.75 386.12  913.75 388.5  C 913.75 390.88  911.88 392.75  909.5 392.75  " fill-rule="nonzero" fill="#f60068" stroke="none" />
</svg>