<?xml version="1.0" encoding="utf-8"?>
<svg version="1.1" xmlns:xlink="http://www.w3.org/1999/xlink" width="17px" height="17px" viewBox="901 380  17 17" xmlns="http://www.w3.org/2000/svg">
  <path d="M 909.5 380.5  C 913.98 380.5  917.5 384.02  917.5 388.5  C 917.5 392.98  913.98 396.5  909.5 396.5  C 905.02 396.5  901.5 392.98  901.5 388.5  C 901.5 384.02  905.02 380.5  909.5 380.5  Z " fill-rule="nonzero" fill="#f0f0f0" stroke="none" />
  <path d="M 909.5 380.5  C 913.98 380.5  917.5 384.02  917.5 388.5  C 917.5 392.98  913.98 396.5  909.5 396.5  C 905.02 396.5  901.5 392.98  901.5 388.5  C 901.5 384.02  905.02 380.5  909.5 380.5  Z " stroke-width="1" stroke="#797979" fill="none" stroke-opacity="0.996078431372549" />
  <path d="M 909.5 392.75  C 907.12 392.75  905.25 390.88  905.25 388.5  C 905.25 386.12  907.12 384.25  909.5 384.25  C 911.88 384.25  913.75 386.12  913.75 388.5  C 913.75 390.88  911.88 392.75  909.5 392.75  " fill-rule="nonzero" fill="#797979" stroke="none" fill-opacity="0.996078431372549" />
</svg>