<?xml version="1.0" encoding="utf-8"?>
<svg version="1.1" xmlns:xlink="http://www.w3.org/1999/xlink" width="17px" height="17px" viewBox="1254 1833  17 17" xmlns="http://www.w3.org/2000/svg">
  <path d="M 1262.5 1833  C 1267.26 1833  1271 1836.74  1271 1841.5  C 1271 1846.26  1267.26 1850  1262.5 1850  C 1257.74 1850  1254 1846.26  1254 1841.5  C 1254 1836.74  1257.74 1833  1262.5 1833  Z " fill-rule="nonzero" fill="#ffffff" stroke="none" />
  <path d="M 1262.5 1833.5  C 1266.98 1833.5  1270.5 1837.02  1270.5 1841.5  C 1270.5 1845.98  1266.98 1849.5  1262.5 1849.5  C 1258.02 1849.5  1254.5 1845.98  1254.5 1841.5  C 1254.5 1837.02  1258.02 1833.5  1262.5 1833.5  Z " stroke-width="1" stroke="#f60068" fill="none" />
  <path d="M 1262.5 1845.75  C 1260.12 1845.75  1258.25 1843.88  1258.25 1841.5  C 1258.25 1839.12  1260.12 1837.25  1262.5 1837.25  C 1264.88 1837.25  1266.75 1839.12  1266.75 1841.5  C 1266.75 1843.88  1264.88 1845.75  1262.5 1845.75  " fill-rule="nonzero" fill="#f60068" stroke="none" />
</svg>