<?xml version="1.0" encoding="utf-8"?>
<svg version="1.1" xmlns:xlink="http://www.w3.org/1999/xlink" width="17px" height="17px" viewBox="1254 1544  17 17" xmlns="http://www.w3.org/2000/svg">
  <path d="M 1262.5 1544  C 1267.26 1544  1271 1547.74  1271 1552.5  C 1271 1557.26  1267.26 1561  1262.5 1561  C 1257.74 1561  1254 1557.26  1254 1552.5  C 1254 1547.74  1257.74 1544  1262.5 1544  Z " fill-rule="nonzero" fill="#ffffff" stroke="none" />
  <path d="M 1262.5 1544.5  C 1266.98 1544.5  1270.5 1548.02  1270.5 1552.5  C 1270.5 1556.98  1266.98 1560.5  1262.5 1560.5  C 1258.02 1560.5  1254.5 1556.98  1254.5 1552.5  C 1254.5 1548.02  1258.02 1544.5  1262.5 1544.5  Z " stroke-width="1" stroke="#f60068" fill="none" />
  <path d="M 1262.5 1556.75  C 1260.12 1556.75  1258.25 1554.88  1258.25 1552.5  C 1258.25 1550.12  1260.12 1548.25  1262.5 1548.25  C 1264.88 1548.25  1266.75 1550.12  1266.75 1552.5  C 1266.75 1554.88  1264.88 1556.75  1262.5 1556.75  " fill-rule="nonzero" fill="#f60068" stroke="none" />
</svg>