<?xml version="1.0" encoding="utf-8"?>
<svg version="1.1" xmlns:xlink="http://www.w3.org/1999/xlink" width="17px" height="17px" viewBox="1247 2340  17 17" xmlns="http://www.w3.org/2000/svg">
  <path d="M 1255.5 2340  C 1260.26 2340  1264 2343.74  1264 2348.5  C 1264 2353.26  1260.26 2357  1255.5 2357  C 1250.74 2357  1247 2353.26  1247 2348.5  C 1247 2343.74  1250.74 2340  1255.5 2340  Z " fill-rule="nonzero" fill="#ffffff" stroke="none" />
  <path d="M 1255.5 2340.5  C 1259.98 2340.5  1263.5 2344.02  1263.5 2348.5  C 1263.5 2352.98  1259.98 2356.5  1255.5 2356.5  C 1251.02 2356.5  1247.5 2352.98  1247.5 2348.5  C 1247.5 2344.02  1251.02 2340.5  1255.5 2340.5  Z " stroke-width="1" stroke="#f60068" fill="none" />
  <path d="M 1255.5 2352.75  C 1253.12 2352.75  1251.25 2350.88  1251.25 2348.5  C 1251.25 2346.12  1253.12 2344.25  1255.5 2344.25  C 1257.88 2344.25  1259.75 2346.12  1259.75 2348.5  C 1259.75 2350.88  1257.88 2352.75  1255.5 2352.75  " fill-rule="nonzero" fill="#f60068" stroke="none" />
</svg>