<?xml version="1.0" encoding="utf-8"?>
<svg version="1.1" xmlns:xlink="http://www.w3.org/1999/xlink" width="17px" height="17px" viewBox="1254 1851  17 17" xmlns="http://www.w3.org/2000/svg">
  <path d="M 1262.5 1851  C 1267.26 1851  1271 1854.74  1271 1859.5  C 1271 1864.26  1267.26 1868  1262.5 1868  C 1257.74 1868  1254 1864.26  1254 1859.5  C 1254 1854.74  1257.74 1851  1262.5 1851  Z " fill-rule="nonzero" fill="#ffffff" stroke="none" />
  <path d="M 1262.5 1851.5  C 1266.98 1851.5  1270.5 1855.02  1270.5 1859.5  C 1270.5 1863.98  1266.98 1867.5  1262.5 1867.5  C 1258.02 1867.5  1254.5 1863.98  1254.5 1859.5  C 1254.5 1855.02  1258.02 1851.5  1262.5 1851.5  Z " stroke-width="1" stroke="#f60068" fill="none" />
  <path d="M 1262.5 1863.75  C 1260.12 1863.75  1258.25 1861.88  1258.25 1859.5  C 1258.25 1857.12  1260.12 1855.25  1262.5 1855.25  C 1264.88 1855.25  1266.75 1857.12  1266.75 1859.5  C 1266.75 1861.88  1264.88 1863.75  1262.5 1863.75  " fill-rule="nonzero" fill="#f60068" stroke="none" />
</svg>