<?xml version="1.0" encoding="utf-8"?>
<svg version="1.1" xmlns:xlink="http://www.w3.org/1999/xlink" width="17px" height="17px" viewBox="1255 1834  17 17" xmlns="http://www.w3.org/2000/svg">
  <path d="M 1263.5 1834  C 1268.26 1834  1272 1837.74  1272 1842.5  C 1272 1847.26  1268.26 1851  1263.5 1851  C 1258.74 1851  1255 1847.26  1255 1842.5  C 1255 1837.74  1258.74 1834  1263.5 1834  Z " fill-rule="nonzero" fill="#ffffff" stroke="none" />
  <path d="M 1263.5 1834.5  C 1267.98 1834.5  1271.5 1838.02  1271.5 1842.5  C 1271.5 1846.98  1267.98 1850.5  1263.5 1850.5  C 1259.02 1850.5  1255.5 1846.98  1255.5 1842.5  C 1255.5 1838.02  1259.02 1834.5  1263.5 1834.5  Z " stroke-width="1" stroke="#f60068" fill="none" />
  <path d="M 1263.5 1846.75  C 1261.12 1846.75  1259.25 1844.88  1259.25 1842.5  C 1259.25 1840.12  1261.12 1838.25  1263.5 1838.25  C 1265.88 1838.25  1267.75 1840.12  1267.75 1842.5  C 1267.75 1844.88  1265.88 1846.75  1263.5 1846.75  " fill-rule="nonzero" fill="#f60068" stroke="none" />
</svg>