<?xml version="1.0" encoding="utf-8"?>
<svg version="1.1" xmlns:xlink="http://www.w3.org/1999/xlink" width="17px" height="17px" viewBox="1254 1570  17 17" xmlns="http://www.w3.org/2000/svg">
  <path d="M 1262.5 1570  C 1267.26 1570  1271 1573.74  1271 1578.5  C 1271 1583.26  1267.26 1587  1262.5 1587  C 1257.74 1587  1254 1583.26  1254 1578.5  C 1254 1573.74  1257.74 1570  1262.5 1570  Z " fill-rule="nonzero" fill="#f0f0f0" stroke="none" />
  <path d="M 1262.5 1570.5  C 1266.98 1570.5  1270.5 1574.02  1270.5 1578.5  C 1270.5 1582.98  1266.98 1586.5  1262.5 1586.5  C 1258.02 1586.5  1254.5 1582.98  1254.5 1578.5  C 1254.5 1574.02  1258.02 1570.5  1262.5 1570.5  Z " stroke-width="1" stroke="#797979" fill="none" />
  <path d="M 1262.5 1582.75  C 1260.12 1582.75  1258.25 1580.88  1258.25 1578.5  C 1258.25 1576.12  1260.12 1574.25  1262.5 1574.25  C 1264.88 1574.25  1266.75 1576.12  1266.75 1578.5  C 1266.75 1580.88  1264.88 1582.75  1262.5 1582.75  " fill-rule="nonzero" fill="#797979" stroke="none" />
</svg>