<?xml version="1.0" encoding="utf-8"?>
<svg version="1.1" xmlns:xlink="http://www.w3.org/1999/xlink" width="17px" height="17px" viewBox="1254 1859  17 17" xmlns="http://www.w3.org/2000/svg">
  <path d="M 1262.5 1859  C 1267.26 1859  1271 1862.74  1271 1867.5  C 1271 1872.26  1267.26 1876  1262.5 1876  C 1257.74 1876  1254 1872.26  1254 1867.5  C 1254 1862.74  1257.74 1859  1262.5 1859  Z " fill-rule="nonzero" fill="#f0f0f0" stroke="none" />
  <path d="M 1262.5 1859.5  C 1266.98 1859.5  1270.5 1863.02  1270.5 1867.5  C 1270.5 1871.98  1266.98 1875.5  1262.5 1875.5  C 1258.02 1875.5  1254.5 1871.98  1254.5 1867.5  C 1254.5 1863.02  1258.02 1859.5  1262.5 1859.5  Z " stroke-width="1" stroke="#797979" fill="none" />
  <path d="M 1262.5 1871.75  C 1260.12 1871.75  1258.25 1869.88  1258.25 1867.5  C 1258.25 1865.12  1260.12 1863.25  1262.5 1863.25  C 1264.88 1863.25  1266.75 1865.12  1266.75 1867.5  C 1266.75 1869.88  1264.88 1871.75  1262.5 1871.75  " fill-rule="nonzero" fill="#797979" stroke="none" />
</svg>