<?xml version="1.0" encoding="utf-8"?>
<svg version="1.1" xmlns:xlink="http://www.w3.org/1999/xlink" width="17px" height="17px" viewBox="1247 2366  17 17" xmlns="http://www.w3.org/2000/svg">
  <path d="M 1255.5 2366  C 1260.26 2366  1264 2369.74  1264 2374.5  C 1264 2379.26  1260.26 2383  1255.5 2383  C 1250.74 2383  1247 2379.26  1247 2374.5  C 1247 2369.74  1250.74 2366  1255.5 2366  Z " fill-rule="nonzero" fill="#ffffff" stroke="none" />
  <path d="M 1255.5 2366.5  C 1259.98 2366.5  1263.5 2370.02  1263.5 2374.5  C 1263.5 2378.98  1259.98 2382.5  1255.5 2382.5  C 1251.02 2382.5  1247.5 2378.98  1247.5 2374.5  C 1247.5 2370.02  1251.02 2366.5  1255.5 2366.5  Z " stroke-width="1" stroke="#f60068" fill="none" />
  <path d="M 1255.5 2378.75  C 1253.12 2378.75  1251.25 2376.88  1251.25 2374.5  C 1251.25 2372.12  1253.12 2370.25  1255.5 2370.25  C 1257.88 2370.25  1259.75 2372.12  1259.75 2374.5  C 1259.75 2376.88  1257.88 2378.75  1255.5 2378.75  " fill-rule="nonzero" fill="#f60068" stroke="none" />
</svg>