<?xml version="1.0" encoding="utf-8"?>
<svg version="1.1" xmlns:xlink="http://www.w3.org/1999/xlink" width="17px" height="17px" viewBox="1254 1877  17 17" xmlns="http://www.w3.org/2000/svg">
  <path d="M 1262.5 1877  C 1267.26 1877  1271 1880.74  1271 1885.5  C 1271 1890.26  1267.26 1894  1262.5 1894  C 1257.74 1894  1254 1890.26  1254 1885.5  C 1254 1880.74  1257.74 1877  1262.5 1877  Z " fill-rule="nonzero" fill="#ffffff" stroke="none" />
  <path d="M 1262.5 1877.5  C 1266.98 1877.5  1270.5 1881.02  1270.5 1885.5  C 1270.5 1889.98  1266.98 1893.5  1262.5 1893.5  C 1258.02 1893.5  1254.5 1889.98  1254.5 1885.5  C 1254.5 1881.02  1258.02 1877.5  1262.5 1877.5  Z " stroke-width="1" stroke="#f60068" fill="none" />
  <path d="M 1262.5 1889.75  C 1260.12 1889.75  1258.25 1887.88  1258.25 1885.5  C 1258.25 1883.12  1260.12 1881.25  1262.5 1881.25  C 1264.88 1881.25  1266.75 1883.12  1266.75 1885.5  C 1266.75 1887.88  1264.88 1889.75  1262.5 1889.75  " fill-rule="nonzero" fill="#f60068" stroke="none" />
</svg>