<?xml version="1.0" encoding="utf-8"?>
<svg version="1.1" xmlns:xlink="http://www.w3.org/1999/xlink" width="17px" height="17px" viewBox="1246 1102  17 17" xmlns="http://www.w3.org/2000/svg">
  <path d="M 1254.5 1102  C 1259.26 1102  1263 1105.74  1263 1110.5  C 1263 1115.26  1259.26 1119  1254.5 1119  C 1249.74 1119  1246 1115.26  1246 1110.5  C 1246 1105.74  1249.74 1102  1254.5 1102  Z " fill-rule="nonzero" fill="#ffffff" stroke="none" />
  <path d="M 1254.5 1102.5  C 1258.98 1102.5  1262.5 1106.02  1262.5 1110.5  C 1262.5 1114.98  1258.98 1118.5  1254.5 1118.5  C 1250.02 1118.5  1246.5 1114.98  1246.5 1110.5  C 1246.5 1106.02  1250.02 1102.5  1254.5 1102.5  Z " stroke-width="1" stroke="#f60068" fill="none" />
  <path d="M 1254.5 1114.75  C 1252.12 1114.75  1250.25 1112.88  1250.25 1110.5  C 1250.25 1108.12  1252.12 1106.25  1254.5 1106.25  C 1256.88 1106.25  1258.75 1108.12  1258.75 1110.5  C 1258.75 1112.88  1256.88 1114.75  1254.5 1114.75  " fill-rule="nonzero" fill="#f60068" stroke="none" />
</svg>