<?xml version="1.0" encoding="utf-8"?>
<svg version="1.1" xmlns:xlink="http://www.w3.org/1999/xlink" width="17px" height="17px" viewBox="1245 812  17 17" xmlns="http://www.w3.org/2000/svg">
  <path d="M 1253.5 812.5  C 1257.98 812.5  1261.5 816.02  1261.5 820.5  C 1261.5 824.98  1257.98 828.5  1253.5 828.5  C 1249.02 828.5  1245.5 824.98  1245.5 820.5  C 1245.5 816.02  1249.02 812.5  1253.5 812.5  Z " fill-rule="nonzero" fill="#f0f0f0" stroke="none" />
  <path d="M 1253.5 812.5  C 1257.98 812.5  1261.5 816.02  1261.5 820.5  C 1261.5 824.98  1257.98 828.5  1253.5 828.5  C 1249.02 828.5  1245.5 824.98  1245.5 820.5  C 1245.5 816.02  1249.02 812.5  1253.5 812.5  Z " stroke-width="1" stroke="#797979" fill="none" stroke-opacity="0.996078431372549" />
  <path d="M 1253.5 824.75  C 1251.12 824.75  1249.25 822.88  1249.25 820.5  C 1249.25 818.12  1251.12 816.25  1253.5 816.25  C 1255.88 816.25  1257.75 818.12  1257.75 820.5  C 1257.75 822.88  1255.88 824.75  1253.5 824.75  " fill-rule="nonzero" fill="#797979" stroke="none" fill-opacity="0.996078431372549" />
</svg>