<?xml version="1.0" encoding="utf-8"?>
<svg version="1.1" xmlns:xlink="http://www.w3.org/1999/xlink" width="17px" height="17px" viewBox="1245 1119  17 17" xmlns="http://www.w3.org/2000/svg">
  <path d="M 1253.5 1119  C 1258.26 1119  1262 1122.74  1262 1127.5  C 1262 1132.26  1258.26 1136  1253.5 1136  C 1248.74 1136  1245 1132.26  1245 1127.5  C 1245 1122.74  1248.74 1119  1253.5 1119  Z " fill-rule="nonzero" fill="#ffffff" stroke="none" />
  <path d="M 1253.5 1119.5  C 1257.98 1119.5  1261.5 1123.02  1261.5 1127.5  C 1261.5 1131.98  1257.98 1135.5  1253.5 1135.5  C 1249.02 1135.5  1245.5 1131.98  1245.5 1127.5  C 1245.5 1123.02  1249.02 1119.5  1253.5 1119.5  Z " stroke-width="1" stroke="#f60068" fill="none" />
  <path d="M 1253.5 1131.75  C 1251.12 1131.75  1249.25 1129.88  1249.25 1127.5  C 1249.25 1125.12  1251.12 1123.25  1253.5 1123.25  C 1255.88 1123.25  1257.75 1125.12  1257.75 1127.5  C 1257.75 1129.88  1255.88 1131.75  1253.5 1131.75  " fill-rule="nonzero" fill="#f60068" stroke="none" />
</svg>