<?xml version="1.0" encoding="utf-8"?>
<svg version="1.1" xmlns:xlink="http://www.w3.org/1999/xlink" width="17px" height="17px" viewBox="1245 1127  17 17" xmlns="http://www.w3.org/2000/svg">
  <path d="M 1253.5 1127.5  C 1257.98 1127.5  1261.5 1131.02  1261.5 1135.5  C 1261.5 1139.98  1257.98 1143.5  1253.5 1143.5  C 1249.02 1143.5  1245.5 1139.98  1245.5 1135.5  C 1245.5 1131.02  1249.02 1127.5  1253.5 1127.5  Z " fill-rule="nonzero" fill="#f0f0f0" stroke="none" />
  <path d="M 1253.5 1127.5  C 1257.98 1127.5  1261.5 1131.02  1261.5 1135.5  C 1261.5 1139.98  1257.98 1143.5  1253.5 1143.5  C 1249.02 1143.5  1245.5 1139.98  1245.5 1135.5  C 1245.5 1131.02  1249.02 1127.5  1253.5 1127.5  Z " stroke-width="1" stroke="#797979" fill="none" stroke-opacity="0.996078431372549" />
  <path d="M 1253.5 1139.75  C 1251.12 1139.75  1249.25 1137.88  1249.25 1135.5  C 1249.25 1133.12  1251.12 1131.25  1253.5 1131.25  C 1255.88 1131.25  1257.75 1133.12  1257.75 1135.5  C 1257.75 1137.88  1255.88 1139.75  1253.5 1139.75  " fill-rule="nonzero" fill="#797979" stroke="none" fill-opacity="0.996078431372549" />
</svg>