<?xml version="1.0" encoding="utf-8"?>
<svg version="1.1" xmlns:xlink="http://www.w3.org/1999/xlink" width="17px" height="17px" viewBox="1246 1128  17 17" xmlns="http://www.w3.org/2000/svg">
  <path d="M 1254.5 1128  C 1259.26 1128  1263 1131.74  1263 1136.5  C 1263 1141.26  1259.26 1145  1254.5 1145  C 1249.74 1145  1246 1141.26  1246 1136.5  C 1246 1131.74  1249.74 1128  1254.5 1128  Z " fill-rule="nonzero" fill="#ffffff" stroke="none" />
  <path d="M 1254.5 1128.5  C 1258.98 1128.5  1262.5 1132.02  1262.5 1136.5  C 1262.5 1140.98  1258.98 1144.5  1254.5 1144.5  C 1250.02 1144.5  1246.5 1140.98  1246.5 1136.5  C 1246.5 1132.02  1250.02 1128.5  1254.5 1128.5  Z " stroke-width="1" stroke="#f60068" fill="none" />
  <path d="M 1254.5 1140.75  C 1252.12 1140.75  1250.25 1138.88  1250.25 1136.5  C 1250.25 1134.12  1252.12 1132.25  1254.5 1132.25  C 1256.88 1132.25  1258.75 1134.12  1258.75 1136.5  C 1258.75 1138.88  1256.88 1140.75  1254.5 1140.75  " fill-rule="nonzero" fill="#f60068" stroke="none" />
</svg>