<?xml version="1.0" encoding="utf-8"?>
<svg version="1.1" xmlns:xlink="http://www.w3.org/1999/xlink" width="17px" height="17px" viewBox="1245 838  17 17" xmlns="http://www.w3.org/2000/svg">
  <path d="M 1253.5 838  C 1258.26 838  1262 841.74  1262 846.5  C 1262 851.26  1258.26 855  1253.5 855  C 1248.74 855  1245 851.26  1245 846.5  C 1245 841.74  1248.74 838  1253.5 838  Z " fill-rule="nonzero" fill="#ffffff" stroke="none" />
  <path d="M 1253.5 838.5  C 1257.98 838.5  1261.5 842.02  1261.5 846.5  C 1261.5 850.98  1257.98 854.5  1253.5 854.5  C 1249.02 854.5  1245.5 850.98  1245.5 846.5  C 1245.5 842.02  1249.02 838.5  1253.5 838.5  Z " stroke-width="1" stroke="#f60068" fill="none" />
  <path d="M 1253.5 850.75  C 1251.12 850.75  1249.25 848.88  1249.25 846.5  C 1249.25 844.12  1251.12 842.25  1253.5 842.25  C 1255.88 842.25  1257.75 844.12  1257.75 846.5  C 1257.75 848.88  1255.88 850.75  1253.5 850.75  " fill-rule="nonzero" fill="#f60068" stroke="none" />
</svg>