<?xml version="1.0" encoding="utf-8"?>
<svg version="1.1" xmlns:xlink="http://www.w3.org/1999/xlink" width="17px" height="17px" viewBox="1245 1145  17 17" xmlns="http://www.w3.org/2000/svg">
  <path d="M 1253.5 1145  C 1258.26 1145  1262 1148.74  1262 1153.5  C 1262 1158.26  1258.26 1162  1253.5 1162  C 1248.74 1162  1245 1158.26  1245 1153.5  C 1245 1148.74  1248.74 1145  1253.5 1145  Z " fill-rule="nonzero" fill="#ffffff" stroke="none" />
  <path d="M 1253.5 1145.5  C 1257.98 1145.5  1261.5 1149.02  1261.5 1153.5  C 1261.5 1157.98  1257.98 1161.5  1253.5 1161.5  C 1249.02 1161.5  1245.5 1157.98  1245.5 1153.5  C 1245.5 1149.02  1249.02 1145.5  1253.5 1145.5  Z " stroke-width="1" stroke="#f60068" fill="none" />
  <path d="M 1253.5 1157.75  C 1251.12 1157.75  1249.25 1155.88  1249.25 1153.5  C 1249.25 1151.12  1251.12 1149.25  1253.5 1149.25  C 1255.88 1149.25  1257.75 1151.12  1257.75 1153.5  C 1257.75 1155.88  1255.88 1157.75  1253.5 1157.75  " fill-rule="nonzero" fill="#f60068" stroke="none" />
</svg>