<?xml version="1.0" encoding="utf-8"?>
<svg version="1.1" xmlns:xlink="http://www.w3.org/1999/xlink" width="17px" height="17px" viewBox="1245 1634  17 17" xmlns="http://www.w3.org/2000/svg">
  <path d="M 1253.5 1634  C 1258.26 1634  1262 1637.74  1262 1642.5  C 1262 1647.26  1258.26 1651  1253.5 1651  C 1248.74 1651  1245 1647.26  1245 1642.5  C 1245 1637.74  1248.74 1634  1253.5 1634  Z " fill-rule="nonzero" fill="#ffffff" stroke="none" />
  <path d="M 1253.5 1634.5  C 1257.98 1634.5  1261.5 1638.02  1261.5 1642.5  C 1261.5 1646.98  1257.98 1650.5  1253.5 1650.5  C 1249.02 1650.5  1245.5 1646.98  1245.5 1642.5  C 1245.5 1638.02  1249.02 1634.5  1253.5 1634.5  Z " stroke-width="1" stroke="#f60068" fill="none" />
  <path d="M 1253.5 1646.75  C 1251.12 1646.75  1249.25 1644.88  1249.25 1642.5  C 1249.25 1640.12  1251.12 1638.25  1253.5 1638.25  C 1255.88 1638.25  1257.75 1640.12  1257.75 1642.5  C 1257.75 1644.88  1255.88 1646.75  1253.5 1646.75  " fill-rule="nonzero" fill="#f60068" stroke="none" />
</svg>