<?xml version="1.0" encoding="utf-8"?>
<svg version="1.1" xmlns:xlink="http://www.w3.org/1999/xlink" width="17px" height="17px" viewBox="1245 1127  17 17" xmlns="http://www.w3.org/2000/svg">
  <path d="M 1253.5 1127  C 1258.26 1127  1262 1130.74  1262 1135.5  C 1262 1140.26  1258.26 1144  1253.5 1144  C 1248.74 1144  1245 1140.26  1245 1135.5  C 1245 1130.74  1248.74 1127  1253.5 1127  Z " fill-rule="nonzero" fill="#ffffff" stroke="none" />
  <path d="M 1253.5 1127.5  C 1257.98 1127.5  1261.5 1131.02  1261.5 1135.5  C 1261.5 1139.98  1257.98 1143.5  1253.5 1143.5  C 1249.02 1143.5  1245.5 1139.98  1245.5 1135.5  C 1245.5 1131.02  1249.02 1127.5  1253.5 1127.5  Z " stroke-width="1" stroke="#f60068" fill="none" />
  <path d="M 1253.5 1139.75  C 1251.12 1139.75  1249.25 1137.88  1249.25 1135.5  C 1249.25 1133.12  1251.12 1131.25  1253.5 1131.25  C 1255.88 1131.25  1257.75 1133.12  1257.75 1135.5  C 1257.75 1137.88  1255.88 1139.75  1253.5 1139.75  " fill-rule="nonzero" fill="#f60068" stroke="none" />
</svg>