<?xml version="1.0" encoding="utf-8"?>
<svg version="1.1" xmlns:xlink="http://www.w3.org/1999/xlink" width="12px" height="12px" viewBox="172 849  12 12" xmlns="http://www.w3.org/2000/svg">
  <path d="M 172.5 852  A 2.5 2.5 0 0 1 175 849.5 L 181 849.5  A 2.5 2.5 0 0 1 183.5 852 L 183.5 858  A 2.5 2.5 0 0 1 181 860.5 L 175 860.5  A 2.5 2.5 0 0 1 172.5 858 L 172.5 852  Z " fill-rule="nonzero" fill="#f0f0f0" stroke="none" />
  <path d="M 172.5 852  A 2.5 2.5 0 0 1 175 849.5 L 181 849.5  A 2.5 2.5 0 0 1 183.5 852 L 183.5 858  A 2.5 2.5 0 0 1 181 860.5 L 175 860.5  A 2.5 2.5 0 0 1 172.5 858 L 172.5 852  Z " stroke-width="1" stroke="#797979" fill="none" />
</svg>