<?xml version="1.0" encoding="utf-8"?>
<svg version="1.1" xmlns:xlink="http://www.w3.org/1999/xlink" width="12px" height="12px" viewBox="273 420  12 12" xmlns="http://www.w3.org/2000/svg">
  <path d="M 273.5 423  A 2.5 2.5 0 0 1 276 420.5 L 282 420.5  A 2.5 2.5 0 0 1 284.5 423 L 284.5 429  A 2.5 2.5 0 0 1 282 431.5 L 276 431.5  A 2.5 2.5 0 0 1 273.5 429 L 273.5 423  Z " fill-rule="nonzero" fill="#f0f0f0" stroke="none" />
  <path d="M 273.5 423  A 2.5 2.5 0 0 1 276 420.5 L 282 420.5  A 2.5 2.5 0 0 1 284.5 423 L 284.5 429  A 2.5 2.5 0 0 1 282 431.5 L 276 431.5  A 2.5 2.5 0 0 1 273.5 429 L 273.5 423  Z " stroke-width="1" stroke="#797979" fill="none" />
  <path d="M 275.571428571429 426  L 278.142857142857 428.571428571429  " stroke-width="2.57142857142857" stroke="#797979" fill="none" />
  <path d="M 278.142857142857 428.571428571429  L 282.428571428571 422.571428571429  " stroke-width="2.57142857142857" stroke="#797979" fill="none" />
</svg>