<?xml version="1.0" encoding="utf-8"?>
<svg version="1.1" xmlns:xlink="http://www.w3.org/1999/xlink" width="1477px" height="1133px" xmlns="http://www.w3.org/2000/svg">
  <g transform="matrix(1 0 0 1 -1 -34 )">
    <path d="M 2 37  A 2 2 0 0 1 4 35 L 1475 35  A 2 2 0 0 1 1477 37 L 1477 1164  A 2 2 0 0 1 1475 1166 L 4 1166  A 2 2 0 0 1 2 1164 L 2 37  Z " fill-rule="nonzero" fill="#ffffff" stroke="none" />
    <path d="M 1.5 37  A 2.5 2.5 0 0 1 4 34.5 L 1475 34.5  A 2.5 2.5 0 0 1 1477.5 37 L 1477.5 1164  A 2.5 2.5 0 0 1 1475 1166.5 L 4 1166.5  A 2.5 2.5 0 0 1 1.5 1164 L 1.5 37  Z " stroke-width="1" stroke="#ec3d52" fill="none" stroke-opacity="0.188235294117647" />
  </g>
</svg>