<?xml version="1.0" encoding="utf-8"?>
<svg version="1.1" xmlns:xlink="http://www.w3.org/1999/xlink" width="1233px" height="40px" viewBox="118 633  1233 40" xmlns="http://www.w3.org/2000/svg">
  <path d="M 119 638  A 4 4 0 0 1 123 634 L 1350 634  L 1350 668  A 4 4 0 0 1 1346 672 L 123 672  A 4 4 0 0 1 119 668 L 119 638  Z " fill-rule="nonzero" fill="#f0f0f0" stroke="none" />
  <path d="M 118.5 638  A 4.5 4.5 0 0 1 123 633.5 L 1350.5 633.5  L 1350.5 668  A 4.5 4.5 0 0 1 1346 672.5 L 123 672.5  A 4.5 4.5 0 0 1 118.5 668 L 118.5 638  Z " stroke-width="1" stroke="#d7d7d7" fill="none" stroke-opacity="0.505882352941176" />
</svg>