<?xml version="1.0" encoding="utf-8"?>
<svg version="1.1" xmlns:xlink="http://www.w3.org/1999/xlink" width="1233px" height="70px" viewBox="118 743  1233 70" xmlns="http://www.w3.org/2000/svg">
  <path d="M 119 748  A 4 4 0 0 1 123 744 L 1350 744  L 1350 808  A 4 4 0 0 1 1346 812 L 123 812  A 4 4 0 0 1 119 808 L 119 748  Z " fill-rule="nonzero" fill="#ffffff" stroke="none" fill-opacity="0.996078431372549" />
  <path d="M 118.5 748  A 4.5 4.5 0 0 1 123 743.5 L 1350.5 743.5  L 1350.5 808  A 4.5 4.5 0 0 1 1346 812.5 L 123 812.5  A 4.5 4.5 0 0 1 118.5 808 L 118.5 748  Z " stroke-width="1" stroke="#d7d7d7" fill="none" stroke-opacity="0.505882352941176" />
</svg>