<?xml version="1.0" encoding="utf-8"?>
<svg version="1.1" xmlns:xlink="http://www.w3.org/1999/xlink" width="1234px" height="321px" xmlns="http://www.w3.org/2000/svg">
  <g transform="matrix(1 0 0 1 -118 -1572 )">
    <path d="M 119 1577  A 4 4 0 0 1 123 1573 L 1351 1573  L 1351 1888  A 4 4 0 0 1 1347 1892 L 123 1892  A 4 4 0 0 1 119 1888 L 119 1577  Z " fill-rule="nonzero" fill="#ffffff" stroke="none" />
    <path d="M 118.5 1577  A 4.5 4.5 0 0 1 123 1572.5 L 1351.5 1572.5  L 1351.5 1888  A 4.5 4.5 0 0 1 1347 1892.5 L 123 1892.5  A 4.5 4.5 0 0 1 118.5 1888 L 118.5 1577  Z " stroke-width="1" stroke="#d7d7d7" fill="none" stroke-opacity="0.505882352941176" />
  </g>
</svg>