<?xml version="1.0" encoding="utf-8"?>
<svg version="1.1" xmlns:xlink="http://www.w3.org/1999/xlink" width="1227px" height="50px" viewBox="126 418  1227 50" xmlns="http://www.w3.org/2000/svg">
  <path d="M 127 423  A 4 4 0 0 1 131 419 L 1352 419  L 1352 463  A 4 4 0 0 1 1348 467 L 131 467  A 4 4 0 0 1 127 463 L 127 423  Z " fill-rule="nonzero" fill="#ffffff" stroke="none" fill-opacity="0.996078431372549" />
  <path d="M 126.5 423  A 4.5 4.5 0 0 1 131 418.5 L 1352.5 418.5  L 1352.5 463  A 4.5 4.5 0 0 1 1348 467.5 L 131 467.5  A 4.5 4.5 0 0 1 126.5 463 L 126.5 423  Z " stroke-width="1" stroke="#d7d7d7" fill="none" stroke-opacity="0.505882352941176" />
</svg>