<?xml version="1.0" encoding="utf-8"?>
<svg version="1.1" xmlns:xlink="http://www.w3.org/1999/xlink" width="730px" height="40px" viewBox="126 308  730 40" xmlns="http://www.w3.org/2000/svg">
  <path d="M 127 313  A 4 4 0 0 1 131 309 L 855 309  L 855 343  A 4 4 0 0 1 851 347 L 131 347  A 4 4 0 0 1 127 343 L 127 313  Z " fill-rule="nonzero" fill="#f0f0f0" stroke="none" />
  <path d="M 126.5 313  A 4.5 4.5 0 0 1 131 308.5 L 855.5 308.5  L 855.5 343  A 4.5 4.5 0 0 1 851 347.5 L 131 347.5  A 4.5 4.5 0 0 1 126.5 343 L 126.5 313  Z " stroke-width="1" stroke="#d7d7d7" fill="none" stroke-opacity="0.498039215686275" />
</svg>