<?xml version="1.0" encoding="utf-8"?>
<svg version="1.1" xmlns:xlink="http://www.w3.org/1999/xlink" width="1477px" height="1035px" xmlns="http://www.w3.org/2000/svg">
  <g transform="matrix(1 0 0 1 0 -33 )">
    <path d="M 1 36  A 2 2 0 0 1 3 34 L 1474 34  A 2 2 0 0 1 1476 36 L 1476 1065  A 2 2 0 0 1 1474 1067 L 3 1067  A 2 2 0 0 1 1 1065 L 1 36  Z " fill-rule="nonzero" fill="#ffffff" stroke="none" />
    <path d="M 0.5 36  A 2.5 2.5 0 0 1 3 33.5 L 1474 33.5  A 2.5 2.5 0 0 1 1476.5 36 L 1476.5 1065  A 2.5 2.5 0 0 1 1474 1067.5 L 3 1067.5  A 2.5 2.5 0 0 1 0.5 1065 L 0.5 36  Z " stroke-width="1" stroke="#ec3d52" fill="none" stroke-opacity="0.188235294117647" />
  </g>
</svg>