<?xml version="1.0" encoding="utf-8"?>
<svg version="1.1" xmlns:xlink="http://www.w3.org/1999/xlink" width="12px" height="12px" viewBox="1054 348  12 12" xmlns="http://www.w3.org/2000/svg">
  <path d="M 1054.5 351  A 2.5 2.5 0 0 1 1057 348.5 L 1063 348.5  A 2.5 2.5 0 0 1 1065.5 351 L 1065.5 357  A 2.5 2.5 0 0 1 1063 359.5 L 1057 359.5  A 2.5 2.5 0 0 1 1054.5 357 L 1054.5 351  Z " fill-rule="nonzero" fill="#ffffff" stroke="none" />
  <path d="M 1054.5 351  A 2.5 2.5 0 0 1 1057 348.5 L 1063 348.5  A 2.5 2.5 0 0 1 1065.5 351 L 1065.5 357  A 2.5 2.5 0 0 1 1063 359.5 L 1057 359.5  A 2.5 2.5 0 0 1 1054.5 357 L 1054.5 351  Z " stroke-width="1" stroke="#f60068" fill="none" />
  <path d="M 1056.57142857143 354  L 1059.14285714286 356.571428571429  " stroke-width="2.57142857142857" stroke="#f60068" fill="none" />
  <path d="M 1059.14285714286 356.571428571429  L 1063.42857142857 350.571428571429  " stroke-width="2.57142857142857" stroke="#f60068" fill="none" />
</svg>