<?xml version="1.0" encoding="utf-8"?>
<svg version="1.1" xmlns:xlink="http://www.w3.org/1999/xlink" width="12px" height="12px" viewBox="1054 846  12 12" xmlns="http://www.w3.org/2000/svg">
  <path d="M 1054.5 849  A 2.5 2.5 0 0 1 1057 846.5 L 1063 846.5  A 2.5 2.5 0 0 1 1065.5 849 L 1065.5 855  A 2.5 2.5 0 0 1 1063 857.5 L 1057 857.5  A 2.5 2.5 0 0 1 1054.5 855 L 1054.5 849  Z " fill-rule="nonzero" fill="#ffffff" stroke="none" />
  <path d="M 1054.5 849  A 2.5 2.5 0 0 1 1057 846.5 L 1063 846.5  A 2.5 2.5 0 0 1 1065.5 849 L 1065.5 855  A 2.5 2.5 0 0 1 1063 857.5 L 1057 857.5  A 2.5 2.5 0 0 1 1054.5 855 L 1054.5 849  Z " stroke-width="1" stroke="#f60068" fill="none" />
  <path d="M 1056.57142857143 852  L 1059.14285714286 854.571428571429  " stroke-width="2.57142857142857" stroke="#f60068" fill="none" />
  <path d="M 1059.14285714286 854.571428571429  L 1063.42857142857 848.571428571429  " stroke-width="2.57142857142857" stroke="#f60068" fill="none" />
</svg>