<?xml version="1.0" encoding="utf-8"?>
<svg version="1.1" xmlns:xlink="http://www.w3.org/1999/xlink" width="12px" height="12px" viewBox="1054 754  12 12" xmlns="http://www.w3.org/2000/svg">
  <path d="M 1054.5 757  A 2.5 2.5 0 0 1 1057 754.5 L 1063 754.5  A 2.5 2.5 0 0 1 1065.5 757 L 1065.5 763  A 2.5 2.5 0 0 1 1063 765.5 L 1057 765.5  A 2.5 2.5 0 0 1 1054.5 763 L 1054.5 757  Z " fill-rule="nonzero" fill="#f0f0f0" stroke="none" />
  <path d="M 1054.5 757  A 2.5 2.5 0 0 1 1057 754.5 L 1063 754.5  A 2.5 2.5 0 0 1 1065.5 757 L 1065.5 763  A 2.5 2.5 0 0 1 1063 765.5 L 1057 765.5  A 2.5 2.5 0 0 1 1054.5 763 L 1054.5 757  Z " stroke-width="1" stroke="#797979" fill="none" />
  <path d="M 1056.57142857143 760  L 1059.14285714286 762.571428571429  " stroke-width="2.57142857142857" stroke="#797979" fill="none" />
  <path d="M 1059.14285714286 762.571428571429  L 1063.42857142857 756.571428571429  " stroke-width="2.57142857142857" stroke="#797979" fill="none" />
</svg>