<?xml version="1.0" encoding="utf-8"?>
<svg version="1.1" xmlns:xlink="http://www.w3.org/1999/xlink" width="12px" height="12px" viewBox="1061 1865  12 12" xmlns="http://www.w3.org/2000/svg">
  <path d="M 1061.5 1868  A 2.5 2.5 0 0 1 1064 1865.5 L 1070 1865.5  A 2.5 2.5 0 0 1 1072.5 1868 L 1072.5 1874  A 2.5 2.5 0 0 1 1070 1876.5 L 1064 1876.5  A 2.5 2.5 0 0 1 1061.5 1874 L 1061.5 1868  Z " fill-rule="nonzero" fill="#f0f0f0" stroke="none" />
  <path d="M 1061.5 1868  A 2.5 2.5 0 0 1 1064 1865.5 L 1070 1865.5  A 2.5 2.5 0 0 1 1072.5 1868 L 1072.5 1874  A 2.5 2.5 0 0 1 1070 1876.5 L 1064 1876.5  A 2.5 2.5 0 0 1 1061.5 1874 L 1061.5 1868  Z " stroke-width="1" stroke="#797979" fill="none" />
  <path d="M 1063.57142857143 1871  L 1066.14285714286 1873.57142857143  " stroke-width="2.57142857142857" stroke="#797979" fill="none" />
  <path d="M 1066.14285714286 1873.57142857143  L 1070.42857142857 1867.57142857143  " stroke-width="2.57142857142857" stroke="#797979" fill="none" />
</svg>