<?xml version="1.0" encoding="utf-8"?>
<svg version="1.1" xmlns:xlink="http://www.w3.org/1999/xlink" width="12px" height="12px" viewBox="274 436  12 12" xmlns="http://www.w3.org/2000/svg">
  <path d="M 274.5 439  A 2.5 2.5 0 0 1 277 436.5 L 283 436.5  A 2.5 2.5 0 0 1 285.5 439 L 285.5 445  A 2.5 2.5 0 0 1 283 447.5 L 277 447.5  A 2.5 2.5 0 0 1 274.5 445 L 274.5 439  Z " fill-rule="nonzero" fill="#ffffff" stroke="none" />
  <path d="M 274.5 439  A 2.5 2.5 0 0 1 277 436.5 L 283 436.5  A 2.5 2.5 0 0 1 285.5 439 L 285.5 445  A 2.5 2.5 0 0 1 283 447.5 L 277 447.5  A 2.5 2.5 0 0 1 274.5 445 L 274.5 439  Z " stroke-width="1" stroke="#f60068" fill="none" />
  <path d="M 276.571428571429 442  L 279.142857142857 444.571428571429  " stroke-width="2.57142857142857" stroke="#f60068" fill="none" />
  <path d="M 279.142857142857 444.571428571429  L 283.428571428571 438.571428571429  " stroke-width="2.57142857142857" stroke="#f60068" fill="none" />
</svg>