<?xml version="1.0" encoding="utf-8"?>
<svg version="1.1" xmlns:xlink="http://www.w3.org/1999/xlink" width="12px" height="12px" viewBox="1176 667  12 12" xmlns="http://www.w3.org/2000/svg">
  <path d="M 1176.5 670  A 2.5 2.5 0 0 1 1179 667.5 L 1185 667.5  A 2.5 2.5 0 0 1 1187.5 670 L 1187.5 676  A 2.5 2.5 0 0 1 1185 678.5 L 1179 678.5  A 2.5 2.5 0 0 1 1176.5 676 L 1176.5 670  Z " fill-rule="nonzero" fill="#ffffff" stroke="none" />
  <path d="M 1176.5 670  A 2.5 2.5 0 0 1 1179 667.5 L 1185 667.5  A 2.5 2.5 0 0 1 1187.5 670 L 1187.5 676  A 2.5 2.5 0 0 1 1185 678.5 L 1179 678.5  A 2.5 2.5 0 0 1 1176.5 676 L 1176.5 670  Z " stroke-width="1" stroke="#f60068" fill="none" />
  <path d="M 1178.57142857143 673  L 1181.14285714286 675.571428571429  " stroke-width="2.57142857142857" stroke="#f60068" fill="none" />
  <path d="M 1181.14285714286 675.571428571429  L 1185.42857142857 669.571428571429  " stroke-width="2.57142857142857" stroke="#f60068" fill="none" />
</svg>