<?xml version="1.0" encoding="utf-8"?>
<svg version="1.1" xmlns:xlink="http://www.w3.org/1999/xlink" width="12px" height="12px" viewBox="183 667  12 12" xmlns="http://www.w3.org/2000/svg">
  <path d="M 183.5 670  A 2.5 2.5 0 0 1 186 667.5 L 192 667.5  A 2.5 2.5 0 0 1 194.5 670 L 194.5 676  A 2.5 2.5 0 0 1 192 678.5 L 186 678.5  A 2.5 2.5 0 0 1 183.5 676 L 183.5 670  Z " fill-rule="nonzero" fill="#ffffff" stroke="none" />
  <path d="M 183.5 670  A 2.5 2.5 0 0 1 186 667.5 L 192 667.5  A 2.5 2.5 0 0 1 194.5 670 L 194.5 676  A 2.5 2.5 0 0 1 192 678.5 L 186 678.5  A 2.5 2.5 0 0 1 183.5 676 L 183.5 670  Z " stroke-width="1" stroke="#797979" fill="none" />
</svg>