<?xml version="1.0" encoding="utf-8"?>
<svg version="1.1" xmlns:xlink="http://www.w3.org/1999/xlink" width="12px" height="12px" viewBox="329 605  12 12" xmlns="http://www.w3.org/2000/svg">
  <path d="M 329.5 608  A 2.5 2.5 0 0 1 332 605.5 L 338 605.5  A 2.5 2.5 0 0 1 340.5 608 L 340.5 614  A 2.5 2.5 0 0 1 338 616.5 L 332 616.5  A 2.5 2.5 0 0 1 329.5 614 L 329.5 608  Z " fill-rule="nonzero" fill="#f0f0f0" stroke="none" />
  <path d="M 329.5 608  A 2.5 2.5 0 0 1 332 605.5 L 338 605.5  A 2.5 2.5 0 0 1 340.5 608 L 340.5 614  A 2.5 2.5 0 0 1 338 616.5 L 332 616.5  A 2.5 2.5 0 0 1 329.5 614 L 329.5 608  Z " stroke-width="1" stroke="#797979" fill="none" />
  <path d="M 331.571428571429 611  L 334.142857142857 613.571428571429  " stroke-width="2.57142857142857" stroke="#797979" fill="none" />
  <path d="M 334.142857142857 613.571428571429  L 338.428571428571 607.571428571429  " stroke-width="2.57142857142857" stroke="#797979" fill="none" />
</svg>