<?xml version="1.0" encoding="utf-8"?>
<svg version="1.1" xmlns:xlink="http://www.w3.org/1999/xlink" width="1234px" height="70px" viewBox="118 3012  1234 70" xmlns="http://www.w3.org/2000/svg">
  <path d="M 119 3017  A 4 4 0 0 1 123 3013 L 1351 3013  L 1351 3077  A 4 4 0 0 1 1347 3081 L 123 3081  A 4 4 0 0 1 119 3077 L 119 3017  Z " fill-rule="nonzero" fill="#ffffff" stroke="none" />
  <path d="M 118.5 3017  A 4.5 4.5 0 0 1 123 3012.5 L 1351.5 3012.5  L 1351.5 3077  A 4.5 4.5 0 0 1 1347 3081.5 L 123 3081.5  A 4.5 4.5 0 0 1 118.5 3077 L 118.5 3017  Z " stroke-width="1" stroke="#d7d7d7" fill="none" stroke-opacity="0.498039215686275" />
</svg>