<?xml version="1.0" encoding="utf-8"?>
<svg version="1.1" xmlns:xlink="http://www.w3.org/1999/xlink" width="12px" height="12px" viewBox="1061 1724  12 12" xmlns="http://www.w3.org/2000/svg">
  <path d="M 1061.5 1727  A 2.5 2.5 0 0 1 1064 1724.5 L 1070 1724.5  A 2.5 2.5 0 0 1 1072.5 1727 L 1072.5 1733  A 2.5 2.5 0 0 1 1070 1735.5 L 1064 1735.5  A 2.5 2.5 0 0 1 1061.5 1733 L 1061.5 1727  Z " fill-rule="nonzero" fill="#ffffff" stroke="none" />
  <path d="M 1061.5 1727  A 2.5 2.5 0 0 1 1064 1724.5 L 1070 1724.5  A 2.5 2.5 0 0 1 1072.5 1727 L 1072.5 1733  A 2.5 2.5 0 0 1 1070 1735.5 L 1064 1735.5  A 2.5 2.5 0 0 1 1061.5 1733 L 1061.5 1727  Z " stroke-width="1" stroke="#797979" fill="none" />
</svg>