<?xml version="1.0" encoding="utf-8"?>
<svg version="1.1" xmlns:xlink="http://www.w3.org/1999/xlink" width="1226px" height="39px" viewBox="125 643  1226 39" xmlns="http://www.w3.org/2000/svg">
  <path d="M 126 648  A 4 4 0 0 1 130 644 L 1350 644  L 1350 677  A 4 4 0 0 1 1346 681 L 130 681  A 4 4 0 0 1 126 677 L 126 648  Z " fill-rule="nonzero" fill="#ffffff" stroke="none" />
  <path d="M 125.5 648  A 4.5 4.5 0 0 1 130 643.5 L 1350.5 643.5  L 1350.5 677  A 4.5 4.5 0 0 1 1346 681.5 L 130 681.5  A 4.5 4.5 0 0 1 125.5 677 L 125.5 648  Z " stroke-width="1" stroke="#d7d7d7" fill="none" stroke-opacity="0.498039215686275" />
</svg>