<?xml version="1.0" encoding="utf-8"?>
<svg version="1.1" xmlns:xlink="http://www.w3.org/1999/xlink" width="1478px" height="3484px" xmlns="http://www.w3.org/2000/svg">
  <g transform="matrix(1 0 0 1 0 -34 )">
    <path d="M 1 37  A 2 2 0 0 1 3 35 L 1475 35  A 2 2 0 0 1 1477 37 L 1477 3515  A 2 2 0 0 1 1475 3517 L 3 3517  A 2 2 0 0 1 1 3515 L 1 37  Z " fill-rule="nonzero" fill="#ffffff" stroke="none" />
    <path d="M 0.5 37  A 2.5 2.5 0 0 1 3 34.5 L 1475 34.5  A 2.5 2.5 0 0 1 1477.5 37 L 1477.5 3515  A 2.5 2.5 0 0 1 1475 3517.5 L 3 3517.5  A 2.5 2.5 0 0 1 0.5 3515 L 0.5 37  Z " stroke-width="1" stroke="#ec3d52" fill="none" stroke-opacity="0.188235294117647" />
  </g>
</svg>