<?xml version="1.0" encoding="utf-8"?>
<svg version="1.1" xmlns:xlink="http://www.w3.org/1999/xlink" width="12px" height="12px" viewBox="319 1075  12 12" xmlns="http://www.w3.org/2000/svg">
  <path d="M 319.5 1078  A 2.5 2.5 0 0 1 322 1075.5 L 328 1075.5  A 2.5 2.5 0 0 1 330.5 1078 L 330.5 1084  A 2.5 2.5 0 0 1 328 1086.5 L 322 1086.5  A 2.5 2.5 0 0 1 319.5 1084 L 319.5 1078  Z " fill-rule="nonzero" fill="#f0f0f0" stroke="none" />
  <path d="M 319.5 1078  A 2.5 2.5 0 0 1 322 1075.5 L 328 1075.5  A 2.5 2.5 0 0 1 330.5 1078 L 330.5 1084  A 2.5 2.5 0 0 1 328 1086.5 L 322 1086.5  A 2.5 2.5 0 0 1 319.5 1084 L 319.5 1078  Z " stroke-width="1" stroke="#797979" fill="none" />
  <path d="M 321.571428571429 1081  L 324.142857142857 1083.57142857143  " stroke-width="2.57142857142857" stroke="#797979" fill="none" />
  <path d="M 324.142857142857 1083.57142857143  L 328.428571428571 1077.57142857143  " stroke-width="2.57142857142857" stroke="#797979" fill="none" />
</svg>