<?xml version="1.0" encoding="utf-8"?>
<svg version="1.1" xmlns:xlink="http://www.w3.org/1999/xlink" width="12px" height="12px" viewBox="1335 827  12 12" xmlns="http://www.w3.org/2000/svg">
  <path d="M 1335.5 830  A 2.5 2.5 0 0 1 1338 827.5 L 1344 827.5  A 2.5 2.5 0 0 1 1346.5 830 L 1346.5 836  A 2.5 2.5 0 0 1 1344 838.5 L 1338 838.5  A 2.5 2.5 0 0 1 1335.5 836 L 1335.5 830  Z " fill-rule="nonzero" fill="#f0f0f0" stroke="none" />
  <path d="M 1335.5 830  A 2.5 2.5 0 0 1 1338 827.5 L 1344 827.5  A 2.5 2.5 0 0 1 1346.5 830 L 1346.5 836  A 2.5 2.5 0 0 1 1344 838.5 L 1338 838.5  A 2.5 2.5 0 0 1 1335.5 836 L 1335.5 830  Z " stroke-width="1" stroke="#797979" fill="none" />
  <path d="M 1337.57142857143 833  L 1340.14285714286 835.571428571429  " stroke-width="2.57142857142857" stroke="#797979" fill="none" />
  <path d="M 1340.14285714286 835.571428571429  L 1344.42857142857 829.571428571429  " stroke-width="2.57142857142857" stroke="#797979" fill="none" />
</svg>