<?xml version="1.0" encoding="utf-8"?>
<svg version="1.1" xmlns:xlink="http://www.w3.org/1999/xlink" width="1234px" height="326px" xmlns="http://www.w3.org/2000/svg">
  <g transform="matrix(1 0 0 1 -118 -2301 )">
    <path d="M 119 2306  A 4 4 0 0 1 123 2302 L 1351 2302  L 1351 2622  A 4 4 0 0 1 1347 2626 L 123 2626  A 4 4 0 0 1 119 2622 L 119 2306  Z " fill-rule="nonzero" fill="#ffffff" stroke="none" />
    <path d="M 118.5 2306  A 4.5 4.5 0 0 1 123 2301.5 L 1351.5 2301.5  L 1351.5 2622  A 4.5 4.5 0 0 1 1347 2626.5 L 123 2626.5  A 4.5 4.5 0 0 1 118.5 2622 L 118.5 2306  Z " stroke-width="1" stroke="#d7d7d7" fill="none" stroke-opacity="0.505882352941176" />
  </g>
</svg>