<?xml version="1.0" encoding="utf-8"?>
<svg version="1.1" xmlns:xlink="http://www.w3.org/1999/xlink" width="12px" height="12px" viewBox="1236 1020  12 12" xmlns="http://www.w3.org/2000/svg">
  <path d="M 1236.5 1023  A 2.5 2.5 0 0 1 1239 1020.5 L 1245 1020.5  A 2.5 2.5 0 0 1 1247.5 1023 L 1247.5 1029  A 2.5 2.5 0 0 1 1245 1031.5 L 1239 1031.5  A 2.5 2.5 0 0 1 1236.5 1029 L 1236.5 1023  Z " fill-rule="nonzero" fill="#ffffff" stroke="none" />
  <path d="M 1236.5 1023  A 2.5 2.5 0 0 1 1239 1020.5 L 1245 1020.5  A 2.5 2.5 0 0 1 1247.5 1023 L 1247.5 1029  A 2.5 2.5 0 0 1 1245 1031.5 L 1239 1031.5  A 2.5 2.5 0 0 1 1236.5 1029 L 1236.5 1023  Z " stroke-width="1" stroke="#f60068" fill="none" />
  <path d="M 1238.57142857143 1026  L 1241.14285714286 1028.57142857143  " stroke-width="2.57142857142857" stroke="#f60068" fill="none" />
  <path d="M 1241.14285714286 1028.57142857143  L 1245.42857142857 1022.57142857143  " stroke-width="2.57142857142857" stroke="#f60068" fill="none" />
</svg>