<?xml version="1.0" encoding="utf-8"?>
<svg version="1.1" xmlns:xlink="http://www.w3.org/1999/xlink" width="12px" height="12px" viewBox="1152 347  12 12" xmlns="http://www.w3.org/2000/svg">
  <path d="M 1152.5 350  A 2.5 2.5 0 0 1 1155 347.5 L 1161 347.5  A 2.5 2.5 0 0 1 1163.5 350 L 1163.5 356  A 2.5 2.5 0 0 1 1161 358.5 L 1155 358.5  A 2.5 2.5 0 0 1 1152.5 356 L 1152.5 350  Z " fill-rule="nonzero" fill="#ffffff" stroke="none" />
  <path d="M 1152.5 350  A 2.5 2.5 0 0 1 1155 347.5 L 1161 347.5  A 2.5 2.5 0 0 1 1163.5 350 L 1163.5 356  A 2.5 2.5 0 0 1 1161 358.5 L 1155 358.5  A 2.5 2.5 0 0 1 1152.5 356 L 1152.5 350  Z " stroke-width="1" stroke="#f60068" fill="none" />
  <path d="M 1154.57142857143 353  L 1157.14285714286 355.571428571429  " stroke-width="2.57142857142857" stroke="#f60068" fill="none" />
  <path d="M 1157.14285714286 355.571428571429  L 1161.42857142857 349.571428571429  " stroke-width="2.57142857142857" stroke="#f60068" fill="none" />
</svg>