<?xml version="1.0" encoding="utf-8"?>
<svg version="1.1" xmlns:xlink="http://www.w3.org/1999/xlink" width="1234px" height="222px" xmlns="http://www.w3.org/2000/svg">
  <g transform="matrix(1 0 0 1 -118 -1986 )">
    <path d="M 119 1991  A 4 4 0 0 1 123 1987 L 1351 1987  L 1351 2203  A 4 4 0 0 1 1347 2207 L 123 2207  A 4 4 0 0 1 119 2203 L 119 1991  Z " fill-rule="nonzero" fill="#ffffff" stroke="none" />
    <path d="M 118.5 1991  A 4.5 4.5 0 0 1 123 1986.5 L 1351.5 1986.5  L 1351.5 2203  A 4.5 4.5 0 0 1 1347 2207.5 L 123 2207.5  A 4.5 4.5 0 0 1 118.5 2203 L 118.5 1991  Z " stroke-width="1" stroke="#d7d7d7" fill="none" stroke-opacity="0.505882352941176" />
  </g>
</svg>