<?xml version="1.0" encoding="utf-8"?>
<svg version="1.1" xmlns:xlink="http://www.w3.org/1999/xlink" width="12px" height="12px" viewBox="1176 750  12 12" xmlns="http://www.w3.org/2000/svg">
  <path d="M 1176.5 753  A 2.5 2.5 0 0 1 1179 750.5 L 1185 750.5  A 2.5 2.5 0 0 1 1187.5 753 L 1187.5 759  A 2.5 2.5 0 0 1 1185 761.5 L 1179 761.5  A 2.5 2.5 0 0 1 1176.5 759 L 1176.5 753  Z " fill-rule="nonzero" fill="#ffffff" stroke="none" />
  <path d="M 1176.5 753  A 2.5 2.5 0 0 1 1179 750.5 L 1185 750.5  A 2.5 2.5 0 0 1 1187.5 753 L 1187.5 759  A 2.5 2.5 0 0 1 1185 761.5 L 1179 761.5  A 2.5 2.5 0 0 1 1176.5 759 L 1176.5 753  Z " stroke-width="1" stroke="#f60068" fill="none" />
  <path d="M 1178.57142857143 756  L 1181.14285714286 758.571428571429  " stroke-width="2.57142857142857" stroke="#f60068" fill="none" />
  <path d="M 1181.14285714286 758.571428571429  L 1185.42857142857 752.571428571429  " stroke-width="2.57142857142857" stroke="#f60068" fill="none" />
</svg>