<?xml version="1.0" encoding="utf-8"?>
<svg version="1.1" xmlns:xlink="http://www.w3.org/1999/xlink" width="1234px" height="203px" xmlns="http://www.w3.org/2000/svg">
  <g transform="matrix(1 0 0 1 -118 -3149 )">
    <path d="M 119 3154  A 4 4 0 0 1 123 3150 L 1351 3150  L 1351 3347  A 4 4 0 0 1 1347 3351 L 123 3351  A 4 4 0 0 1 119 3347 L 119 3154  Z " fill-rule="nonzero" fill="#ffffff" stroke="none" />
    <path d="M 118.5 3154  A 4.5 4.5 0 0 1 123 3149.5 L 1351.5 3149.5  L 1351.5 3347  A 4.5 4.5 0 0 1 1347 3351.5 L 123 3351.5  A 4.5 4.5 0 0 1 118.5 3347 L 118.5 3154  Z " stroke-width="1" stroke="#d7d7d7" fill="none" stroke-opacity="0.498039215686275" />
  </g>
</svg>