<?xml version="1.0" encoding="utf-8"?>
<svg version="1.1" xmlns:xlink="http://www.w3.org/1999/xlink" width="1233px" height="40px" viewBox="118 523  1233 40" xmlns="http://www.w3.org/2000/svg">
  <path d="M 119 528  A 4 4 0 0 1 123 524 L 1350 524  L 1350 558  A 4 4 0 0 1 1346 562 L 123 562  A 4 4 0 0 1 119 558 L 119 528  Z " fill-rule="nonzero" fill="#ffffff" stroke="none" />
  <path d="M 118.5 528  A 4.5 4.5 0 0 1 123 523.5 L 1350.5 523.5  L 1350.5 558  A 4.5 4.5 0 0 1 1346 562.5 L 123 562.5  A 4.5 4.5 0 0 1 118.5 558 L 118.5 528  Z " stroke-width="1" stroke="#d7d7d7" fill="none" stroke-opacity="0.498039215686275" />
</svg>