<?xml version="1.0" encoding="utf-8"?>
<svg version="1.1" xmlns:xlink="http://www.w3.org/1999/xlink" width="12px" height="12px" viewBox="1061 1968  12 12" xmlns="http://www.w3.org/2000/svg">
  <path d="M 1061.5 1971  A 2.5 2.5 0 0 1 1064 1968.5 L 1070 1968.5  A 2.5 2.5 0 0 1 1072.5 1971 L 1072.5 1977  A 2.5 2.5 0 0 1 1070 1979.5 L 1064 1979.5  A 2.5 2.5 0 0 1 1061.5 1977 L 1061.5 1971  Z " fill-rule="nonzero" fill="#ffffff" stroke="none" />
  <path d="M 1061.5 1971  A 2.5 2.5 0 0 1 1064 1968.5 L 1070 1968.5  A 2.5 2.5 0 0 1 1072.5 1971 L 1072.5 1977  A 2.5 2.5 0 0 1 1070 1979.5 L 1064 1979.5  A 2.5 2.5 0 0 1 1061.5 1977 L 1061.5 1971  Z " stroke-width="1" stroke="#f60068" fill="none" />
  <path d="M 1063.57142857143 1974  L 1066.14285714286 1976.57142857143  " stroke-width="2.57142857142857" stroke="#f60068" fill="none" />
  <path d="M 1066.14285714286 1976.57142857143  L 1070.42857142857 1970.57142857143  " stroke-width="2.57142857142857" stroke="#f60068" fill="none" />
</svg>