<?xml version="1.0" encoding="utf-8"?>
<svg version="1.1" xmlns:xlink="http://www.w3.org/1999/xlink" width="1349px" height="88px" viewBox="117 1439  1349 88" xmlns="http://www.w3.org/2000/svg">
  <path d="M 118 1444  A 4 4 0 0 1 122 1440 L 1461 1440  A 4 4 0 0 1 1465 1444 L 1465 1522  A 4 4 0 0 1 1461 1526 L 122 1526  A 4 4 0 0 1 118 1522 L 118 1444  Z " fill-rule="nonzero" fill="#ffffff" stroke="none" />
  <path d="M 117.5 1444  A 4.5 4.5 0 0 1 122 1439.5 L 1461 1439.5  A 4.5 4.5 0 0 1 1465.5 1444 L 1465.5 1522  A 4.5 4.5 0 0 1 1461 1526.5 L 122 1526.5  A 4.5 4.5 0 0 1 117.5 1522 L 117.5 1444  Z " stroke-width="1" stroke="#d7d7d7" fill="none" stroke-opacity="0.349019607843137" />
</svg>