<?xml version="1.0" encoding="utf-8"?>
<svg version="1.1" xmlns:xlink="http://www.w3.org/1999/xlink" width="1349px" height="177px" xmlns="http://www.w3.org/2000/svg">
  <g transform="matrix(1 0 0 1 -117 -372 )">
    <path d="M 118 377  A 4 4 0 0 1 122 373 L 1461 373  A 4 4 0 0 1 1465 377 L 1465 544  A 4 4 0 0 1 1461 548 L 122 548  A 4 4 0 0 1 118 544 L 118 377  Z " fill-rule="nonzero" fill="#ffffff" stroke="none" />
    <path d="M 117.5 377  A 4.5 4.5 0 0 1 122 372.5 L 1461 372.5  A 4.5 4.5 0 0 1 1465.5 377 L 1465.5 544  A 4.5 4.5 0 0 1 1461 548.5 L 122 548.5  A 4.5 4.5 0 0 1 117.5 544 L 117.5 377  Z " stroke-width="1" stroke="#d7d7d7" fill="none" stroke-opacity="0.349019607843137" />
  </g>
</svg>