<?xml version="1.0" encoding="utf-8"?>
<svg version="1.1" xmlns:xlink="http://www.w3.org/1999/xlink" width="1349px" height="155px" xmlns="http://www.w3.org/2000/svg">
  <g transform="matrix(1 0 0 1 -117 -1203 )">
    <path d="M 118 1208  A 4 4 0 0 1 122 1204 L 1461 1204  A 4 4 0 0 1 1465 1208 L 1465 1353  A 4 4 0 0 1 1461 1357 L 122 1357  A 4 4 0 0 1 118 1353 L 118 1208  Z " fill-rule="nonzero" fill="#ffffff" stroke="none" />
    <path d="M 117.5 1208  A 4.5 4.5 0 0 1 122 1203.5 L 1461 1203.5  A 4.5 4.5 0 0 1 1465.5 1208 L 1465.5 1353  A 4.5 4.5 0 0 1 1461 1357.5 L 122 1357.5  A 4.5 4.5 0 0 1 117.5 1353 L 117.5 1208  Z " stroke-width="1" stroke="#d7d7d7" fill="none" stroke-opacity="0.349019607843137" />
  </g>
</svg>