<?xml version="1.0" encoding="utf-8"?>
<svg version="1.1" xmlns:xlink="http://www.w3.org/1999/xlink" width="12px" height="12px" viewBox="1454 1602  12 12" xmlns="http://www.w3.org/2000/svg">
  <path d="M 1454.5 1605  A 2.5 2.5 0 0 1 1457 1602.5 L 1463 1602.5  A 2.5 2.5 0 0 1 1465.5 1605 L 1465.5 1611  A 2.5 2.5 0 0 1 1463 1613.5 L 1457 1613.5  A 2.5 2.5 0 0 1 1454.5 1611 L 1454.5 1605  Z " fill-rule="nonzero" fill="#ffffff" stroke="none" />
  <path d="M 1454.5 1605  A 2.5 2.5 0 0 1 1457 1602.5 L 1463 1602.5  A 2.5 2.5 0 0 1 1465.5 1605 L 1465.5 1611  A 2.5 2.5 0 0 1 1463 1613.5 L 1457 1613.5  A 2.5 2.5 0 0 1 1454.5 1611 L 1454.5 1605  Z " stroke-width="1" stroke="#797979" fill="none" />
</svg>