<?xml version="1.0" encoding="utf-8"?>
<svg version="1.1" xmlns:xlink="http://www.w3.org/1999/xlink" width="1349px" height="163px" xmlns="http://www.w3.org/2000/svg">
  <g transform="matrix(1 0 0 1 -117 -968 )">
    <path d="M 118 973  A 4 4 0 0 1 122 969 L 1461 969  A 4 4 0 0 1 1465 973 L 1465 1126  A 4 4 0 0 1 1461 1130 L 122 1130  A 4 4 0 0 1 118 1126 L 118 973  Z " fill-rule="nonzero" fill="#ffffff" stroke="none" />
    <path d="M 117.5 973  A 4.5 4.5 0 0 1 122 968.5 L 1461 968.5  A 4.5 4.5 0 0 1 1465.5 973 L 1465.5 1126  A 4.5 4.5 0 0 1 1461 1130.5 L 122 1130.5  A 4.5 4.5 0 0 1 117.5 1126 L 117.5 973  Z " stroke-width="1" stroke="#d7d7d7" fill="none" stroke-opacity="0.349019607843137" />
  </g>
</svg>