<?xml version="1.0" encoding="utf-8"?>
<svg version="1.1" xmlns:xlink="http://www.w3.org/1999/xlink" width="1349px" height="287px" xmlns="http://www.w3.org/2000/svg">
  <g transform="matrix(1 0 0 1 -117 -621 )">
    <path d="M 118 626  A 4 4 0 0 1 122 622 L 1461 622  A 4 4 0 0 1 1465 626 L 1465 903  A 4 4 0 0 1 1461 907 L 122 907  A 4 4 0 0 1 118 903 L 118 626  Z " fill-rule="nonzero" fill="#ffffff" stroke="none" />
    <path d="M 117.5 626  A 4.5 4.5 0 0 1 122 621.5 L 1461 621.5  A 4.5 4.5 0 0 1 1465.5 626 L 1465.5 903  A 4.5 4.5 0 0 1 1461 907.5 L 122 907.5  A 4.5 4.5 0 0 1 117.5 903 L 117.5 626  Z " stroke-width="1" stroke="#d7d7d7" fill="none" stroke-opacity="0.349019607843137" />
  </g>
</svg>