<?xml version="1.0" encoding="utf-8"?>
<svg version="1.1" xmlns:xlink="http://www.w3.org/1999/xlink" width="12px" height="12px" viewBox="1454 1623  12 12" xmlns="http://www.w3.org/2000/svg">
  <path d="M 1454.5 1626  A 2.5 2.5 0 0 1 1457 1623.5 L 1463 1623.5  A 2.5 2.5 0 0 1 1465.5 1626 L 1465.5 1632  A 2.5 2.5 0 0 1 1463 1634.5 L 1457 1634.5  A 2.5 2.5 0 0 1 1454.5 1632 L 1454.5 1626  Z " fill-rule="nonzero" fill="#f0f0f0" stroke="none" />
  <path d="M 1454.5 1626  A 2.5 2.5 0 0 1 1457 1623.5 L 1463 1623.5  A 2.5 2.5 0 0 1 1465.5 1626 L 1465.5 1632  A 2.5 2.5 0 0 1 1463 1634.5 L 1457 1634.5  A 2.5 2.5 0 0 1 1454.5 1632 L 1454.5 1626  Z " stroke-width="1" stroke="#797979" fill="none" />
  <path d="M 1456.57142857143 1629  L 1459.14285714286 1631.57142857143  " stroke-width="2.57142857142857" stroke="#797979" fill="none" />
  <path d="M 1459.14285714286 1631.57142857143  L 1463.42857142857 1625.57142857143  " stroke-width="2.57142857142857" stroke="#797979" fill="none" />
</svg>