<?xml version="1.0" encoding="utf-8"?>
<svg version="1.1" xmlns:xlink="http://www.w3.org/1999/xlink" width="17px" height="17px" viewBox="1252 1252  17 17" xmlns="http://www.w3.org/2000/svg">
  <path d="M 1260.5 1252  C 1265.26 1252  1269 1255.74  1269 1260.5  C 1269 1265.26  1265.26 1269  1260.5 1269  C 1255.74 1269  1252 1265.26  1252 1260.5  C 1252 1255.74  1255.74 1252  1260.5 1252  Z " fill-rule="nonzero" fill="#ffffff" stroke="none" />
  <path d="M 1260.5 1252.5  C 1264.98 1252.5  1268.5 1256.02  1268.5 1260.5  C 1268.5 1264.98  1264.98 1268.5  1260.5 1268.5  C 1256.02 1268.5  1252.5 1264.98  1252.5 1260.5  C 1252.5 1256.02  1256.02 1252.5  1260.5 1252.5  Z " stroke-width="1" stroke="#f60068" fill="none" />
  <path d="M 1260.5 1264.75  C 1258.12 1264.75  1256.25 1262.88  1256.25 1260.5  C 1256.25 1258.12  1258.12 1256.25  1260.5 1256.25  C 1262.88 1256.25  1264.75 1258.12  1264.75 1260.5  C 1264.75 1262.88  1262.88 1264.75  1260.5 1264.75  " fill-rule="nonzero" fill="#f60068" stroke="none" />
</svg>