<?xml version="1.0" encoding="utf-8"?>
<svg version="1.1" xmlns:xlink="http://www.w3.org/1999/xlink" width="17px" height="17px" viewBox="1306 1900  17 17" xmlns="http://www.w3.org/2000/svg">
  <path d="M 1314.5 1900  C 1319.26 1900  1323 1903.74  1323 1908.5  C 1323 1913.26  1319.26 1917  1314.5 1917  C 1309.74 1917  1306 1913.26  1306 1908.5  C 1306 1903.74  1309.74 1900  1314.5 1900  Z " fill-rule="nonzero" fill="#ffffff" stroke="none" />
  <path d="M 1314.5 1900.5  C 1318.98 1900.5  1322.5 1904.02  1322.5 1908.5  C 1322.5 1912.98  1318.98 1916.5  1314.5 1916.5  C 1310.02 1916.5  1306.5 1912.98  1306.5 1908.5  C 1306.5 1904.02  1310.02 1900.5  1314.5 1900.5  Z " stroke-width="1" stroke="#f60068" fill="none" />
  <path d="M 1314.5 1912.75  C 1312.12 1912.75  1310.25 1910.88  1310.25 1908.5  C 1310.25 1906.12  1312.12 1904.25  1314.5 1904.25  C 1316.88 1904.25  1318.75 1906.12  1318.75 1908.5  C 1318.75 1910.88  1316.88 1912.75  1314.5 1912.75  " fill-rule="nonzero" fill="#f60068" stroke="none" />
</svg>