<?xml version="1.0" encoding="utf-8"?>
<svg version="1.1" xmlns:xlink="http://www.w3.org/1999/xlink" width="17px" height="17px" viewBox="1297 1178  17 17" xmlns="http://www.w3.org/2000/svg">
  <path d="M 1305.5 1178  C 1310.26 1178  1314 1181.74  1314 1186.5  C 1314 1191.26  1310.26 1195  1305.5 1195  C 1300.74 1195  1297 1191.26  1297 1186.5  C 1297 1181.74  1300.74 1178  1305.5 1178  Z " fill-rule="nonzero" fill="#ffffff" stroke="none" />
  <path d="M 1305.5 1178.5  C 1309.98 1178.5  1313.5 1182.02  1313.5 1186.5  C 1313.5 1190.98  1309.98 1194.5  1305.5 1194.5  C 1301.02 1194.5  1297.5 1190.98  1297.5 1186.5  C 1297.5 1182.02  1301.02 1178.5  1305.5 1178.5  Z " stroke-width="1" stroke="#f60068" fill="none" />
  <path d="M 1305.5 1190.75  C 1303.12 1190.75  1301.25 1188.88  1301.25 1186.5  C 1301.25 1184.12  1303.12 1182.25  1305.5 1182.25  C 1307.88 1182.25  1309.75 1184.12  1309.75 1186.5  C 1309.75 1188.88  1307.88 1190.75  1305.5 1190.75  " fill-rule="nonzero" fill="#f60068" stroke="none" />
</svg>