<?xml version="1.0" encoding="utf-8"?>
<svg version="1.1" xmlns:xlink="http://www.w3.org/1999/xlink" width="17px" height="17px" viewBox="1297 1204  17 17" xmlns="http://www.w3.org/2000/svg">
  <path d="M 1305.5 1204  C 1310.26 1204  1314 1207.74  1314 1212.5  C 1314 1217.26  1310.26 1221  1305.5 1221  C 1300.74 1221  1297 1217.26  1297 1212.5  C 1297 1207.74  1300.74 1204  1305.5 1204  Z " fill-rule="nonzero" fill="#ffffff" stroke="none" />
  <path d="M 1305.5 1204.5  C 1309.98 1204.5  1313.5 1208.02  1313.5 1212.5  C 1313.5 1216.98  1309.98 1220.5  1305.5 1220.5  C 1301.02 1220.5  1297.5 1216.98  1297.5 1212.5  C 1297.5 1208.02  1301.02 1204.5  1305.5 1204.5  Z " stroke-width="1" stroke="#f60068" fill="none" />
  <path d="M 1305.5 1216.75  C 1303.12 1216.75  1301.25 1214.88  1301.25 1212.5  C 1301.25 1210.12  1303.12 1208.25  1305.5 1208.25  C 1307.88 1208.25  1309.75 1210.12  1309.75 1212.5  C 1309.75 1214.88  1307.88 1216.75  1305.5 1216.75  " fill-rule="nonzero" fill="#f60068" stroke="none" />
</svg>