<?xml version="1.0" encoding="utf-8"?>
<svg version="1.1" xmlns:xlink="http://www.w3.org/1999/xlink" width="12px" height="12px" viewBox="1113 973  12 12" xmlns="http://www.w3.org/2000/svg">
  <path d="M 1113.5 976  A 2.5 2.5 0 0 1 1116 973.5 L 1122 973.5  A 2.5 2.5 0 0 1 1124.5 976 L 1124.5 982  A 2.5 2.5 0 0 1 1122 984.5 L 1116 984.5  A 2.5 2.5 0 0 1 1113.5 982 L 1113.5 976  Z " fill-rule="nonzero" fill="#ffffff" stroke="none" />
  <path d="M 1113.5 976  A 2.5 2.5 0 0 1 1116 973.5 L 1122 973.5  A 2.5 2.5 0 0 1 1124.5 976 L 1124.5 982  A 2.5 2.5 0 0 1 1122 984.5 L 1116 984.5  A 2.5 2.5 0 0 1 1113.5 982 L 1113.5 976  Z " stroke-width="1" stroke="#f60068" fill="none" />
  <path d="M 1115.57142857143 979  L 1118.14285714286 981.571428571429  " stroke-width="2.57142857142857" stroke="#f60068" fill="none" />
  <path d="M 1118.14285714286 981.571428571429  L 1122.42857142857 975.571428571429  " stroke-width="2.57142857142857" stroke="#f60068" fill="none" />
</svg>